999
"DXF R12 Output" (www.mydxf.blogspot.com)
 0 
SECTION
 2 
HEADER
 9 
$ACADVER
 1 
AC1009
 9 
$EXTMIN
 10 
 0 
 20 
 0 
 9 
$EXTMAX
 10 
 8.5 
 20 
 11 
 0 
ENDSEC
 0 
SECTION
 2 
ENTITIES
0
LINE
8
Layer 1
10
0.793749
20
313.499000
11
-0.793749
21
311.911000
0
LINE
8
Layer 1
10
0.000000
20
314.028000
11
0.000000
21
311.382000
0
LINE
8
Layer 1
10
2.116660
20
311.647000
11
1.058330
21
310.588670
0
LINE
8
Layer 1
10
1.587500
20
312.176000
11
0.529170
21
311.117670
0
LINE
8
Layer 1
10
1.058330
20
312.705000
11
0.000000
21
311.646670
0
LINE
8
Body001
10
63.528100
20
84.597200
11
56.028230
21
71.606700
0
LINE
8
Body001
10
67.859030
20
82.097200
11
63.528070
21
84.597240
0
LINE
8
Body001
10
60.359160
20
69.106740
11
67.859030
21
82.097240
0
LINE
8
Body001
10
56.028230
20
71.606740
11
60.359190
21
69.106700
0
LINE
8
Body001
10
86.027990
20
123.568200
11
78.528120
21
110.578200
0
LINE
8
Body001
10
90.358720
20
121.068100
11
86.028030
21
123.568140
0
LINE
8
Body001
10
82.859120
20
108.078140
11
90.358730
21
121.068140
0
LINE
8
Body001
10
78.528130
20
110.578240
11
82.859090
21
108.078200
0
LINE
8
Body001
10
108.528690
20
162.539200
11
101.028560
21
149.549200
0
LINE
8
Body001
10
112.858560
20
160.039100
11
108.528660
21
162.539140
0
LINE
8
Body001
10
105.358690
20
147.049140
11
112.858560
21
160.039140
0
LINE
8
Body001
10
101.028560
20
149.549240
11
105.358730
21
147.049200
0
LINE
8
Body001
10
123.528730
20
188.520200
11
131.028600
21
201.510200
0
LINE
8
Body001
10
127.858630
20
186.020200
11
123.528730
21
188.520240
0
LINE
8
Body001
10
135.358730
20
199.010140
11
127.858600
21
186.020140
0
LINE
8
Body001
10
131.028570
20
201.510140
11
135.358740
21
199.010100
0
LINE
8
Body001
10
168.529000
20
266.462000
11
176.029000
21
279.452000
0
LINE
8
Body001
10
172.859110
20
263.961900
11
168.529020
21
266.461940
0
LINE
8
Body001
10
180.359120
20
276.951940
11
172.859120
21
263.961840
0
LINE
8
Body001
10
176.029010
20
279.451940
11
180.359120
21
276.951950
0
LINE
8
Body001
10
146.029020
20
227.490950
11
153.528890
21
240.480950
0
LINE
8
Body001
10
150.359190
20
224.990950
11
146.029020
21
227.490990
0
LINE
8
Body001
10
157.859020
20
237.980890
11
150.359150
21
224.990890
0
LINE
8
Body001
10
153.528850
20
240.480890
11
157.859020
21
237.980850
0
LINE
8
Body001
10
107.074420
20
198.020050
11
100.887150
21
187.302850
0
LINE
8
Body001
10
100.887150
20
187.302850
11
104.351070
21
185.302870
0
LINE
8
Body001
10
107.074420
20
198.020070
11
102.744520
21
200.520110
0
LINE
8
Body001
10
104.351070
20
185.302910
11
105.038721
21
186.494060
0
LINE
8
Body001
10
102.744521
20
200.520160
11
110.244391
21
213.510160
0
LINE
8
Body001
10
105.038721
20
186.494160
11
108.502641
21
184.494180
0
LINE
8
Body001
10
110.244391
20
213.510180
11
114.574561
21
211.010140
0
LINE
8
Body001
10
107.815261
20
183.303040
11
108.502648
21
184.494190
0
LINE
8
Body001
10
114.574568
20
211.010190
11
129.574568
21
236.991190
0
LINE
8
Body001
10
111.279468
20
181.303090
11
107.815278
21
183.303070
0
LINE
8
Body001
10
129.574578
20
236.991170
11
170.324478
21
307.571970
0
LINE
8
Body001
10
108.654278
20
176.755970
11
111.279468
21
181.302830
0
LINE
8
Body001
10
183.984000
20
311.232000
11
182.137081
21
312.063719
0
LINE
8
Body001
10
182.137081
20
312.063719
11
180.220127
21
312.497644
0
LINE
8
Body001
10
180.220127
20
312.497644
11
178.288070
21
312.548492
0
LINE
8
Body001
10
178.288070
20
312.548492
11
176.395840
21
312.230984
0
LINE
8
Body001
10
176.395840
20
312.230984
11
174.598368
21
311.559837
0
LINE
8
Body001
10
174.598368
20
311.559837
11
172.950583
21
310.549770
0
LINE
8
Body001
10
172.950583
20
310.549770
11
171.507417
21
309.215501
0
LINE
8
Body001
10
171.507417
20
309.215501
11
170.323800
21
307.571750
0
LINE
8
Body001
10
105.190000
20
178.756000
11
108.653920
21
176.756020
0
LINE
8
Body001
10
183.984320
20
311.232020
11
196.974720
21
303.732020
0
LINE
8
Body001
10
104.502320
20
177.565020
11
105.189971
21
178.756170
0
LINE
8
Body001
10
196.975000
20
303.732000
11
194.475000
21
299.402000
0
LINE
8
Body001
10
104.502000
20
177.565000
11
101.038080
21
179.565250
0
LINE
8
Body001
10
194.475000
20
299.402000
11
207.465000
21
291.902000
0
LINE
8
Body001
10
101.038000
20
179.565000
11
101.725387
21
180.755890
0
LINE
8
Body001
10
207.465000
20
291.902000
11
209.965000
21
296.232000
0
LINE
8
Body001
10
98.261500
20
182.756000
11
101.725690
21
180.756020
0
LINE
8
Body001
10
209.965000
20
296.232000
11
222.955000
21
288.732000
0
LINE
8
Body001
10
92.074000
20
172.039000
11
98.261540
21
182.755900
0
LINE
8
Body001
10
226.616000
20
275.072000
11
227.447618
21
276.918965
0
LINE
8
Body001
10
227.447618
20
276.918965
11
227.881437
21
278.835942
0
LINE
8
Body001
10
227.881437
20
278.835942
11
227.932180
21
280.768002
0
LINE
8
Body001
10
227.932180
20
280.768002
11
227.614568
21
282.660215
0
LINE
8
Body001
10
227.614568
20
282.660215
11
226.943322
21
284.457651
0
LINE
8
Body001
10
226.943322
20
284.457651
11
225.933164
21
286.105380
0
LINE
8
Body001
10
225.933164
20
286.105380
11
224.598816
21
287.548473
0
LINE
8
Body001
10
224.598816
20
287.548473
11
222.955000
21
288.732000
0
LINE
8
Body001
10
87.744100
20
174.539000
11
92.074000
21
172.038960
0
LINE
8
Body001
10
226.616000
20
275.072000
11
170.866000
21
178.510000
0
LINE
8
Body001
10
80.244500
20
161.549200
11
87.744370
21
174.539200
0
LINE
8
Body001
10
170.865970
20
178.510060
11
175.196060
21
176.010020
0
LINE
8
Body001
10
84.574360
20
159.049220
11
80.244460
21
161.549260
0
LINE
8
Body001
10
175.196060
20
176.010060
11
167.696080
21
163.020060
0
LINE
8
Body001
10
69.574380
20
133.068160
11
84.574380
21
159.049160
0
LINE
8
Body001
10
167.696080
20
163.020020
11
163.365970
21
165.520060
0
LINE
8
Body001
10
40.074200
20
81.972800
11
69.574100
21
133.068000
0
LINE
8
Body001
10
163.366000
20
165.520000
11
157.178000
21
154.803000
0
LINE
8
Body001
10
40.074000
20
81.972600
11
35.744100
21
84.472380
0
LINE
8
Body001
10
152.848100
20
157.303080
11
157.178530
21
154.803040
0
LINE
8
Body001
10
35.744530
20
84.472340
11
28.244400
21
71.482140
0
LINE
8
Body001
10
152.848400
20
157.303040
11
153.536051
21
158.493930
0
LINE
8
Body001
10
28.245051
20
71.482130
11
32.575221
21
68.982090
0
LINE
8
Body001
10
153.536221
20
158.493990
11
150.072031
21
160.493970
0
LINE
8
Body001
10
26.387031
20
58.264970
11
32.575101
21
68.981870
0
LINE
8
Body001
10
149.385101
20
159.302870
11
150.072488
21
160.493760
0
LINE
8
Body001
10
29.852488
20
56.264760
11
26.387508
21
58.264740
0
LINE
8
Body001
10
146.787508
20
160.802740
11
149.385718
21
159.302820
0
LINE
8
Body001
10
30.539718
20
57.455820
11
29.852861
21
56.265200
0
LINE
8
Body001
10
144.162861
20
156.255900
11
146.787791
21
160.803020
0
LINE
8
Body001
10
34.003791
20
55.456020
11
30.539601
21
57.456000
0
LINE
8
Body001
10
146.760601
20
154.756100
11
144.162391
21
156.256020
0
LINE
8
Body001
10
33.316391
20
54.265020
11
34.003513
21
55.455640
0
LINE
8
Body001
10
146.072513
20
153.564840
11
146.760164
21
154.755730
0
LINE
8
Body001
10
36.780164
20
52.264730
11
33.316244
21
54.264710
0
LINE
8
Body001
10
146.072244
20
153.564610
11
149.536434
21
151.564630
0
LINE
8
Body001
10
34.155434
20
47.717630
11
36.780364
21
52.264490
0
LINE
8
Body001
10
149.537364
20
151.564390
11
150.224751
21
152.755280
0
LINE
8
Body001
10
30.691751
20
49.717280
11
34.155671
21
47.717300
0
LINE
8
Body001
10
150.224671
20
152.755300
11
154.554841
21
150.255260
0
LINE
8
Body001
10
30.003841
20
48.527260
11
30.691757
21
49.717880
0
LINE
8
Body001
10
154.554757
20
150.255880
11
148.367487
21
139.538980
0
LINE
8
Body001
10
26.539487
20
50.527680
11
30.003677
21
48.527700
0
LINE
8
Body001
10
148.367677
20
139.539000
11
152.697577
21
137.038960
0
LINE
8
Body001
10
27.228577
20
51.718360
11
26.540397
21
50.527740
0
LINE
8
Body001
10
152.698397
20
137.038940
11
145.198527
21
124.048940
0
LINE
8
Body001
10
23.763527
20
53.718240
11
27.228507
21
51.718260
0
LINE
8
Body001
10
145.198507
20
124.048860
11
140.868337
21
126.548900
0
LINE
8
Body001
10
17.577337
20
43.001300
11
23.764347
21
53.718200
0
LINE
8
Body001
10
140.868347
20
126.548900
11
127.118547
21
102.733000
0
LINE
8
Body001
10
17.576547
20
43.001300
11
13.246377
21
45.501340
0
LINE
8
Body001
10
127.116000
20
102.733000
11
125.669719
21
99.101303
0
LINE
8
Body001
10
125.669719
20
99.101303
11
124.445434
21
95.413963
0
LINE
8
Body001
10
124.445434
20
95.413963
11
123.442625
21
91.680615
0
LINE
8
Body001
10
123.442625
20
91.680615
11
122.660772
21
87.910891
0
LINE
8
Body001
10
122.660772
20
87.910891
11
122.099353
21
84.114426
0
LINE
8
Body001
10
122.099353
20
84.114426
11
121.757850
21
80.300853
0
LINE
8
Body001
10
121.757850
20
80.300853
11
121.635740
21
76.479806
0
LINE
8
Body001
10
121.635740
20
76.479806
11
121.732505
21
72.660919
0
LINE
8
Body001
10
121.732505
20
72.660919
11
122.047624
21
68.853825
0
LINE
8
Body001
10
122.047624
20
68.853825
11
122.580577
21
65.068158
0
LINE
8
Body001
10
122.580577
20
65.068158
11
123.330842
21
61.313552
0
LINE
8
Body001
10
123.330842
20
61.313552
11
124.297901
21
57.599641
0
LINE
8
Body001
10
124.297901
20
57.599641
11
125.481232
21
53.936058
0
LINE
8
Body001
10
125.481232
20
53.936058
11
126.880315
21
50.332437
0
LINE
8
Body001
10
126.880315
20
50.332437
11
128.494630
21
46.798412
0
LINE
8
Body001
10
128.494630
20
46.798412
11
130.323657
21
43.343616
0
LINE
8
Body001
10
130.323657
20
43.343616
11
132.351597
21
40.001700
0
LINE
8
Body001
10
132.351597
20
40.001700
11
134.557666
21
36.803480
0
LINE
8
Body001
10
134.557666
20
36.803480
11
136.933859
21
33.754345
0
LINE
8
Body001
10
136.933859
20
33.754345
11
139.472172
21
30.859681
0
LINE
8
Body001
10
139.472172
20
30.859681
11
142.164602
21
28.124876
0
LINE
8
Body001
10
142.164602
20
28.124876
11
145.003145
21
25.555316
0
LINE
8
Body001
10
145.003145
20
25.555316
11
147.979797
21
23.156389
0
LINE
8
Body001
10
147.979797
20
23.156389
11
151.086556
21
20.933482
0
LINE
8
Body001
10
151.086556
20
20.933482
11
154.315417
21
18.891982
0
LINE
8
Body001
10
154.315417
20
18.891982
11
157.658376
21
17.037277
0
LINE
8
Body001
10
157.658376
20
17.037277
11
161.107430
21
15.374753
0
LINE
8
Body001
10
161.107430
20
15.374753
11
164.654576
21
13.909797
0
LINE
8
Body001
10
164.654576
20
13.909797
11
168.291810
21
12.647796
0
LINE
8
Body001
10
168.291810
20
12.647796
11
172.011127
21
11.594139
0
LINE
8
Body001
10
172.011127
20
11.594139
11
175.804525
21
10.754211
0
LINE
8
Body001
10
175.804525
20
10.754211
11
179.664000
21
10.133400
0
LINE
8
Body001
10
13.244100
20
45.501600
11
5.744230
21
32.510300
0
LINE
8
Body001
10
179.663230
20
15.132500
11
179.664000
21
10.134500
0
LINE
8
Body001
10
5.745000
20
32.510300
11
10.074900
21
30.009990
0
LINE
8
Body001
10
188.324000
20
10.134500
11
179.664000
21
15.132500
0
LINE
8
Body001
10
1.484000
20
15.132500
11
10.073950
21
30.010000
0
LINE
8
Body001
10
188.324000
20
3.133660
11
188.324000
21
10.134500
0
LINE
8
Body001
10
1.485000
20
15.133320
11
0.898859
21
13.942217
0
LINE
8
Body001
10
0.898859
20
13.942217
11
0.480187
21
12.700631
0
LINE
8
Body001
10
0.480187
20
12.700631
11
0.228982
21
11.425390
0
LINE
8
Body001
10
0.228982
20
11.425390
11
0.145247
21
10.133322
0
LINE
8
Body001
10
0.145247
20
10.133322
11
0.228979
21
8.841254
0
LINE
8
Body001
10
0.228979
20
8.841254
11
0.480180
21
7.566012
0
LINE
8
Body001
10
0.480180
20
7.566012
11
0.898850
21
6.324426
0
LINE
8
Body001
10
0.898850
20
6.324426
11
1.484988
21
5.133321
0
LINE
8
Body001
10
1.484988
20
5.133321
11
2.223444
21
4.030157
0
LINE
8
Body001
10
2.223444
20
4.030157
11
3.089354
21
3.046784
0
LINE
8
Body001
10
3.089354
20
3.046784
11
4.068143
21
2.191616
0
LINE
8
Body001
10
4.068143
20
2.191616
11
5.145240
21
1.473066
0
LINE
8
Body001
10
5.145240
20
1.473066
11
6.306071
21
0.899547
0
LINE
8
Body001
10
6.306071
20
0.899547
11
7.536063
21
0.479474
0
LINE
8
Body001
10
7.536063
20
0.479474
11
8.820644
21
0.221261
0
LINE
8
Body001
10
8.820644
20
0.221261
11
10.145240
21
0.133320
0
LINE
8
Body001
10
185.324240
20
0.133320
11
186.491910
21
0.369149
0
LINE
8
Body001
10
186.491910
20
0.369149
11
187.445423
21
1.012102
0
LINE
8
Body001
10
187.445423
20
1.012102
11
188.088284
21
1.965677
0
LINE
8
Body001
10
188.088284
20
1.965677
11
188.324000
21
3.133370
0
LINE
8
Body001
10
185.324000
20
0.133291
11
10.145300
21
0.133291
0
LINE
8
Body001
10
63.528100
20
84.597191
11
56.028230
21
71.606691
0
LINE
8
Body001
10
63.528100
20
84.597191
11
56.028230
21
71.606691
0
LINE
8
Body001
10
56.028230
20
71.606691
11
56.028300
21
71.606700
0
LINE
8
Body001
10
63.528170
20
84.597200
11
63.528100
21
84.597200
0
LINE
8
Body001
10
67.859060
20
82.097160
11
63.528100
21
84.597200
0
LINE
8
Body001
10
67.859060
20
82.097160
11
63.528100
21
84.597200
0
LINE
8
Body001
10
63.528100
20
84.597200
11
63.528100
21
84.597200
0
LINE
8
Body001
10
67.859060
20
82.097160
11
67.859100
21
82.097100
0
LINE
8
Body001
10
60.359230
20
69.106600
11
67.859100
21
82.097100
0
LINE
8
Body001
10
60.359230
20
69.106600
11
67.859100
21
82.097100
0
LINE
8
Body001
10
67.859100
20
82.097100
11
67.859100
21
82.097100
0
LINE
8
Body001
10
60.359230
20
69.106600
11
60.359200
21
69.106600
0
LINE
8
Body001
10
56.028240
20
71.606640
11
60.359200
21
69.106600
0
LINE
8
Body001
10
56.028240
20
71.606640
11
60.359200
21
69.106600
0
LINE
8
Body001
10
60.359200
20
69.106600
11
60.359200
21
69.106600
0
LINE
8
Body001
10
56.028240
20
71.606640
11
56.028300
21
71.606700
0
LINE
8
Body001
10
86.028000
20
123.568200
11
78.528130
21
110.578200
0
LINE
8
Body001
10
86.028000
20
123.568200
11
78.528130
21
110.578200
0
LINE
8
Body001
10
78.528130
20
110.578200
11
78.528100
21
110.578000
0
LINE
8
Body001
10
86.027970
20
123.568000
11
86.028000
21
123.568000
0
LINE
8
Body001
10
90.358690
20
121.067960
11
86.028000
21
123.568000
0
LINE
8
Body001
10
90.358690
20
121.067960
11
86.028000
21
123.568000
0
LINE
8
Body001
10
86.028000
20
123.568000
11
86.028000
21
123.568000
0
LINE
8
Body001
10
90.358690
20
121.067960
11
90.358700
21
121.068000
0
LINE
8
Body001
10
82.859090
20
108.078000
11
90.358700
21
121.068000
0
LINE
8
Body001
10
82.859090
20
108.078000
11
90.358700
21
121.068000
0
LINE
8
Body001
10
90.358700
20
121.068000
11
90.358700
21
121.068000
0
LINE
8
Body001
10
82.859090
20
108.078000
11
82.859100
21
108.078000
0
LINE
8
Body001
10
78.528140
20
110.578040
11
82.859100
21
108.078000
0
LINE
8
Body001
10
78.528140
20
110.578040
11
82.859100
21
108.078000
0
LINE
8
Body001
10
82.859100
20
108.078000
11
82.859100
21
108.078000
0
LINE
8
Body001
10
78.528140
20
110.578040
11
78.528100
21
110.578000
0
LINE
8
Body001
10
108.528600
20
162.538900
11
101.028470
21
149.548900
0
LINE
8
Body001
10
108.528600
20
162.538900
11
101.028470
21
149.548900
0
LINE
8
Body001
10
101.028470
20
149.548900
11
101.029000
21
149.549000
0
LINE
8
Body001
10
108.529130
20
162.539000
11
108.529000
21
162.539000
0
LINE
8
Body001
10
112.858900
20
160.038960
11
108.529000
21
162.539000
0
LINE
8
Body001
10
112.858900
20
160.038960
11
108.529000
21
162.539000
0
LINE
8
Body001
10
108.529000
20
162.539000
11
108.529000
21
162.539000
0
LINE
8
Body001
10
112.858900
20
160.038960
11
112.859000
21
160.039000
0
LINE
8
Body001
10
105.359130
20
147.049000
11
112.859000
21
160.039000
0
LINE
8
Body001
10
105.359130
20
147.049000
11
112.859000
21
160.039000
0
LINE
8
Body001
10
112.859000
20
160.039000
11
112.859000
21
160.039000
0
LINE
8
Body001
10
105.359130
20
147.049000
11
105.359000
21
147.049000
0
LINE
8
Body001
10
101.028830
20
149.549040
11
105.359000
21
147.049000
0
LINE
8
Body001
10
101.028830
20
149.549040
11
105.359000
21
147.049000
0
LINE
8
Body001
10
105.359000
20
147.049000
11
105.359000
21
147.049000
0
LINE
8
Body001
10
101.028830
20
149.549040
11
101.029000
21
149.549000
0
LINE
8
Body001
10
123.529100
20
188.520000
11
131.028970
21
201.510000
0
LINE
8
Body001
10
123.529100
20
188.520000
11
131.028970
21
201.510000
0
LINE
8
Body001
10
131.028970
20
201.510000
11
131.029000
21
201.510000
0
LINE
8
Body001
10
123.529130
20
188.520000
11
123.529000
21
188.520000
0
LINE
8
Body001
10
127.858900
20
186.019960
11
123.529000
21
188.520000
0
LINE
8
Body001
10
127.858900
20
186.019960
11
123.529000
21
188.520000
0
LINE
8
Body001
10
123.529000
20
188.520000
11
123.529000
21
188.520000
0
LINE
8
Body001
10
127.858900
20
186.019960
11
127.859000
21
186.020000
0
LINE
8
Body001
10
135.359130
20
199.010000
11
127.859000
21
186.020000
0
LINE
8
Body001
10
135.359130
20
199.010000
11
127.859000
21
186.020000
0
LINE
8
Body001
10
127.859000
20
186.020000
11
127.859000
21
186.020000
0
LINE
8
Body001
10
135.359130
20
199.010000
11
135.359000
21
199.010000
0
LINE
8
Body001
10
131.028830
20
201.510040
11
135.359000
21
199.010000
0
LINE
8
Body001
10
131.028830
20
201.510040
11
135.359000
21
199.010000
0
LINE
8
Body001
10
135.359000
20
199.010000
11
135.359000
21
199.010000
0
LINE
8
Body001
10
131.028830
20
201.510040
11
131.029000
21
201.510000
0
LINE
8
Body001
10
168.529000
20
266.462000
11
176.029000
21
279.452000
0
LINE
8
Body001
10
168.529020
20
266.462000
11
176.029000
21
279.452000
0
LINE
8
Body001
10
176.029000
20
279.452000
11
176.029000
21
279.452000
0
LINE
8
Body001
10
168.529020
20
266.462000
11
168.529000
21
266.462000
0
LINE
8
Body001
10
172.859090
20
263.961960
11
168.529000
21
266.462000
0
LINE
8
Body001
10
172.859090
20
263.961960
11
168.529000
21
266.462000
0
LINE
8
Body001
10
168.529000
20
266.462000
11
168.529000
21
266.462000
0
LINE
8
Body001
10
172.859090
20
263.961960
11
172.859000
21
263.962000
0
LINE
8
Body001
10
180.359000
20
276.952100
11
172.859000
21
263.962000
0
LINE
8
Body001
10
180.359000
20
276.952100
11
172.859000
21
263.962000
0
LINE
8
Body001
10
172.859000
20
263.962000
11
172.859000
21
263.962000
0
LINE
8
Body001
10
180.359000
20
276.952100
11
180.359000
21
276.952000
0
LINE
8
Body001
10
176.028890
20
279.451990
11
180.359000
21
276.952000
0
LINE
8
Body001
10
176.028890
20
279.451990
11
180.359000
21
276.952000
0
LINE
8
Body001
10
180.359000
20
276.952000
11
180.359000
21
276.952000
0
LINE
8
Body001
10
176.028890
20
279.451990
11
176.029000
21
279.452000
0
LINE
8
Body001
10
146.029000
20
227.491000
11
153.528870
21
240.481000
0
LINE
8
Body001
10
146.029000
20
227.491000
11
153.528870
21
240.481000
0
LINE
8
Body001
10
153.528870
20
240.481000
11
153.528000
21
240.481000
0
LINE
8
Body001
10
146.028130
20
227.491000
11
146.029000
21
227.491000
0
LINE
8
Body001
10
150.359170
20
224.990960
11
146.029000
21
227.491000
0
LINE
8
Body001
10
150.359170
20
224.990960
11
146.029000
21
227.491000
0
LINE
8
Body001
10
146.029000
20
227.491000
11
146.029000
21
227.491000
0
LINE
8
Body001
10
150.359170
20
224.990960
11
150.359000
21
224.991000
0
LINE
8
Body001
10
157.858870
20
237.981000
11
150.359000
21
224.991000
0
LINE
8
Body001
10
157.858870
20
237.981000
11
150.359000
21
224.991000
0
LINE
8
Body001
10
150.359000
20
224.991000
11
150.359000
21
224.991000
0
LINE
8
Body001
10
157.858870
20
237.981000
11
157.859000
21
237.981000
0
LINE
8
Body001
10
153.528830
20
240.481040
11
157.859000
21
237.981000
0
LINE
8
Body001
10
153.528830
20
240.481040
11
157.859000
21
237.981000
0
LINE
8
Body001
10
157.859000
20
237.981000
11
157.859000
21
237.981000
0
LINE
8
Body001
10
153.528830
20
240.481040
11
153.528000
21
240.481000
0
LINE
8
Body001
10
107.073600
20
198.020200
11
100.886330
21
187.303000
0
LINE
8
Body001
10
107.073600
20
198.020200
11
100.886330
21
187.303000
0
LINE
8
Body001
10
100.886330
20
187.303000
11
100.887000
21
187.303000
0
LINE
8
Body001
10
107.074270
20
198.020200
11
107.074000
21
198.020000
0
LINE
8
Body001
10
100.886730
20
187.302800
11
104.350650
21
185.302820
0
LINE
8
Body001
10
100.886730
20
187.302800
11
104.350650
21
185.302820
0
LINE
8
Body001
10
104.350650
20
185.302820
11
104.351000
21
185.303000
0
LINE
8
Body001
10
100.887080
20
187.302980
11
100.887000
21
187.303000
0
LINE
8
Body001
10
107.074270
20
198.020200
11
102.744370
21
200.520240
0
LINE
8
Body001
10
107.074270
20
198.020200
11
102.744370
21
200.520240
0
LINE
8
Body001
10
102.744370
20
200.520240
11
102.744000
21
200.520000
0
LINE
8
Body001
10
107.073900
20
198.019960
11
107.074000
21
198.020000
0
LINE
8
Body001
10
104.350650
20
185.302800
11
105.038301
21
186.493950
0
LINE
8
Body001
10
104.350650
20
185.302800
11
105.038301
21
186.493950
0
LINE
8
Body001
10
105.038301
20
186.493950
11
105.038000
21
186.494000
0
LINE
8
Body001
10
104.350349
20
185.302850
11
104.351000
21
185.303000
0
LINE
8
Body001
10
102.744450
20
200.520200
11
110.244320
21
213.510200
0
LINE
8
Body001
10
102.744450
20
200.520200
11
110.244320
21
213.510200
0
LINE
8
Body001
10
110.244320
20
213.510200
11
110.244000
21
213.510000
0
LINE
8
Body001
10
102.744130
20
200.520000
11
102.744000
21
200.520000
0
LINE
8
Body001
10
105.038200
20
186.493900
11
108.502120
21
184.493920
0
LINE
8
Body001
10
105.038200
20
186.493900
11
108.502120
21
184.493920
0
LINE
8
Body001
10
108.502120
20
184.493920
11
108.502000
21
184.494000
0
LINE
8
Body001
10
105.038080
20
186.493980
11
105.038000
21
186.494000
0
LINE
8
Body001
10
110.243670
20
213.510000
11
114.573840
21
211.009960
0
LINE
8
Body001
10
110.243670
20
213.510000
11
114.573840
21
211.009960
0
LINE
8
Body001
10
114.573840
20
211.009960
11
114.574000
21
211.010000
0
LINE
8
Body001
10
110.243830
20
213.510040
11
110.244000
21
213.510000
0
LINE
8
Body001
10
107.814860
20
183.302800
11
108.502247
21
184.493950
0
LINE
8
Body001
10
107.814860
20
183.302800
11
108.502247
21
184.493950
0
LINE
8
Body001
10
108.502247
20
184.493950
11
108.502000
21
184.494000
0
LINE
8
Body001
10
107.814613
20
183.302850
11
107.815000
21
183.303000
0
LINE
8
Body001
10
114.574300
20
211.010100
11
129.574300
21
236.991100
0
LINE
8
Body001
10
114.574300
20
211.010100
11
129.574300
21
236.991100
0
LINE
8
Body001
10
129.574300
20
236.991100
11
129.574000
21
236.991000
0
LINE
8
Body001
10
114.574000
20
211.010000
11
114.574000
21
211.010000
0
LINE
8
Body001
10
111.278880
20
181.302900
11
107.814690
21
183.302880
0
LINE
8
Body001
10
111.278880
20
181.302900
11
107.814690
21
183.302880
0
LINE
8
Body001
10
107.814690
20
183.302880
11
107.815000
21
183.303000
0
LINE
8
Body001
10
111.279190
20
181.303020
11
111.279000
21
181.303000
0
LINE
8
Body001
10
129.574000
20
236.991000
11
170.324000
21
307.572000
0
LINE
8
Body001
10
129.574000
20
236.991000
11
129.574000
21
236.991000
0
LINE
8
Body001
10
170.324000
20
307.572000
11
170.324000
21
307.572000
0
LINE
8
Body001
10
129.574000
20
236.991000
11
170.324000
21
307.572000
0
LINE
8
Body001
10
108.653800
20
176.756000
11
111.278990
21
181.302860
0
LINE
8
Body001
10
108.653800
20
176.756000
11
111.278990
21
181.302860
0
LINE
8
Body001
10
111.278990
20
181.302860
11
111.279000
21
181.303000
0
LINE
8
Body001
10
108.653810
20
176.756140
11
108.654000
21
176.756000
0
LINE
8
Body001
10
183.984000
20
311.232000
11
182.137081
21
312.063719
0
LINE
8
Body001
10
182.137081
20
312.063719
11
180.220127
21
312.497644
0
LINE
8
Body001
10
180.220127
20
312.497644
11
178.288070
21
312.548492
0
LINE
8
Body001
10
178.288070
20
312.548492
11
176.395840
21
312.230984
0
LINE
8
Body001
10
176.395840
20
312.230984
11
174.598368
21
311.559837
0
LINE
8
Body001
10
174.598368
20
311.559837
11
172.950583
21
310.549770
0
LINE
8
Body001
10
172.950583
20
310.549770
11
171.507417
21
309.215501
0
LINE
8
Body001
10
171.507417
20
309.215501
11
170.323800
21
307.571750
0
LINE
8
Body001
10
183.984000
20
311.232000
11
183.984000
21
311.232000
0
LINE
8
Body001
10
170.323800
20
307.572000
11
170.324000
21
307.572000
0
LINE
8
Body001
10
183.984200
20
311.232250
11
182.137281
21
312.063969
0
LINE
8
Body001
10
182.137281
20
312.063969
11
180.220327
21
312.497894
0
LINE
8
Body001
10
180.220327
20
312.497894
11
178.288270
21
312.548742
0
LINE
8
Body001
10
178.288270
20
312.548742
11
176.396040
21
312.231234
0
LINE
8
Body001
10
176.396040
20
312.231234
11
174.598568
21
311.560087
0
LINE
8
Body001
10
174.598568
20
311.560087
11
172.950783
21
310.550020
0
LINE
8
Body001
10
172.950783
20
310.550020
11
171.507617
21
309.215751
0
LINE
8
Body001
10
171.507617
20
309.215751
11
170.324000
21
307.572000
0
LINE
8
Body001
10
105.190000
20
178.756000
11
108.653920
21
176.756020
0
LINE
8
Body001
10
105.190000
20
178.756000
11
108.653920
21
176.756020
0
LINE
8
Body001
10
108.653920
20
176.756020
11
108.654000
21
176.756000
0
LINE
8
Body001
10
105.190080
20
178.755980
11
105.190000
21
178.756000
0
LINE
8
Body001
10
183.984400
20
311.232000
11
196.974800
21
303.732000
0
LINE
8
Body001
10
196.974800
20
303.732000
11
196.975000
21
303.732000
0
LINE
8
Body001
10
183.984600
20
311.232000
11
183.984000
21
311.232000
0
LINE
8
Body001
10
183.984000
20
311.232000
11
196.974400
21
303.732000
0
LINE
8
Body001
10
104.502000
20
177.565000
11
105.189651
21
178.756150
0
LINE
8
Body001
10
104.502000
20
177.565000
11
105.189651
21
178.756150
0
LINE
8
Body001
10
105.189651
20
178.756150
11
105.190000
21
178.756000
0
LINE
8
Body001
10
104.502349
20
177.564850
11
104.502000
21
177.565000
0
LINE
8
Body001
10
196.975000
20
303.732000
11
194.475000
21
299.402000
0
LINE
8
Body001
10
196.974990
20
303.731990
11
194.475000
21
299.402000
0
LINE
8
Body001
10
194.475000
20
299.402000
11
194.475000
21
299.402000
0
LINE
8
Body001
10
196.974990
20
303.731990
11
196.975000
21
303.732000
0
LINE
8
Body001
10
104.502600
20
177.565000
11
101.038680
21
179.565250
0
LINE
8
Body001
10
104.502600
20
177.565000
11
101.038680
21
179.565250
0
LINE
8
Body001
10
101.038680
20
179.565250
11
101.038000
21
179.565000
0
LINE
8
Body001
10
104.501920
20
177.564750
11
104.502000
21
177.565000
0
LINE
8
Body001
10
194.475000
20
299.402000
11
207.465000
21
291.902000
0
LINE
8
Body001
10
194.475000
20
299.402000
11
207.465000
21
291.902000
0
LINE
8
Body001
10
207.465000
20
291.902000
11
207.465000
21
291.902000
0
LINE
8
Body001
10
194.475000
20
299.402000
11
194.475000
21
299.402000
0
LINE
8
Body001
10
101.038000
20
179.565000
11
101.725387
21
180.755890
0
LINE
8
Body001
10
101.038000
20
179.565000
11
101.725387
21
180.755890
0
LINE
8
Body001
10
101.725387
20
180.755890
11
101.726000
21
180.756000
0
LINE
8
Body001
10
101.038613
20
179.565110
11
101.038000
21
179.565000
0
LINE
8
Body001
10
207.465000
20
291.902000
11
209.965000
21
296.232000
0
LINE
8
Body001
10
207.465000
20
291.902000
11
209.965000
21
296.232000
0
LINE
8
Body001
10
209.965000
20
296.232000
11
209.965000
21
296.232000
0
LINE
8
Body001
10
207.465000
20
291.902000
11
207.465000
21
291.902000
0
LINE
8
Body001
10
98.262000
20
182.756000
11
101.726190
21
180.756020
0
LINE
8
Body001
10
98.262000
20
182.756000
11
101.726190
21
180.756020
0
LINE
8
Body001
10
101.726190
20
180.756020
11
101.726000
21
180.756000
0
LINE
8
Body001
10
98.261810
20
182.755980
11
98.261500
21
182.756000
0
LINE
8
Body001
10
209.965000
20
296.232000
11
222.955000
21
288.732000
0
LINE
8
Body001
10
209.965000
20
296.232000
11
209.965000
21
296.232000
0
LINE
8
Body001
10
222.955000
20
288.732000
11
222.955000
21
288.732000
0
LINE
8
Body001
10
209.965000
20
296.232000
11
222.955000
21
288.732000
0
LINE
8
Body001
10
92.074000
20
172.039000
11
98.261540
21
182.755900
0
LINE
8
Body001
10
92.074000
20
172.039000
11
98.261540
21
182.755900
0
LINE
8
Body001
10
98.261540
20
182.755900
11
98.261500
21
182.756000
0
LINE
8
Body001
10
92.073960
20
172.039100
11
92.074000
21
172.039000
0
LINE
8
Body001
10
226.616000
20
275.072000
11
227.447618
21
276.918965
0
LINE
8
Body001
10
227.447618
20
276.918965
11
227.881437
21
278.835942
0
LINE
8
Body001
10
227.881437
20
278.835942
11
227.932180
21
280.768002
0
LINE
8
Body001
10
227.932180
20
280.768002
11
227.614568
21
282.660215
0
LINE
8
Body001
10
227.614568
20
282.660215
11
226.943322
21
284.457651
0
LINE
8
Body001
10
226.943322
20
284.457651
11
225.933164
21
286.105380
0
LINE
8
Body001
10
225.933164
20
286.105380
11
224.598816
21
287.548473
0
LINE
8
Body001
10
224.598816
20
287.548473
11
222.955000
21
288.732000
0
LINE
8
Body001
10
226.616000
20
275.072000
11
226.616000
21
275.072000
0
LINE
8
Body001
10
222.955000
20
288.732000
11
222.955000
21
288.732000
0
LINE
8
Body001
10
226.615340
20
275.072000
11
227.447008
21
276.918906
0
LINE
8
Body001
10
227.447008
20
276.918906
11
227.880894
21
278.835838
0
LINE
8
Body001
10
227.880894
20
278.835838
11
227.931715
21
280.767867
0
LINE
8
Body001
10
227.931715
20
280.767867
11
227.614190
21
282.660065
0
LINE
8
Body001
10
227.614190
20
282.660065
11
226.943037
21
284.457506
0
LINE
8
Body001
10
226.943037
20
284.457506
11
225.932976
21
286.105260
0
LINE
8
Body001
10
225.932976
20
286.105260
11
224.598724
21
287.548401
0
LINE
8
Body001
10
224.598724
20
287.548401
11
222.955000
21
288.732000
0
LINE
8
Body001
10
87.744100
20
174.539000
11
92.074000
21
172.038960
0
LINE
8
Body001
10
87.744100
20
174.539000
11
92.074000
21
172.038960
0
LINE
8
Body001
10
92.074000
20
172.038960
11
92.074000
21
172.039000
0
LINE
8
Body001
10
87.744100
20
174.539040
11
87.744100
21
174.539000
0
LINE
8
Body001
10
226.616000
20
275.072000
11
170.866000
21
178.510000
0
LINE
8
Body001
10
170.866000
20
178.510000
11
170.866000
21
178.510000
0
LINE
8
Body001
10
226.616000
20
275.072000
11
226.616000
21
275.072000
0
LINE
8
Body001
10
226.616000
20
275.072000
11
170.866000
21
178.510100
0
LINE
8
Body001
10
80.244500
20
161.549300
11
87.744370
21
174.539300
0
LINE
8
Body001
10
80.244500
20
161.549300
11
87.744370
21
174.539300
0
LINE
8
Body001
10
87.744370
20
174.539300
11
87.744100
21
174.539000
0
LINE
8
Body001
10
80.244230
20
161.549000
11
80.244200
21
161.549000
0
LINE
8
Body001
10
170.865700
20
178.509800
11
175.195790
21
176.009760
0
LINE
8
Body001
10
170.865700
20
178.509800
11
175.195790
21
176.009760
0
LINE
8
Body001
10
175.195790
20
176.009760
11
175.196000
21
176.010000
0
LINE
8
Body001
10
170.865910
20
178.510040
11
170.866000
21
178.510000
0
LINE
8
Body001
10
84.574400
20
159.049100
11
80.244500
21
161.549140
0
LINE
8
Body001
10
84.574400
20
159.049100
11
80.244500
21
161.549140
0
LINE
8
Body001
10
80.244500
20
161.549140
11
80.244200
21
161.549000
0
LINE
8
Body001
10
84.574100
20
159.048960
11
84.574100
21
159.049000
0
LINE
8
Body001
10
175.195800
20
176.009800
11
167.695820
21
163.019800
0
LINE
8
Body001
10
175.195800
20
176.009800
11
167.695820
21
163.019800
0
LINE
8
Body001
10
167.695820
20
163.019800
11
167.696000
21
163.020000
0
LINE
8
Body001
10
175.195980
20
176.010000
11
175.196000
21
176.010000
0
LINE
8
Body001
10
69.574000
20
133.068200
11
84.574000
21
159.049200
0
LINE
8
Body001
10
69.574000
20
133.068200
11
84.574000
21
159.049200
0
LINE
8
Body001
10
84.574000
20
159.049200
11
84.574100
21
159.049000
0
LINE
8
Body001
10
69.574100
20
133.068000
11
69.574100
21
133.068000
0
LINE
8
Body001
10
167.695800
20
163.019900
11
163.365690
21
165.519940
0
LINE
8
Body001
10
167.695800
20
163.019900
11
163.365690
21
165.519940
0
LINE
8
Body001
10
163.365690
20
165.519940
11
163.366000
21
165.520000
0
LINE
8
Body001
10
167.696110
20
163.019960
11
167.696000
21
163.020000
0
LINE
8
Body001
10
40.074200
20
81.972800
11
69.574100
21
133.068000
0
LINE
8
Body001
10
40.074200
20
81.972500
11
69.574100
21
133.068000
0
LINE
8
Body001
10
69.574100
20
133.068000
11
69.574100
21
133.068000
0
LINE
8
Body001
10
40.074200
20
81.972500
11
40.074200
21
81.972800
0
LINE
8
Body001
10
163.366200
20
165.520200
11
157.178820
21
154.803300
0
LINE
8
Body001
10
163.366200
20
165.520200
11
157.178820
21
154.803300
0
LINE
8
Body001
10
157.178820
20
154.803300
11
157.178000
21
154.803000
0
LINE
8
Body001
10
163.365380
20
165.519900
11
163.366000
21
165.520000
0
LINE
8
Body001
10
40.074000
20
81.972600
11
35.744100
21
84.472380
0
LINE
8
Body001
10
40.074000
20
81.972600
11
35.744100
21
84.472380
0
LINE
8
Body001
10
35.744100
20
84.472380
11
35.744300
21
84.472600
0
LINE
8
Body001
10
40.074200
20
81.972820
11
40.074200
21
81.972800
0
LINE
8
Body001
10
152.848200
20
157.303300
11
157.178630
21
154.803260
0
LINE
8
Body001
10
152.848200
20
157.303300
11
157.178630
21
154.803260
0
LINE
8
Body001
10
157.178630
20
154.803260
11
157.178000
21
154.803000
0
LINE
8
Body001
10
152.847570
20
157.303040
11
152.848000
21
157.303000
0
LINE
8
Body001
10
35.744000
20
84.472300
11
28.243870
21
71.482100
0
LINE
8
Body001
10
35.744000
20
84.472300
11
28.243870
21
71.482100
0
LINE
8
Body001
10
28.243870
20
71.482100
11
28.244100
21
71.482300
0
LINE
8
Body001
10
35.744230
20
84.472500
11
35.744300
21
84.472600
0
LINE
8
Body001
10
152.848300
20
157.303300
11
153.535951
21
158.494190
0
LINE
8
Body001
10
152.848300
20
157.303300
11
153.535951
21
158.494190
0
LINE
8
Body001
10
153.535951
20
158.494190
11
153.536000
21
158.494000
0
LINE
8
Body001
10
152.848349
20
157.303110
11
152.848000
21
157.303000
0
LINE
8
Body001
10
28.244000
20
71.482100
11
32.574170
21
68.982060
0
LINE
8
Body001
10
28.244000
20
71.482100
11
32.574170
21
68.982060
0
LINE
8
Body001
10
32.574170
20
68.982060
11
32.574300
21
68.982300
0
LINE
8
Body001
10
28.244130
20
71.482340
11
28.244100
21
71.482300
0
LINE
8
Body001
10
153.535100
20
158.494100
11
150.070910
21
160.494080
0
LINE
8
Body001
10
153.535100
20
158.494100
11
150.070910
21
160.494080
0
LINE
8
Body001
10
150.070910
20
160.494080
11
150.071000
21
160.494000
0
LINE
8
Body001
10
153.535190
20
158.494020
11
153.536000
21
158.494000
0
LINE
8
Body001
10
26.387000
20
58.265000
11
32.575070
21
68.981900
0
LINE
8
Body001
10
26.387000
20
58.265000
11
32.575070
21
68.981900
0
LINE
8
Body001
10
32.575070
20
68.981900
11
32.574300
21
68.982300
0
LINE
8
Body001
10
26.386230
20
58.265400
11
26.386200
21
58.265400
0
LINE
8
Body001
10
149.384200
20
159.303400
11
150.071587
21
160.494290
0
LINE
8
Body001
10
149.384200
20
159.303400
11
150.071587
21
160.494290
0
LINE
8
Body001
10
150.071587
20
160.494290
11
150.071000
21
160.494000
0
LINE
8
Body001
10
149.383613
20
159.303110
11
149.384000
21
159.303000
0
LINE
8
Body001
10
29.851000
20
56.265000
11
26.386020
21
58.264980
0
LINE
8
Body001
10
29.851000
20
56.265000
11
26.386020
21
58.264980
0
LINE
8
Body001
10
26.386020
20
58.264980
11
26.386200
21
58.265400
0
LINE
8
Body001
10
29.851180
20
56.265420
11
29.851200
21
56.265400
0
LINE
8
Body001
10
146.786200
20
160.803400
11
149.384410
21
159.303480
0
LINE
8
Body001
10
146.786200
20
160.803400
11
149.384410
21
159.303480
0
LINE
8
Body001
10
149.384410
20
159.303480
11
149.384000
21
159.303000
0
LINE
8
Body001
10
146.785790
20
160.802920
11
146.786000
21
160.803000
0
LINE
8
Body001
10
30.538000
20
57.456000
11
29.851143
21
56.265380
0
LINE
8
Body001
10
30.538000
20
57.456000
11
29.851143
21
56.265380
0
LINE
8
Body001
10
29.851143
20
56.265380
11
29.851200
21
56.265400
0
LINE
8
Body001
10
30.538057
20
57.456020
11
30.538100
21
57.456000
0
LINE
8
Body001
10
144.161100
20
156.256100
11
146.786030
21
160.803220
0
LINE
8
Body001
10
144.161100
20
156.256100
11
146.786030
21
160.803220
0
LINE
8
Body001
10
146.786030
20
160.803220
11
146.786000
21
160.803000
0
LINE
8
Body001
10
144.161070
20
156.255880
11
144.161000
21
156.256000
0
LINE
8
Body001
10
34.002000
20
55.456000
11
30.537810
21
57.455980
0
LINE
8
Body001
10
34.002000
20
55.456000
11
30.537810
21
57.455980
0
LINE
8
Body001
10
30.537810
20
57.455980
11
30.538100
21
57.456000
0
LINE
8
Body001
10
34.002290
20
55.456020
11
34.002300
21
55.456000
0
LINE
8
Body001
10
146.759300
20
154.756100
11
144.161090
21
156.256020
0
LINE
8
Body001
10
146.759300
20
154.756100
11
144.161090
21
156.256020
0
LINE
8
Body001
10
144.161090
20
156.256020
11
144.161000
21
156.256000
0
LINE
8
Body001
10
146.759210
20
154.756080
11
146.759000
21
154.756000
0
LINE
8
Body001
10
33.315000
20
54.265000
11
34.002122
21
55.455620
0
LINE
8
Body001
10
33.315000
20
54.265000
11
34.002122
21
55.455620
0
LINE
8
Body001
10
34.002122
20
55.455620
11
34.002300
21
55.456000
0
LINE
8
Body001
10
33.315178
20
54.265380
11
33.315100
21
54.265400
0
LINE
8
Body001
10
146.071100
20
153.565300
11
146.758751
21
154.756190
0
LINE
8
Body001
10
146.071100
20
153.565300
11
146.758751
21
154.756190
0
LINE
8
Body001
10
146.758751
20
154.756190
11
146.759000
21
154.756000
0
LINE
8
Body001
10
146.071349
20
153.565110
11
146.071000
21
153.565000
0
LINE
8
Body001
10
36.779000
20
52.265000
11
33.315080
21
54.264980
0
LINE
8
Body001
10
36.779000
20
52.265000
11
33.315080
21
54.264980
0
LINE
8
Body001
10
33.315080
20
54.264980
11
33.315100
21
54.265400
0
LINE
8
Body001
10
36.779020
20
52.265420
11
36.779100
21
52.265400
0
LINE
8
Body001
10
146.071100
20
153.565400
11
149.535290
21
151.565420
0
LINE
8
Body001
10
146.071100
20
153.565400
11
149.535290
21
151.565420
0
LINE
8
Body001
10
149.535290
20
151.565420
11
149.536000
21
151.565000
0
LINE
8
Body001
10
146.071810
20
153.564980
11
146.071000
21
153.565000
0
LINE
8
Body001
10
34.154000
20
47.718000
11
36.778930
21
52.264860
0
LINE
8
Body001
10
34.154000
20
47.718000
11
36.778930
21
52.264860
0
LINE
8
Body001
10
36.778930
20
52.264860
11
36.779100
21
52.265400
0
LINE
8
Body001
10
34.154170
20
47.718540
11
34.154100
21
47.718500
0
LINE
8
Body001
10
149.535100
20
151.565500
11
150.222487
21
152.756390
0
LINE
8
Body001
10
149.535100
20
151.565500
11
150.222487
21
152.756390
0
LINE
8
Body001
10
150.222487
20
152.756390
11
150.223000
21
152.756000
0
LINE
8
Body001
10
149.535613
20
151.565110
11
149.536000
21
151.565000
0
LINE
8
Body001
10
30.691000
20
49.718000
11
34.154920
21
47.718020
0
LINE
8
Body001
10
30.691000
20
49.718000
11
34.154920
21
47.718020
0
LINE
8
Body001
10
34.154920
20
47.718020
11
34.154100
21
47.718500
0
LINE
8
Body001
10
30.690180
20
49.718480
11
30.690200
21
49.718500
0
LINE
8
Body001
10
150.223200
20
152.756500
11
154.553370
21
150.256460
0
LINE
8
Body001
10
150.223200
20
152.756500
11
154.553370
21
150.256460
0
LINE
8
Body001
10
154.553370
20
150.256460
11
154.553000
21
150.256000
0
LINE
8
Body001
10
150.222830
20
152.756040
11
150.223000
21
152.756000
0
LINE
8
Body001
10
30.002000
20
48.528000
11
30.689916
21
49.718620
0
LINE
8
Body001
10
30.002000
20
48.528000
11
30.689916
21
49.718620
0
LINE
8
Body001
10
30.689916
20
49.718620
11
30.690200
21
49.718500
0
LINE
8
Body001
10
30.002284
20
48.527880
11
30.002300
21
48.527900
0
LINE
8
Body001
10
154.553300
20
150.255900
11
148.366030
21
139.539000
0
LINE
8
Body001
10
154.553300
20
150.255900
11
148.366030
21
139.539000
0
LINE
8
Body001
10
148.366030
20
139.539000
11
148.366000
21
139.539000
0
LINE
8
Body001
10
154.553270
20
150.255900
11
154.553000
21
150.256000
0
LINE
8
Body001
10
26.538000
20
50.527800
11
30.002190
21
48.527820
0
LINE
8
Body001
10
26.538000
20
50.527800
11
30.002190
21
48.527820
0
LINE
8
Body001
10
30.002190
20
48.527820
11
30.002300
21
48.527900
0
LINE
8
Body001
10
26.538110
20
50.527880
11
26.538100
21
50.527900
0
LINE
8
Body001
10
148.366100
20
139.539200
11
152.696000
21
137.039160
0
LINE
8
Body001
10
148.366100
20
139.539200
11
152.696000
21
137.039160
0
LINE
8
Body001
10
152.696000
20
137.039160
11
152.696000
21
137.039000
0
LINE
8
Body001
10
148.366100
20
139.539040
11
148.366000
21
139.539000
0
LINE
8
Body001
10
27.226000
20
51.718300
11
26.537820
21
50.527680
0
LINE
8
Body001
10
27.226000
20
51.718300
11
26.537820
21
50.527680
0
LINE
8
Body001
10
26.537820
20
50.527680
11
26.538100
21
50.527900
0
LINE
8
Body001
10
27.226280
20
51.718520
11
27.226300
21
51.718500
0
LINE
8
Body001
10
152.695300
20
137.039100
11
145.195430
21
124.049100
0
LINE
8
Body001
10
152.695300
20
137.039100
11
145.195430
21
124.049100
0
LINE
8
Body001
10
145.195430
20
124.049100
11
145.196000
21
124.049000
0
LINE
8
Body001
10
152.695870
20
137.039000
11
152.696000
21
137.039000
0
LINE
8
Body001
10
23.762000
20
53.718400
11
27.226980
21
51.718420
0
LINE
8
Body001
10
23.762000
20
53.718400
11
27.226980
21
51.718420
0
LINE
8
Body001
10
27.226980
20
51.718420
11
27.226300
21
51.718500
0
LINE
8
Body001
10
23.761320
20
53.718480
11
23.761300
21
53.718500
0
LINE
8
Body001
10
145.196300
20
124.049200
11
140.866130
21
126.549240
0
LINE
8
Body001
10
145.196300
20
124.049200
11
140.866130
21
126.549240
0
LINE
8
Body001
10
140.866130
20
126.549240
11
140.866000
21
126.549000
0
LINE
8
Body001
10
145.196170
20
124.048960
11
145.196000
21
124.049000
0
LINE
8
Body001
10
17.574000
20
43.001400
11
23.761010
21
53.718300
0
LINE
8
Body001
10
17.574000
20
43.001400
11
23.761010
21
53.718300
0
LINE
8
Body001
10
23.761010
20
53.718300
11
23.761300
21
53.718500
0
LINE
8
Body001
10
17.574290
20
43.001600
11
17.574300
21
43.001600
0
LINE
8
Body001
10
140.865300
20
126.549200
11
127.115500
21
102.733300
0
LINE
8
Body001
10
140.865300
20
126.549200
11
127.115500
21
102.733300
0
LINE
8
Body001
10
127.115500
20
102.733300
11
127.116000
21
102.733000
0
LINE
8
Body001
10
140.865800
20
126.548900
11
140.866000
21
126.549000
0
LINE
8
Body001
10
17.575000
20
43.001400
11
13.244830
21
45.501440
0
LINE
8
Body001
10
17.575000
20
43.001400
11
13.244830
21
45.501440
0
LINE
8
Body001
10
13.244830
20
45.501440
11
13.244100
21
45.501600
0
LINE
8
Body001
10
17.574270
20
43.001560
11
17.574300
21
43.001600
0
LINE
8
Body001
10
127.116000
20
102.733000
11
125.669719
21
99.101303
0
LINE
8
Body001
10
125.669719
20
99.101303
11
124.445434
21
95.413963
0
LINE
8
Body001
10
124.445434
20
95.413963
11
123.442625
21
91.680615
0
LINE
8
Body001
10
123.442625
20
91.680615
11
122.660772
21
87.910891
0
LINE
8
Body001
10
122.660772
20
87.910891
11
122.099353
21
84.114426
0
LINE
8
Body001
10
122.099353
20
84.114426
11
121.757850
21
80.300853
0
LINE
8
Body001
10
121.757850
20
80.300853
11
121.635740
21
76.479806
0
LINE
8
Body001
10
121.635740
20
76.479806
11
121.732505
21
72.660919
0
LINE
8
Body001
10
121.732505
20
72.660919
11
122.047624
21
68.853825
0
LINE
8
Body001
10
122.047624
20
68.853825
11
122.580577
21
65.068158
0
LINE
8
Body001
10
122.580577
20
65.068158
11
123.330842
21
61.313552
0
LINE
8
Body001
10
123.330842
20
61.313552
11
124.297901
21
57.599641
0
LINE
8
Body001
10
124.297901
20
57.599641
11
125.481232
21
53.936058
0
LINE
8
Body001
10
125.481232
20
53.936058
11
126.880315
21
50.332437
0
LINE
8
Body001
10
126.880315
20
50.332437
11
128.494630
21
46.798412
0
LINE
8
Body001
10
128.494630
20
46.798412
11
130.323657
21
43.343616
0
LINE
8
Body001
10
130.323657
20
43.343616
11
132.351597
21
40.001700
0
LINE
8
Body001
10
132.351597
20
40.001700
11
134.557666
21
36.803480
0
LINE
8
Body001
10
134.557666
20
36.803480
11
136.933859
21
33.754345
0
LINE
8
Body001
10
136.933859
20
33.754345
11
139.472172
21
30.859681
0
LINE
8
Body001
10
139.472172
20
30.859681
11
142.164602
21
28.124876
0
LINE
8
Body001
10
142.164602
20
28.124876
11
145.003145
21
25.555316
0
LINE
8
Body001
10
145.003145
20
25.555316
11
147.979797
21
23.156389
0
LINE
8
Body001
10
147.979797
20
23.156389
11
151.086556
21
20.933482
0
LINE
8
Body001
10
151.086556
20
20.933482
11
154.315417
21
18.891982
0
LINE
8
Body001
10
154.315417
20
18.891982
11
157.658376
21
17.037277
0
LINE
8
Body001
10
157.658376
20
17.037277
11
161.107430
21
15.374753
0
LINE
8
Body001
10
161.107430
20
15.374753
11
164.654576
21
13.909797
0
LINE
8
Body001
10
164.654576
20
13.909797
11
168.291810
21
12.647796
0
LINE
8
Body001
10
168.291810
20
12.647796
11
172.011127
21
11.594139
0
LINE
8
Body001
10
172.011127
20
11.594139
11
175.804525
21
10.754211
0
LINE
8
Body001
10
175.804525
20
10.754211
11
179.664000
21
10.133400
0
LINE
8
Body001
10
127.116000
20
102.733000
11
125.669690
21
99.101294
0
LINE
8
Body001
10
125.669690
20
99.101294
11
124.445378
21
95.413944
0
LINE
8
Body001
10
124.445378
20
95.413944
11
123.442544
21
91.680583
0
LINE
8
Body001
10
123.442544
20
91.680583
11
122.660667
21
87.910846
0
LINE
8
Body001
10
122.660667
20
87.910846
11
122.099227
21
84.114366
0
LINE
8
Body001
10
122.099227
20
84.114366
11
121.757704
21
80.300777
0
LINE
8
Body001
10
121.757704
20
80.300777
11
121.635578
21
76.479713
0
LINE
8
Body001
10
121.635578
20
76.479713
11
121.732327
21
72.660808
0
LINE
8
Body001
10
121.732327
20
72.660808
11
122.047433
21
68.853695
0
LINE
8
Body001
10
122.047433
20
68.853695
11
122.580374
21
65.068009
0
LINE
8
Body001
10
122.580374
20
65.068009
11
123.330630
21
61.313383
0
LINE
8
Body001
10
123.330630
20
61.313383
11
124.297682
21
57.599452
0
LINE
8
Body001
10
124.297682
20
57.599452
11
125.481008
21
53.935848
0
LINE
8
Body001
10
125.481008
20
53.935848
11
126.880089
21
50.332207
0
LINE
8
Body001
10
126.880089
20
50.332207
11
128.494403
21
46.798161
0
LINE
8
Body001
10
128.494403
20
46.798161
11
130.323432
21
43.343345
0
LINE
8
Body001
10
130.323432
20
43.343345
11
132.351377
21
40.001409
0
LINE
8
Body001
10
132.351377
20
40.001409
11
134.557451
21
36.803171
0
LINE
8
Body001
10
134.557451
20
36.803171
11
136.933651
21
33.754019
0
LINE
8
Body001
10
136.933651
20
33.754019
11
139.471974
21
30.859339
0
LINE
8
Body001
10
139.471974
20
30.859339
11
142.164415
21
28.124519
0
LINE
8
Body001
10
142.164415
20
28.124519
11
145.002970
21
25.554947
0
LINE
8
Body001
10
145.002970
20
25.554947
11
147.979636
21
23.156009
0
LINE
8
Body001
10
147.979636
20
23.156009
11
151.086409
21
20.933092
0
LINE
8
Body001
10
151.086409
20
20.933092
11
154.315286
21
18.891584
0
LINE
8
Body001
10
154.315286
20
18.891584
11
157.658262
21
17.036873
0
LINE
8
Body001
10
157.658262
20
17.036873
11
161.107334
21
15.374344
0
LINE
8
Body001
10
161.107334
20
15.374344
11
164.654498
21
13.909386
0
LINE
8
Body001
10
164.654498
20
13.909386
11
168.291750
21
12.647385
0
LINE
8
Body001
10
168.291750
20
12.647385
11
172.011087
21
11.593729
0
LINE
8
Body001
10
172.011087
20
11.593729
11
175.804505
21
10.753805
0
LINE
8
Body001
10
175.804505
20
10.753805
11
179.664000
21
10.133000
0
LINE
8
Body001
10
179.663969
20
10.133000
11
179.664000
21
10.133400
0
LINE
8
Body001
10
127.116000
20
102.733000
11
127.116000
21
102.733000
0
LINE
8
Body001
10
13.244000
20
45.501300
11
5.744130
21
32.510000
0
LINE
8
Body001
10
13.244000
20
45.501300
11
5.744130
21
32.510000
0
LINE
8
Body001
10
5.744130
20
32.510000
11
5.744270
21
32.510300
0
LINE
8
Body001
10
13.244140
20
45.501600
11
13.244100
21
45.501600
0
LINE
8
Body001
10
179.664100
20
15.132500
11
179.664000
21
10.134500
0
LINE
8
Body001
10
179.664000
20
15.132470
11
179.664000
21
10.134500
0
LINE
8
Body001
10
179.664000
20
10.134500
11
179.664000
21
10.134500
0
LINE
8
Body001
10
179.664000
20
15.132470
11
179.664000
21
15.132500
0
LINE
8
Body001
10
5.745000
20
32.510300
11
10.074900
21
30.009990
0
LINE
8
Body001
10
5.745000
20
32.510300
11
10.074900
21
30.009990
0
LINE
8
Body001
10
10.074900
20
30.009990
11
10.074200
21
30.010000
0
LINE
8
Body001
10
5.744300
20
32.510310
11
5.744270
21
32.510300
0
LINE
8
Body001
10
188.324000
20
10.134500
11
179.664000
21
15.132500
0
LINE
8
Body001
10
188.324000
20
10.134500
11
179.664000
21
15.132500
0
LINE
8
Body001
10
179.664000
20
15.132500
11
179.664000
21
15.132500
0
LINE
8
Body001
10
188.324000
20
10.134500
11
188.324000
21
10.134500
0
LINE
8
Body001
10
1.484000
20
15.132470
11
10.073950
21
30.009970
0
LINE
8
Body001
10
10.073950
20
30.009970
11
10.074200
21
30.010000
0
LINE
8
Body001
10
1.484250
20
15.132500
11
1.484220
21
15.132500
0
LINE
8
Body001
10
1.484220
20
15.132500
11
10.074170
21
30.010000
0
LINE
8
Body001
10
188.324000
20
3.133660
11
188.324000
21
10.134500
0
LINE
8
Body001
10
188.324000
20
10.134500
11
188.324000
21
10.134500
0
LINE
8
Body001
10
188.324000
20
3.133630
11
188.324000
21
3.133660
0
LINE
8
Body001
10
188.324000
20
3.133660
11
188.324000
21
10.134500
0
LINE
8
Body001
10
1.485000
20
15.133320
11
0.898859
21
13.942217
0
LINE
8
Body001
10
0.898859
20
13.942217
11
0.480187
21
12.700631
0
LINE
8
Body001
10
0.480187
20
12.700631
11
0.228982
21
11.425390
0
LINE
8
Body001
10
0.228982
20
11.425390
11
0.145247
21
10.133322
0
LINE
8
Body001
10
0.145247
20
10.133322
11
0.228979
21
8.841254
0
LINE
8
Body001
10
0.228979
20
8.841254
11
0.480180
21
7.566012
0
LINE
8
Body001
10
0.480180
20
7.566012
11
0.898850
21
6.324426
0
LINE
8
Body001
10
0.898850
20
6.324426
11
1.484988
21
5.133321
0
LINE
8
Body001
10
1.484988
20
5.133321
11
2.223444
21
4.030157
0
LINE
8
Body001
10
2.223444
20
4.030157
11
3.089354
21
3.046784
0
LINE
8
Body001
10
3.089354
20
3.046784
11
4.068143
21
2.191616
0
LINE
8
Body001
10
4.068143
20
2.191616
11
5.145240
21
1.473066
0
LINE
8
Body001
10
5.145240
20
1.473066
11
6.306071
21
0.899547
0
LINE
8
Body001
10
6.306071
20
0.899547
11
7.536063
21
0.479474
0
LINE
8
Body001
10
7.536063
20
0.479474
11
8.820644
21
0.221261
0
LINE
8
Body001
10
8.820644
20
0.221261
11
10.145240
21
0.133320
0
LINE
8
Body001
10
1.484220
20
15.132500
11
1.484220
21
15.132500
0
LINE
8
Body001
10
10.145340
20
0.133300
11
10.145300
21
0.133291
0
LINE
8
Body001
10
1.484940
20
15.133391
11
0.898799
21
13.942288
0
LINE
8
Body001
10
0.898799
20
13.942288
11
0.480127
21
12.700702
0
LINE
8
Body001
10
0.480127
20
12.700702
11
0.228922
21
11.425461
0
LINE
8
Body001
10
0.228922
20
11.425461
11
0.145187
21
10.133393
0
LINE
8
Body001
10
0.145187
20
10.133393
11
0.228919
21
8.841325
0
LINE
8
Body001
10
0.228919
20
8.841325
11
0.480120
21
7.566083
0
LINE
8
Body001
10
0.480120
20
7.566083
11
0.898790
21
6.324497
0
LINE
8
Body001
10
0.898790
20
6.324497
11
1.484928
21
5.133392
0
LINE
8
Body001
10
1.484928
20
5.133392
11
2.223384
21
4.030228
0
LINE
8
Body001
10
2.223384
20
4.030228
11
3.089294
21
3.046855
0
LINE
8
Body001
10
3.089294
20
3.046855
11
4.068083
21
2.191687
0
LINE
8
Body001
10
4.068083
20
2.191687
11
5.145180
21
1.473137
0
LINE
8
Body001
10
5.145180
20
1.473137
11
6.306011
21
0.899618
0
LINE
8
Body001
10
6.306011
20
0.899618
11
7.536003
21
0.479545
0
LINE
8
Body001
10
7.536003
20
0.479545
11
8.820584
21
0.221332
0
LINE
8
Body001
10
8.820584
20
0.221332
11
10.145180
21
0.133391
0
LINE
8
Body001
10
185.324180
20
0.133391
11
186.491853
21
0.369196
0
LINE
8
Body001
10
186.491853
20
0.369196
11
187.445377
21
1.012127
0
LINE
8
Body001
10
187.445377
20
1.012127
11
188.088257
21
1.965685
0
LINE
8
Body001
10
188.088257
20
1.965685
11
188.324000
21
3.133370
0
LINE
8
Body001
10
188.324000
20
3.133370
11
188.324000
21
3.133370
0
LINE
8
Body001
10
185.324000
20
0.133000
11
185.324000
21
0.133000
0
LINE
8
Body001
10
185.324004
20
0.133079
11
186.472121
21
0.361470
0
LINE
8
Body001
10
186.472121
20
0.361470
11
187.445425
21
1.011863
0
LINE
8
Body001
10
187.445425
20
1.011863
11
188.095722
21
1.985231
0
LINE
8
Body001
10
188.095722
20
1.985231
11
188.324000
21
3.133370
0
LINE
8
Body001
10
185.324000
20
0.133291
11
10.145300
21
0.133291
0
LINE
8
Body001
10
10.145300
20
0.133291
11
10.145300
21
0.133291
0
LINE
8
Body001
10
185.324300
20
0.133291
11
185.324000
21
0.133291
0
LINE
8
Body001
10
185.324000
20
0.133291
11
10.145300
21
0.133291
0
LINE
8
Body001
10
63.528100
20
84.597191
11
56.028230
21
71.606691
0
LINE
8
Body001
10
67.859030
20
82.097191
11
63.528070
21
84.597231
0
LINE
8
Body001
10
60.359160
20
69.106731
11
67.859030
21
82.097231
0
LINE
8
Body001
10
56.028230
20
71.606731
11
60.359190
21
69.106691
0
LINE
8
Body001
10
86.027990
20
123.568191
11
78.528120
21
110.578191
0
LINE
8
Body001
10
90.358720
20
121.068091
11
86.028030
21
123.568131
0
LINE
8
Body001
10
82.859120
20
108.078131
11
90.358730
21
121.068131
0
LINE
8
Body001
10
78.528130
20
110.578231
11
82.859090
21
108.078191
0
LINE
8
Body001
10
108.528690
20
162.539191
11
101.028560
21
149.549191
0
LINE
8
Body001
10
112.858560
20
160.039091
11
108.528660
21
162.539131
0
LINE
8
Body001
10
105.358690
20
147.049131
11
112.858560
21
160.039131
0
LINE
8
Body001
10
101.028560
20
149.549231
11
105.358730
21
147.049191
0
LINE
8
Body001
10
123.528730
20
188.520191
11
131.028600
21
201.510191
0
LINE
8
Body001
10
127.858630
20
186.020191
11
123.528730
21
188.520231
0
LINE
8
Body001
10
135.358730
20
199.010131
11
127.858600
21
186.020131
0
LINE
8
Body001
10
131.028570
20
201.510131
11
135.358740
21
199.010091
0
LINE
8
Body001
10
168.529000
20
266.462000
11
176.029000
21
279.452000
0
LINE
8
Body001
10
172.859110
20
263.961900
11
168.529020
21
266.461940
0
LINE
8
Body001
10
180.359120
20
276.951940
11
172.859120
21
263.961840
0
LINE
8
Body001
10
176.029010
20
279.451940
11
180.359120
21
276.951950
0
LINE
8
Body001
10
146.029020
20
227.490950
11
153.528890
21
240.480950
0
LINE
8
Body001
10
150.359190
20
224.990950
11
146.029020
21
227.490990
0
LINE
8
Body001
10
157.859020
20
237.980890
11
150.359150
21
224.990890
0
LINE
8
Body001
10
153.528850
20
240.480890
11
157.859020
21
237.980850
0
LINE
8
Body001
10
107.074420
20
198.020050
11
100.887150
21
187.302850
0
LINE
8
Body001
10
100.887150
20
187.302850
11
104.351070
21
185.302870
0
LINE
8
Body001
10
107.074420
20
198.020070
11
102.744520
21
200.520110
0
LINE
8
Body001
10
104.351070
20
185.302910
11
105.038721
21
186.494060
0
LINE
8
Body001
10
102.744521
20
200.520160
11
110.244391
21
213.510160
0
LINE
8
Body001
10
105.038721
20
186.494160
11
108.502641
21
184.494180
0
LINE
8
Body001
10
110.244391
20
213.510180
11
114.574561
21
211.010140
0
LINE
8
Body001
10
107.815261
20
183.303040
11
108.502648
21
184.494190
0
LINE
8
Body001
10
114.574568
20
211.010190
11
129.574568
21
236.991190
0
LINE
8
Body001
10
111.279468
20
181.303090
11
107.815278
21
183.303070
0
LINE
8
Body001
10
129.574578
20
236.991170
11
170.324478
21
307.571970
0
LINE
8
Body001
10
108.654278
20
176.755970
11
111.279468
21
181.302830
0
LINE
8
Body001
10
183.984000
20
311.232000
11
182.137081
21
312.063719
0
LINE
8
Body001
10
182.137081
20
312.063719
11
180.220127
21
312.497644
0
LINE
8
Body001
10
180.220127
20
312.497644
11
178.288070
21
312.548492
0
LINE
8
Body001
10
178.288070
20
312.548492
11
176.395840
21
312.230984
0
LINE
8
Body001
10
176.395840
20
312.230984
11
174.598368
21
311.559837
0
LINE
8
Body001
10
174.598368
20
311.559837
11
172.950583
21
310.549770
0
LINE
8
Body001
10
172.950583
20
310.549770
11
171.507417
21
309.215501
0
LINE
8
Body001
10
171.507417
20
309.215501
11
170.323800
21
307.571750
0
LINE
8
Body001
10
105.190000
20
178.756000
11
108.653920
21
176.756020
0
LINE
8
Body001
10
183.984320
20
311.232020
11
196.974720
21
303.732020
0
LINE
8
Body001
10
104.502320
20
177.565020
11
105.189971
21
178.756170
0
LINE
8
Body001
10
196.975000
20
303.732000
11
194.475000
21
299.402000
0
LINE
8
Body001
10
104.502000
20
177.565000
11
101.038080
21
179.565250
0
LINE
8
Body001
10
194.475000
20
299.402000
11
207.465000
21
291.902000
0
LINE
8
Body001
10
101.038000
20
179.565000
11
101.725387
21
180.755890
0
LINE
8
Body001
10
207.465000
20
291.902000
11
209.965000
21
296.232000
0
LINE
8
Body001
10
98.261500
20
182.756000
11
101.725690
21
180.756020
0
LINE
8
Body001
10
209.965000
20
296.232000
11
222.955000
21
288.732000
0
LINE
8
Body001
10
92.074000
20
172.039000
11
98.261540
21
182.755900
0
LINE
8
Body001
10
226.616000
20
275.072000
11
227.447618
21
276.918965
0
LINE
8
Body001
10
227.447618
20
276.918965
11
227.881437
21
278.835942
0
LINE
8
Body001
10
227.881437
20
278.835942
11
227.932180
21
280.768002
0
LINE
8
Body001
10
227.932180
20
280.768002
11
227.614568
21
282.660215
0
LINE
8
Body001
10
227.614568
20
282.660215
11
226.943322
21
284.457651
0
LINE
8
Body001
10
226.943322
20
284.457651
11
225.933164
21
286.105380
0
LINE
8
Body001
10
225.933164
20
286.105380
11
224.598816
21
287.548473
0
LINE
8
Body001
10
224.598816
20
287.548473
11
222.955000
21
288.732000
0
LINE
8
Body001
10
87.744100
20
174.539000
11
92.074000
21
172.038960
0
LINE
8
Body001
10
226.616000
20
275.072000
11
170.866000
21
178.510000
0
LINE
8
Body001
10
80.244500
20
161.549200
11
87.744370
21
174.539200
0
LINE
8
Body001
10
170.865970
20
178.510060
11
175.196060
21
176.010020
0
LINE
8
Body001
10
84.574360
20
159.049220
11
80.244460
21
161.549260
0
LINE
8
Body001
10
175.196060
20
176.010060
11
167.696080
21
163.020060
0
LINE
8
Body001
10
69.574380
20
133.068160
11
84.574380
21
159.049160
0
LINE
8
Body001
10
167.696080
20
163.020020
11
163.365970
21
165.520060
0
LINE
8
Body001
10
40.074200
20
81.972800
11
69.574100
21
133.068000
0
LINE
8
Body001
10
163.366000
20
165.520000
11
157.178000
21
154.803000
0
LINE
8
Body001
10
40.074000
20
81.972600
11
35.744100
21
84.472380
0
LINE
8
Body001
10
152.848100
20
157.303080
11
157.178530
21
154.803040
0
LINE
8
Body001
10
35.744530
20
84.472340
11
28.244400
21
71.482140
0
LINE
8
Body001
10
152.848400
20
157.303040
11
153.536051
21
158.493930
0
LINE
8
Body001
10
28.245051
20
71.482130
11
32.575221
21
68.982090
0
LINE
8
Body001
10
153.536221
20
158.493990
11
150.072031
21
160.493970
0
LINE
8
Body001
10
26.387031
20
58.264970
11
32.575101
21
68.981870
0
LINE
8
Body001
10
149.385101
20
159.302870
11
150.072488
21
160.493760
0
LINE
8
Body001
10
29.852488
20
56.264760
11
26.387508
21
58.264740
0
LINE
8
Body001
10
146.787508
20
160.802740
11
149.385718
21
159.302820
0
LINE
8
Body001
10
30.539718
20
57.455820
11
29.852861
21
56.265200
0
LINE
8
Body001
10
144.162861
20
156.255900
11
146.787791
21
160.803020
0
LINE
8
Body001
10
34.003791
20
55.456020
11
30.539601
21
57.456000
0
LINE
8
Body001
10
146.760601
20
154.756100
11
144.162391
21
156.256020
0
LINE
8
Body001
10
33.316391
20
54.265020
11
34.003513
21
55.455640
0
LINE
8
Body001
10
146.072513
20
153.564840
11
146.760164
21
154.755730
0
LINE
8
Body001
10
36.780164
20
52.264730
11
33.316244
21
54.264710
0
LINE
8
Body001
10
146.072244
20
153.564610
11
149.536434
21
151.564630
0
LINE
8
Body001
10
34.155434
20
47.717630
11
36.780364
21
52.264490
0
LINE
8
Body001
10
149.537364
20
151.564390
11
150.224751
21
152.755280
0
LINE
8
Body001
10
30.691751
20
49.717280
11
34.155671
21
47.717300
0
LINE
8
Body001
10
150.224671
20
152.755300
11
154.554841
21
150.255260
0
LINE
8
Body001
10
30.003841
20
48.527260
11
30.691757
21
49.717880
0
LINE
8
Body001
10
154.554757
20
150.255880
11
148.367487
21
139.538980
0
LINE
8
Body001
10
26.539487
20
50.527680
11
30.003677
21
48.527700
0
LINE
8
Body001
10
148.367677
20
139.539000
11
152.697577
21
137.038960
0
LINE
8
Body001
10
27.228577
20
51.718360
11
26.540397
21
50.527740
0
LINE
8
Body001
10
152.698397
20
137.038940
11
145.198527
21
124.048940
0
LINE
8
Body001
10
23.763527
20
53.718240
11
27.228507
21
51.718260
0
LINE
8
Body001
10
145.198507
20
124.048860
11
140.868337
21
126.548900
0
LINE
8
Body001
10
17.577337
20
43.001300
11
23.764347
21
53.718200
0
LINE
8
Body001
10
140.868347
20
126.548900
11
127.118547
21
102.733000
0
LINE
8
Body001
10
17.576547
20
43.001300
11
13.246377
21
45.501340
0
LINE
8
Body001
10
127.116000
20
102.733000
11
125.669719
21
99.101303
0
LINE
8
Body001
10
125.669719
20
99.101303
11
124.445434
21
95.413963
0
LINE
8
Body001
10
124.445434
20
95.413963
11
123.442625
21
91.680615
0
LINE
8
Body001
10
123.442625
20
91.680615
11
122.660772
21
87.910891
0
LINE
8
Body001
10
122.660772
20
87.910891
11
122.099353
21
84.114426
0
LINE
8
Body001
10
122.099353
20
84.114426
11
121.757850
21
80.300853
0
LINE
8
Body001
10
121.757850
20
80.300853
11
121.635740
21
76.479806
0
LINE
8
Body001
10
121.635740
20
76.479806
11
121.732505
21
72.660919
0
LINE
8
Body001
10
121.732505
20
72.660919
11
122.047624
21
68.853825
0
LINE
8
Body001
10
122.047624
20
68.853825
11
122.580577
21
65.068158
0
LINE
8
Body001
10
122.580577
20
65.068158
11
123.330842
21
61.313552
0
LINE
8
Body001
10
123.330842
20
61.313552
11
124.297901
21
57.599641
0
LINE
8
Body001
10
124.297901
20
57.599641
11
125.481232
21
53.936058
0
LINE
8
Body001
10
125.481232
20
53.936058
11
126.880315
21
50.332437
0
LINE
8
Body001
10
126.880315
20
50.332437
11
128.494630
21
46.798412
0
LINE
8
Body001
10
128.494630
20
46.798412
11
130.323657
21
43.343616
0
LINE
8
Body001
10
130.323657
20
43.343616
11
132.351597
21
40.001700
0
LINE
8
Body001
10
132.351597
20
40.001700
11
134.557666
21
36.803480
0
LINE
8
Body001
10
134.557666
20
36.803480
11
136.933859
21
33.754345
0
LINE
8
Body001
10
136.933859
20
33.754345
11
139.472172
21
30.859681
0
LINE
8
Body001
10
139.472172
20
30.859681
11
142.164602
21
28.124876
0
LINE
8
Body001
10
142.164602
20
28.124876
11
145.003145
21
25.555316
0
LINE
8
Body001
10
145.003145
20
25.555316
11
147.979797
21
23.156389
0
LINE
8
Body001
10
147.979797
20
23.156389
11
151.086556
21
20.933482
0
LINE
8
Body001
10
151.086556
20
20.933482
11
154.315417
21
18.891982
0
LINE
8
Body001
10
154.315417
20
18.891982
11
157.658376
21
17.037277
0
LINE
8
Body001
10
157.658376
20
17.037277
11
161.107430
21
15.374753
0
LINE
8
Body001
10
161.107430
20
15.374753
11
164.654576
21
13.909797
0
LINE
8
Body001
10
164.654576
20
13.909797
11
168.291810
21
12.647796
0
LINE
8
Body001
10
168.291810
20
12.647796
11
172.011127
21
11.594139
0
LINE
8
Body001
10
172.011127
20
11.594139
11
175.804525
21
10.754211
0
LINE
8
Body001
10
175.804525
20
10.754211
11
179.664000
21
10.133400
0
LINE
8
Body001
10
13.244100
20
45.501600
11
5.744230
21
32.510300
0
LINE
8
Body001
10
179.663230
20
15.132500
11
179.664000
21
10.134500
0
LINE
8
Body001
10
5.745000
20
32.510300
11
10.074900
21
30.009990
0
LINE
8
Body001
10
188.324000
20
10.134500
11
179.664000
21
15.132500
0
LINE
8
Body001
10
1.484000
20
15.132500
11
10.073950
21
30.010000
0
LINE
8
Body001
10
188.324000
20
3.133660
11
188.324000
21
10.134500
0
LINE
8
Body001
10
1.485000
20
15.133320
11
0.898859
21
13.942217
0
LINE
8
Body001
10
0.898859
20
13.942217
11
0.480187
21
12.700631
0
LINE
8
Body001
10
0.480187
20
12.700631
11
0.228982
21
11.425390
0
LINE
8
Body001
10
0.228982
20
11.425390
11
0.145247
21
10.133322
0
LINE
8
Body001
10
0.145247
20
10.133322
11
0.228979
21
8.841254
0
LINE
8
Body001
10
0.228979
20
8.841254
11
0.480180
21
7.566012
0
LINE
8
Body001
10
0.480180
20
7.566012
11
0.898850
21
6.324426
0
LINE
8
Body001
10
0.898850
20
6.324426
11
1.484988
21
5.133321
0
LINE
8
Body001
10
1.484988
20
5.133321
11
2.223444
21
4.030157
0
LINE
8
Body001
10
2.223444
20
4.030157
11
3.089354
21
3.046784
0
LINE
8
Body001
10
3.089354
20
3.046784
11
4.068143
21
2.191616
0
LINE
8
Body001
10
4.068143
20
2.191616
11
5.145240
21
1.473066
0
LINE
8
Body001
10
5.145240
20
1.473066
11
6.306071
21
0.899547
0
LINE
8
Body001
10
6.306071
20
0.899547
11
7.536063
21
0.479474
0
LINE
8
Body001
10
7.536063
20
0.479474
11
8.820644
21
0.221261
0
LINE
8
Body001
10
8.820644
20
0.221261
11
10.145240
21
0.133320
0
LINE
8
Body001
10
185.324240
20
0.133320
11
186.491910
21
0.369149
0
LINE
8
Body001
10
186.491910
20
0.369149
11
187.445423
21
1.012102
0
LINE
8
Body001
10
187.445423
20
1.012102
11
188.088284
21
1.965677
0
LINE
8
Body001
10
188.088284
20
1.965677
11
188.324000
21
3.133370
0
LINE
8
Body001
10
185.324000
20
0.133291
11
10.145300
21
0.133291
 0 
ENDSEC
 0 
EOF