999
"DXF R12 Output" (www.mydxf.blogspot.com)
 0 
SECTION
 2 
HEADER
 9 
$ACADVER
 1 
AC1009
 9 
$EXTMIN
 10 
 0 
 20 
 0 
 9 
$EXTMAX
 10 
 8.5 
 20 
 11 
 0 
ENDSEC
 0 
SECTION
 2 
ENTITIES
0
LINE
8
Layer 1
10
0.793749
20
343.459000
11
-0.793749
21
341.871000
0
LINE
8
Layer 1
10
0.000000
20
343.988000
11
0.000000
21
341.342000
0
LINE
8
Layer 1
10
2.116660
20
341.607000
11
1.058330
21
340.548670
0
LINE
8
Layer 1
10
1.587500
20
342.136000
11
0.529170
21
341.077670
0
LINE
8
Layer 1
10
1.058330
20
342.665000
11
0.000000
21
341.606670
0
LINE
8
Shape533
10
0.132516
20
10.132200
11
0.326438
21
8.172189
0
LINE
8
Shape533
10
0.326438
20
8.172189
11
0.893720
21
6.305370
0
LINE
8
Shape533
10
0.893720
20
6.305370
11
1.812632
21
4.584200
0
LINE
8
Shape533
10
1.812632
20
4.584200
11
3.061445
21
3.061139
0
LINE
8
Shape533
10
3.061445
20
3.061139
11
4.584506
21
1.812326
0
LINE
8
Shape533
10
4.584506
20
1.812326
11
6.305676
21
0.893414
0
LINE
8
Shape533
10
6.305676
20
0.893414
11
8.172495
21
0.326132
0
LINE
8
Shape533
10
8.172495
20
0.326132
11
10.132506
21
0.132210
0
LINE
8
Shape533
10
64.132506
20
9.031410
11
34.132500
21
9.031390
0
LINE
8
Shape533
10
102.132400
20
9.031390
11
102.132000
21
11.031600
0
LINE
8
Shape533
10
132.132000
20
11.031600
11
132.132000
21
9.031390
0
LINE
8
Shape533
10
190.131900
20
16.032260
11
220.132000
21
16.032300
0
LINE
8
Shape533
10
220.132008
20
332.532300
11
219.938086
21
334.492311
0
LINE
8
Shape533
10
219.938086
20
334.492311
11
219.370804
21
336.359130
0
LINE
8
Shape533
10
219.370804
20
336.359130
11
218.451892
21
338.080300
0
LINE
8
Shape533
10
218.451892
20
338.080300
11
217.203079
21
339.603361
0
LINE
8
Shape533
10
217.203079
20
339.603361
11
215.680017
21
340.852174
0
LINE
8
Shape533
10
215.680017
20
340.852174
11
213.958848
21
341.771086
0
LINE
8
Shape533
10
213.958848
20
341.771086
11
212.092029
21
342.338368
0
LINE
8
Shape533
10
212.092029
20
342.338368
11
210.132018
21
342.532290
0
LINE
8
Shape533
10
0.132524
20
16.032300
11
84.132400
21
16.032300
0
LINE
8
Shape533
10
210.132400
20
0.132200
11
212.092411
21
0.326122
0
LINE
8
Shape533
10
212.092411
20
0.326122
11
213.959230
21
0.893404
0
LINE
8
Shape533
10
213.959230
20
0.893404
11
215.680400
21
1.812316
0
LINE
8
Shape533
10
215.680400
20
1.812316
11
217.203461
21
3.061129
0
LINE
8
Shape533
10
217.203461
20
3.061129
11
218.452274
21
4.584190
0
LINE
8
Shape533
10
218.452274
20
4.584190
11
219.371186
21
6.305360
0
LINE
8
Shape533
10
219.371186
20
6.305360
11
219.938468
21
8.172179
0
LINE
8
Shape533
10
219.938468
20
8.172179
11
220.132390
21
10.132190
0
LINE
8
Shape533
10
102.132390
20
11.031640
11
132.132000
21
11.031600
0
LINE
8
Shape533
10
84.132100
20
16.032220
11
84.132400
21
14.032000
0
LINE
8
Shape533
10
68.132500
20
9.031380
11
68.132500
21
11.031600
0
LINE
8
Shape533
10
10.132500
20
342.532000
11
8.172489
21
342.338078
0
LINE
8
Shape533
10
8.172489
20
342.338078
11
6.305670
21
341.770796
0
LINE
8
Shape533
10
6.305670
20
341.770796
11
4.584500
21
340.851884
0
LINE
8
Shape533
10
4.584500
20
340.851884
11
3.061439
21
339.603071
0
LINE
8
Shape533
10
3.061439
20
339.603071
11
1.812626
21
338.080010
0
LINE
8
Shape533
10
1.812626
20
338.080010
11
0.893714
21
336.358840
0
LINE
8
Shape533
10
0.893714
20
336.358840
11
0.326432
21
334.492021
0
LINE
8
Shape533
10
0.326432
20
334.492021
11
0.132510
21
332.532010
0
LINE
8
Shape533
10
30.132500
20
11.031600
11
30.132500
21
9.031390
0
LINE
8
Shape533
10
136.132500
20
9.031390
11
220.132000
21
9.031390
0
LINE
8
Shape533
10
220.132000
20
9.031390
11
220.132000
21
11.031600
0
LINE
8
Shape533
10
0.132000
20
11.031600
11
30.132500
21
11.031600
0
LINE
8
Shape533
10
190.132500
20
14.031970
11
190.132000
21
16.032300
0
LINE
8
Shape533
10
34.132000
20
11.031680
11
64.132500
21
11.031600
0
LINE
8
Shape533
10
0.132500
20
9.031350
11
0.132524
21
11.031600
0
LINE
8
Shape533
10
220.132524
20
11.031600
11
136.132000
21
11.031600
0
LINE
8
Shape533
10
220.131900
20
14.031970
11
190.132000
21
14.032000
0
LINE
8
Shape533
10
98.132200
20
9.031380
11
68.132500
21
9.031390
0
LINE
8
Shape533
10
220.132500
20
16.032260
11
220.132000
21
14.032000
0
LINE
8
Shape533
10
34.132000
20
9.031380
11
34.132500
21
11.031600
0
LINE
8
Shape533
10
84.132400
20
14.031970
11
0.132524
21
14.032000
0
LINE
8
Shape533
10
30.132524
20
9.031380
11
0.132524
21
9.031390
0
LINE
8
Shape533
10
136.132524
20
11.031640
11
136.132000
21
9.031390
0
LINE
8
Shape533
10
186.131900
20
14.032010
11
156.132000
21
14.032000
0
LINE
8
Shape533
10
0.132000
20
14.032000
11
0.132524
21
16.032300
0
LINE
8
Shape533
10
156.132524
20
14.032050
11
156.132000
21
16.032300
0
LINE
8
Shape533
10
132.132100
20
9.031430
11
102.132000
21
9.031390
0
LINE
8
Shape533
10
98.132010
20
11.031640
11
98.132400
21
9.031390
0
LINE
8
Shape533
10
68.132500
20
11.031640
11
98.132400
21
11.031600
0
LINE
8
Shape533
10
64.132500
20
11.031600
11
64.132500
21
9.031390
0
LINE
8
Shape533
10
68.132470
20
31.031490
11
98.132400
21
31.031500
0
LINE
8
Shape533
10
156.132200
20
24.033280
11
156.132000
21
26.030800
0
LINE
8
Shape533
10
122.132100
20
24.033200
11
122.132000
21
26.030800
0
LINE
8
Shape533
10
186.131900
20
16.032210
11
186.132000
21
14.032000
0
LINE
8
Shape533
10
156.132000
20
16.032250
11
186.132000
21
16.032300
0
LINE
8
Shape533
10
122.132100
20
16.032300
11
152.132000
21
16.032300
0
LINE
8
Shape533
10
0.132000
20
19.032670
11
0.132524
21
21.032900
0
LINE
8
Shape533
10
220.132524
20
21.032900
11
136.132000
21
21.032900
0
LINE
8
Shape533
10
102.132100
20
19.032650
11
102.132000
21
21.032900
0
LINE
8
Shape533
10
84.132000
20
26.030870
11
84.132400
21
24.033200
0
LINE
8
Shape533
10
186.132400
20
26.030800
11
186.132000
21
24.033200
0
LINE
8
Shape533
10
136.132100
20
31.031420
11
136.132000
21
29.031200
0
LINE
8
Shape533
10
34.132000
20
29.031200
11
34.132500
21
31.031500
0
LINE
8
Shape533
10
152.132500
20
14.032000
11
122.132000
21
14.032000
0
LINE
8
Shape533
10
152.131900
20
16.032250
11
152.132000
21
14.032000
0
LINE
8
Shape533
10
88.132100
20
14.032000
11
88.132400
21
16.032300
0
LINE
8
Shape533
10
118.132400
20
14.032050
11
88.132400
21
14.032000
0
LINE
8
Shape533
10
122.132300
20
26.030800
11
152.132000
21
26.030800
0
LINE
8
Shape533
10
220.131900
20
24.033200
11
190.132000
21
24.033200
0
LINE
8
Shape533
10
190.132000
20
26.030800
11
220.132000
21
26.030800
0
LINE
8
Shape533
10
118.132000
20
24.033200
11
88.132400
21
24.033200
0
LINE
8
Shape533
10
64.132500
20
29.031170
11
34.132500
21
29.031200
0
LINE
8
Shape533
10
152.132500
20
24.033230
11
122.132000
21
24.033200
0
LINE
8
Shape533
10
98.132000
20
31.031420
11
98.132400
21
29.031200
0
LINE
8
Shape533
10
152.132300
20
26.030830
11
152.132000
21
24.033200
0
LINE
8
Shape533
10
0.132000
20
26.030800
11
84.132400
21
26.030800
0
LINE
8
Shape533
10
156.132200
20
26.030800
11
186.132000
21
26.030800
0
LINE
8
Shape533
10
98.132100
20
29.031170
11
68.132500
21
29.031200
0
LINE
8
Shape533
10
68.132500
20
29.031200
11
68.132500
21
31.031500
0
LINE
8
Shape533
10
118.132400
20
16.032300
11
118.132000
21
14.032000
0
LINE
8
Shape533
10
102.132000
20
31.031500
11
132.132000
21
31.031500
0
LINE
8
Shape533
10
132.132000
20
31.031500
11
132.132000
21
29.031200
0
LINE
8
Shape533
10
88.132100
20
16.032200
11
118.132000
21
16.032300
0
LINE
8
Shape533
10
220.132000
20
19.032670
11
220.132000
21
21.032900
0
LINE
8
Shape533
10
102.132000
20
21.032900
11
132.132000
21
21.032900
0
LINE
8
Shape533
10
84.132100
20
24.033270
11
0.132524
21
24.033200
0
LINE
8
Shape533
10
136.132524
20
29.031170
11
220.132000
21
29.031200
0
LINE
8
Shape533
10
136.132100
20
21.032860
11
136.132000
21
19.032600
0
LINE
8
Shape533
10
68.132100
20
19.032600
11
68.132500
21
21.032900
0
LINE
8
Shape533
10
64.132530
20
21.032900
11
64.132500
21
19.032600
0
LINE
8
Shape533
10
0.132500
20
24.033220
11
0.132524
21
26.030800
0
LINE
8
Shape533
10
132.132524
20
29.031170
11
102.132000
21
29.031200
0
LINE
8
Shape533
10
88.132000
20
26.030830
11
118.132000
21
26.030800
0
LINE
8
Shape533
10
190.131900
20
24.033200
11
190.132000
21
26.030800
0
LINE
8
Shape533
10
132.132100
20
21.032830
11
132.132000
21
19.032600
0
LINE
8
Shape533
10
88.132100
20
24.033220
11
88.132400
21
26.030800
0
LINE
8
Shape533
10
68.132500
20
21.032830
11
98.132400
21
21.032900
0
LINE
8
Shape533
10
64.132500
20
19.032650
11
34.132500
21
19.032600
0
LINE
8
Shape533
10
220.132500
20
31.031400
11
136.132000
21
31.031500
0
LINE
8
Shape533
10
220.131900
20
29.031250
11
220.132000
21
31.031500
0
LINE
8
Shape533
10
102.132000
20
29.031250
11
102.132000
21
31.031500
0
LINE
8
Shape533
10
98.132010
20
21.032910
11
98.132400
21
19.032600
0
LINE
8
Shape533
10
30.132500
20
21.032850
11
30.132500
21
19.032600
0
LINE
8
Shape533
10
0.132500
20
21.032850
11
30.132500
21
21.032900
0
LINE
8
Shape533
10
34.132470
20
19.032650
11
34.132500
21
21.032900
0
LINE
8
Shape533
10
34.132500
20
21.032900
11
64.132500
21
21.032900
0
LINE
8
Shape533
10
98.132400
20
19.032650
11
68.132500
21
19.032600
0
LINE
8
Shape533
10
122.132400
20
14.031980
11
122.132000
21
16.032300
0
LINE
8
Shape533
10
136.132000
20
19.032670
11
220.132000
21
19.032600
0
LINE
8
Shape533
10
132.132100
20
19.032600
11
102.132000
21
19.032600
0
LINE
8
Shape533
10
186.131900
20
24.033220
11
156.132000
21
24.033200
0
LINE
8
Shape533
10
30.132000
20
19.032580
11
0.132524
21
19.032600
0
LINE
8
Shape533
10
118.132524
20
26.030820
11
118.132000
21
24.033200
0
LINE
8
Shape533
10
220.132000
20
26.030800
11
220.132000
21
24.033200
0
LINE
8
Shape533
10
64.132000
20
41.032700
11
64.132500
21
39.032500
0
LINE
8
Shape533
10
84.132400
20
36.032130
11
84.132400
21
34.031800
0
LINE
8
Shape533
10
220.132400
20
41.032670
11
136.132000
21
41.032700
0
LINE
8
Shape533
10
0.132000
20
36.032080
11
84.132400
21
36.032100
0
LINE
8
Shape533
10
152.132300
20
34.031850
11
122.132000
21
34.031800
0
LINE
8
Shape533
10
186.131900
20
34.031800
11
156.132000
21
34.031800
0
LINE
8
Shape533
10
152.132030
20
36.032050
11
152.132000
21
34.031800
0
LINE
8
Shape533
10
30.132000
20
41.032670
11
30.132500
21
39.032500
0
LINE
8
Shape533
10
122.132300
20
36.032130
11
152.132000
21
36.032100
0
LINE
8
Shape533
10
102.132100
20
39.032470
11
102.132000
21
41.032700
0
LINE
8
Shape533
10
132.132000
20
41.032700
11
132.132000
21
39.032500
0
LINE
8
Shape533
10
84.132100
20
44.033120
11
0.132524
21
44.033100
0
LINE
8
Shape533
10
68.132424
20
41.032730
11
98.132400
21
41.032700
0
LINE
8
Shape533
10
0.132500
20
31.031500
11
30.132500
21
31.031500
0
LINE
8
Shape533
10
84.132400
20
34.031870
11
0.132524
21
34.031800
0
LINE
8
Shape533
10
190.132524
20
34.031800
11
190.132000
21
36.032100
0
LINE
8
Shape533
10
220.132000
20
34.031850
11
190.132000
21
34.031800
0
LINE
8
Shape533
10
118.132100
20
34.031800
11
88.132400
21
34.031800
0
LINE
8
Shape533
10
98.132390
20
41.032670
11
98.132400
21
39.032500
0
LINE
8
Shape533
10
186.132300
20
46.033370
11
186.132000
21
44.033100
0
LINE
8
Shape533
10
34.132000
20
39.032480
11
34.132500
21
41.032700
0
LINE
8
Shape533
10
0.132500
20
39.032450
11
0.132524
21
41.032700
0
LINE
8
Shape533
10
0.132524
20
41.032700
11
30.132500
21
41.032700
0
LINE
8
Shape533
10
186.132500
20
44.033070
11
156.132000
21
44.033100
0
LINE
8
Shape533
10
190.132000
20
46.033350
11
220.132000
21
46.033300
0
LINE
8
Shape533
10
122.132100
20
34.031800
11
122.132000
21
36.032100
0
LINE
8
Shape533
10
122.132000
20
44.033090
11
122.132000
21
46.033300
0
LINE
8
Shape533
10
220.131900
20
39.032430
11
220.132000
21
41.032700
0
LINE
8
Shape533
10
156.132000
20
34.031830
11
156.132000
21
36.032100
0
LINE
8
Shape533
10
186.132000
20
36.032100
11
186.132000
21
34.031800
0
LINE
8
Shape533
10
118.132100
20
36.032050
11
118.132000
21
34.031800
0
LINE
8
Shape533
10
102.132000
20
41.032670
11
132.132000
21
41.032700
0
LINE
8
Shape533
10
156.131900
20
46.033320
11
186.132000
21
46.033300
0
LINE
8
Shape533
10
190.131970
20
44.033050
11
190.132000
21
46.033300
0
LINE
8
Shape533
10
34.132000
20
41.032680
11
64.132500
21
41.032700
0
LINE
8
Shape533
10
88.132400
20
34.031830
11
88.132400
21
36.032100
0
LINE
8
Shape533
10
88.132400
20
36.032100
11
118.132000
21
36.032100
0
LINE
8
Shape533
10
68.132100
20
39.032470
11
68.132500
21
41.032700
0
LINE
8
Shape533
10
0.132600
20
44.033070
11
0.132524
21
46.033300
0
LINE
8
Shape533
10
98.132424
20
39.032430
11
68.132500
21
39.032500
0
LINE
8
Shape533
10
64.132530
20
39.032500
11
34.132500
21
39.032500
0
LINE
8
Shape533
10
84.132400
20
46.033370
11
84.132400
21
44.033100
0
LINE
8
Shape533
10
122.132300
20
46.033350
11
152.132000
21
46.033300
0
LINE
8
Shape533
10
88.132100
20
44.033050
11
88.132400
21
46.033300
0
LINE
8
Shape533
10
0.132500
20
46.033300
11
84.132400
21
46.033300
0
LINE
8
Shape533
10
136.132300
20
41.032680
11
136.132000
21
39.032500
0
LINE
8
Shape533
10
220.131900
20
44.033120
11
190.132000
21
44.033100
0
LINE
8
Shape533
10
136.132100
20
39.032480
11
220.132000
21
39.032500
0
LINE
8
Shape533
10
156.132000
20
44.033120
11
156.132000
21
46.033300
0
LINE
8
Shape533
10
64.132300
20
31.031400
11
64.132500
21
29.031200
0
LINE
8
Shape533
10
34.132500
20
31.031450
11
64.132500
21
31.031500
0
LINE
8
Shape533
10
0.132500
20
29.031250
11
0.132524
21
31.031500
0
LINE
8
Shape533
10
30.132524
20
29.031250
11
0.132524
21
29.031200
0
LINE
8
Shape533
10
220.132524
20
46.033300
11
220.132000
21
44.033100
0
LINE
8
Shape533
10
152.132100
20
44.033100
11
122.132000
21
44.033100
0
LINE
8
Shape533
10
118.132010
20
44.033100
11
88.132400
21
44.033100
0
LINE
8
Shape533
10
30.132500
20
31.031500
11
30.132500
21
29.031200
0
LINE
8
Shape533
10
0.132500
20
34.031820
11
0.132524
21
36.032100
0
LINE
8
Shape533
10
190.132524
20
36.032100
11
220.132000
21
36.032100
0
LINE
8
Shape533
10
30.132000
20
39.032470
11
0.132524
21
39.032500
0
LINE
8
Shape533
10
220.132524
20
36.032130
11
220.132000
21
34.031800
0
LINE
8
Shape533
10
156.132000
20
36.032050
11
186.132000
21
36.032100
0
LINE
8
Shape533
10
132.132100
20
39.032470
11
102.132000
21
39.032500
0
LINE
8
Shape533
10
152.131900
20
46.033370
11
152.132000
21
44.033100
0
LINE
8
Shape533
10
34.132000
20
61.032600
11
64.132500
21
61.032500
0
LINE
8
Shape533
10
0.132500
20
54.031630
11
0.132524
21
56.031900
0
LINE
8
Shape533
10
0.132524
20
49.031030
11
0.132524
21
51.031300
0
LINE
8
Shape533
10
88.132424
20
54.031670
11
88.132400
21
56.031900
0
LINE
8
Shape533
10
30.132500
20
51.031280
11
30.132500
21
49.031000
0
LINE
8
Shape533
10
190.132500
20
56.031870
11
220.132000
21
56.031900
0
LINE
8
Shape533
10
186.132000
20
54.031650
11
156.132000
21
54.031700
0
LINE
8
Shape533
10
98.132200
20
61.032570
11
98.132400
21
59.032300
0
LINE
8
Shape533
10
84.132400
20
54.031680
11
0.132524
21
54.031700
0
LINE
8
Shape533
10
132.132524
20
61.032570
11
132.132000
21
59.032300
0
LINE
8
Shape533
10
64.132200
20
59.032300
11
34.132500
21
59.032300
0
LINE
8
Shape533
10
30.132530
20
61.032550
11
30.132500
21
59.032300
0
LINE
8
Shape533
10
102.132400
20
49.031100
11
102.132000
21
51.031300
0
LINE
8
Shape533
10
136.131900
20
49.031050
11
220.132000
21
49.031000
0
LINE
8
Shape533
10
220.132000
20
51.031250
11
136.132000
21
51.031300
0
LINE
8
Shape533
10
98.132100
20
51.031300
11
98.132400
21
49.031000
0
LINE
8
Shape533
10
0.132500
20
51.031250
11
30.132500
21
51.031300
0
LINE
8
Shape533
10
186.132500
20
56.031920
11
186.132000
21
54.031700
0
LINE
8
Shape533
10
30.132000
20
59.032320
11
0.132524
21
59.032300
0
LINE
8
Shape533
10
132.132524
20
59.032300
11
102.132000
21
59.032300
0
LINE
8
Shape533
10
132.132000
20
49.031100
11
102.132000
21
49.031000
0
LINE
8
Shape533
10
132.132000
20
51.031250
11
132.132000
21
49.031000
0
LINE
8
Shape533
10
156.131900
20
56.031870
11
186.132000
21
56.031900
0
LINE
8
Shape533
10
102.132100
20
51.031280
11
132.132000
21
51.031300
0
LINE
8
Shape533
10
68.132100
20
49.031050
11
68.132500
21
51.031300
0
LINE
8
Shape533
10
64.132530
20
49.031050
11
34.132500
21
49.031000
0
LINE
8
Shape533
10
84.132400
20
56.031870
11
84.132400
21
54.031700
0
LINE
8
Shape533
10
136.132300
20
59.032320
11
220.132000
21
59.032300
0
LINE
8
Shape533
10
0.132000
20
61.032550
11
30.132500
21
61.032500
0
LINE
8
Shape533
10
190.132500
20
54.031630
11
190.132000
21
56.031900
0
LINE
8
Shape533
10
0.132000
20
56.031900
11
84.132400
21
56.031900
0
LINE
8
Shape533
10
220.132400
20
56.031900
11
220.132000
21
54.031700
0
LINE
8
Shape533
10
136.132100
20
61.032570
11
136.132000
21
59.032300
0
LINE
8
Shape533
10
102.132100
20
61.032550
11
132.132000
21
61.032500
0
LINE
8
Shape533
10
118.132000
20
56.031880
11
118.132000
21
54.031700
0
LINE
8
Shape533
10
88.132000
20
56.031950
11
118.132000
21
56.031900
0
LINE
8
Shape533
10
122.131990
20
54.031650
11
122.132000
21
56.031900
0
LINE
8
Shape533
10
68.132100
20
59.032270
11
68.132500
21
61.032500
0
LINE
8
Shape533
10
84.132400
20
64.032870
11
0.132524
21
64.032900
0
LINE
8
Shape533
10
98.132424
20
59.032280
11
68.132500
21
59.032300
0
LINE
8
Shape533
10
122.132400
20
56.031930
11
152.132000
21
56.031900
0
LINE
8
Shape533
10
30.132000
20
49.031030
11
0.132524
21
49.031000
0
LINE
8
Shape533
10
102.132524
20
59.032200
11
102.132000
21
61.032500
0
LINE
8
Shape533
10
136.131900
20
51.031300
11
136.132000
21
49.031000
0
LINE
8
Shape533
10
0.132000
20
59.032200
11
0.132524
21
61.032500
0
LINE
8
Shape533
10
220.132524
20
59.032250
11
220.132000
21
61.032500
0
LINE
8
Shape533
10
118.132000
20
46.033300
11
118.132000
21
44.033100
0
LINE
8
Shape533
10
98.132000
20
49.031070
11
68.132500
21
49.031000
0
LINE
8
Shape533
10
68.132500
20
51.031250
11
98.132400
21
51.031300
0
LINE
8
Shape533
10
220.132400
20
54.031670
11
190.132000
21
54.031700
0
LINE
8
Shape533
10
34.132000
20
59.032320
11
34.132500
21
61.032500
0
LINE
8
Shape533
10
34.132500
20
49.031000
11
34.132500
21
51.031300
0
LINE
8
Shape533
10
34.132500
20
51.031300
11
64.132500
21
51.031300
0
LINE
8
Shape533
10
64.132500
20
51.031300
11
64.132500
21
49.031000
0
LINE
8
Shape533
10
220.132500
20
61.032500
11
136.132000
21
61.032500
0
LINE
8
Shape533
10
68.132100
20
61.032500
11
98.132400
21
61.032500
0
LINE
8
Shape533
10
0.132500
20
64.032870
11
0.132524
21
66.033200
0
LINE
8
Shape533
10
64.132524
20
61.032580
11
64.132500
21
59.032300
0
LINE
8
Shape533
10
156.132200
20
54.031680
11
156.132000
21
56.031900
0
LINE
8
Shape533
10
152.132030
20
54.031650
11
122.132000
21
54.031700
0
LINE
8
Shape533
10
152.131900
20
56.031950
11
152.132000
21
54.031700
0
LINE
8
Shape533
10
118.132100
20
54.031700
11
88.132400
21
54.031700
0
LINE
8
Shape533
10
88.132400
20
46.033360
11
118.132000
21
46.033300
0
LINE
8
Shape533
10
220.132000
20
49.031030
11
220.132000
21
51.031300
0
LINE
8
Shape533
10
122.132100
20
76.031700
11
152.132000
21
76.031700
0
LINE
8
Shape533
10
220.131900
20
71.031080
11
136.132000
21
71.031100
0
LINE
8
Shape533
10
190.131900
20
74.031470
11
190.132000
21
76.031700
0
LINE
8
Shape533
10
102.132200
20
69.030830
11
102.132000
21
71.031100
0
LINE
8
Shape533
10
64.132100
20
71.031100
11
64.132500
21
69.030900
0
LINE
8
Shape533
10
98.132400
20
71.031150
11
98.132400
21
69.030900
0
LINE
8
Shape533
10
34.132500
20
71.031150
11
64.132500
21
71.031100
0
LINE
8
Shape533
10
88.132400
20
76.031720
11
118.132000
21
76.031700
0
LINE
8
Shape533
10
0.132000
20
69.030830
11
0.132524
21
71.031100
0
LINE
8
Shape533
10
102.132524
20
79.032090
11
102.132000
21
81.032400
0
LINE
8
Shape533
10
220.132000
20
74.031530
11
190.132000
21
74.031500
0
LINE
8
Shape533
10
190.132000
20
76.031750
11
220.132000
21
76.031700
0
LINE
8
Shape533
10
122.132100
20
74.031450
11
122.132000
21
76.031700
0
LINE
8
Shape533
10
190.131900
20
66.033110
11
220.132000
21
66.033200
0
LINE
8
Shape533
10
156.132000
20
64.032950
11
156.132000
21
66.033200
0
LINE
8
Shape533
10
186.132000
20
64.032950
11
156.132000
21
64.032900
0
LINE
8
Shape533
10
186.132000
20
66.033150
11
186.132000
21
64.032900
0
LINE
8
Shape533
10
152.132000
20
66.033150
11
152.132000
21
64.032900
0
LINE
8
Shape533
10
132.132100
20
69.030870
11
102.132000
21
69.030900
0
LINE
8
Shape533
10
30.132100
20
71.031150
11
30.132500
21
69.030900
0
LINE
8
Shape533
10
156.132500
20
76.031770
11
186.132000
21
76.031700
0
LINE
8
Shape533
10
118.132100
20
74.031450
11
88.132400
21
74.031500
0
LINE
8
Shape533
10
152.132300
20
74.031500
11
122.132000
21
74.031500
0
LINE
8
Shape533
10
156.131900
20
66.033160
11
186.132000
21
66.033200
0
LINE
8
Shape533
10
220.132000
20
69.030930
11
220.132000
21
71.031100
0
LINE
8
Shape533
10
136.132100
20
71.031100
11
136.132000
21
69.030900
0
LINE
8
Shape533
10
64.132200
20
69.030900
11
34.132500
21
69.030900
0
LINE
8
Shape533
10
84.132400
20
74.031520
11
0.132524
21
74.031500
0
LINE
8
Shape533
10
98.132424
20
69.030880
11
68.132500
21
69.030900
0
LINE
8
Shape533
10
68.132500
20
71.031150
11
98.132400
21
71.031100
0
LINE
8
Shape533
10
0.132500
20
71.031100
11
30.132500
21
71.031100
0
LINE
8
Shape533
10
156.132500
20
74.031470
11
156.132000
21
76.031700
0
LINE
8
Shape533
10
220.132000
20
79.032070
11
220.132000
21
81.032400
0
LINE
8
Shape533
10
88.132000
20
74.031530
11
88.132400
21
76.031700
0
LINE
8
Shape533
10
220.132400
20
81.032320
11
136.132000
21
81.032400
0
LINE
8
Shape533
10
84.132100
20
66.033200
11
84.132400
21
64.032900
0
LINE
8
Shape533
10
0.132500
20
66.033150
11
84.132400
21
66.033200
0
LINE
8
Shape533
10
186.132400
20
74.031540
11
156.132000
21
74.031500
0
LINE
8
Shape533
10
136.132100
20
81.032370
11
136.132000
21
79.032100
0
LINE
8
Shape533
10
0.132000
20
74.031480
11
0.132524
21
76.031700
0
LINE
8
Shape533
10
152.132524
20
76.031700
11
152.132000
21
74.031500
0
LINE
8
Shape533
10
220.131900
20
66.033160
11
220.132000
21
64.032900
0
LINE
8
Shape533
10
132.132100
20
71.031120
11
132.132000
21
69.030900
0
LINE
8
Shape533
10
186.131900
20
76.031770
11
186.132000
21
74.031500
0
LINE
8
Shape533
10
30.132000
20
69.030880
11
0.132524
21
69.030900
0
LINE
8
Shape533
10
0.132524
20
76.031770
11
84.132400
21
76.031700
0
LINE
8
Shape533
10
132.132300
20
79.032070
11
102.132000
21
79.032100
0
LINE
8
Shape533
10
190.131800
20
64.032900
11
190.132000
21
66.033200
0
LINE
8
Shape533
10
84.132000
20
76.031790
11
84.132400
21
74.031500
0
LINE
8
Shape533
10
220.132400
20
64.032910
11
190.132000
21
64.032900
0
LINE
8
Shape533
10
122.132100
20
64.032900
11
122.132000
21
66.033200
0
LINE
8
Shape533
10
152.131900
20
64.032950
11
122.132000
21
64.032900
0
LINE
8
Shape533
10
136.132000
20
79.032100
11
220.132000
21
79.032100
0
LINE
8
Shape533
10
122.132100
20
66.033100
11
152.132000
21
66.033200
0
LINE
8
Shape533
10
88.132100
20
64.032950
11
88.132400
21
66.033200
0
LINE
8
Shape533
10
118.132400
20
64.032950
11
88.132400
21
64.032900
0
LINE
8
Shape533
10
118.132400
20
66.033150
11
118.132000
21
64.032900
0
LINE
8
Shape533
10
136.132000
20
69.030870
11
220.132000
21
69.030900
0
LINE
8
Shape533
10
68.132000
20
69.030900
11
68.132500
21
71.031100
0
LINE
8
Shape533
10
118.132400
20
76.031720
11
118.132000
21
74.031500
0
LINE
8
Shape533
10
88.132000
20
66.033160
11
118.132000
21
66.033200
0
LINE
8
Shape533
10
102.132000
20
71.031170
11
132.132000
21
71.031100
0
LINE
8
Shape533
10
34.132200
20
69.030850
11
34.132500
21
71.031100
0
LINE
8
Shape533
10
220.132500
20
76.031720
11
220.132000
21
74.031500
0
LINE
8
Shape533
10
30.132000
20
89.033400
11
0.132524
21
89.033400
0
LINE
8
Shape533
10
0.132524
20
91.031000
11
30.132500
21
91.031000
0
LINE
8
Shape533
10
0.132500
20
96.031620
11
84.132400
21
96.031600
0
LINE
8
Shape533
10
132.132300
20
81.032400
11
132.132000
21
79.032100
0
LINE
8
Shape533
10
0.132000
20
81.032350
11
30.132500
21
81.032400
0
LINE
8
Shape533
10
102.132400
20
81.032400
11
132.132000
21
81.032400
0
LINE
8
Shape533
10
102.132000
20
91.030990
11
132.132000
21
91.031000
0
LINE
8
Shape533
10
64.132200
20
81.032410
11
64.132500
21
79.032100
0
LINE
8
Shape533
10
68.132470
20
79.032100
11
68.132500
21
81.032400
0
LINE
8
Shape533
10
118.132400
20
84.032770
11
88.132400
21
84.032700
0
LINE
8
Shape533
10
64.132500
20
89.033320
11
34.132500
21
89.033400
0
LINE
8
Shape533
10
84.132400
20
94.031370
11
0.132524
21
94.031300
0
LINE
8
Shape533
10
34.132524
20
79.032100
11
34.132500
21
81.032400
0
LINE
8
Shape533
10
64.132500
20
79.032150
11
34.132500
21
79.032100
0
LINE
8
Shape533
10
0.132500
20
84.032720
11
0.132524
21
86.033000
0
LINE
8
Shape533
10
220.132524
20
86.033000
11
220.132000
21
84.032700
0
LINE
8
Shape533
10
186.132000
20
84.032700
11
156.132000
21
84.032700
0
LINE
8
Shape533
10
220.132000
20
96.031500
11
220.132000
21
94.031300
0
LINE
8
Shape533
10
118.132000
20
86.032960
11
118.132000
21
84.032700
0
LINE
8
Shape533
10
136.132000
20
91.030920
11
136.132000
21
89.033400
0
LINE
8
Shape533
10
156.131900
20
94.031370
11
156.132000
21
96.031600
0
LINE
8
Shape533
10
0.132000
20
89.033380
11
0.132524
21
91.031000
0
LINE
8
Shape533
10
30.132524
20
91.031000
11
30.132500
21
89.033400
0
LINE
8
Shape533
10
190.132500
20
94.031370
11
190.132000
21
96.031600
0
LINE
8
Shape533
10
220.132000
20
94.031350
11
190.132000
21
94.031300
0
LINE
8
Shape533
10
136.132100
20
89.033330
11
220.132000
21
89.033400
0
LINE
8
Shape533
10
84.132000
20
96.031620
11
84.132400
21
94.031300
0
LINE
8
Shape533
10
64.132500
20
91.030930
11
64.132500
21
89.033400
0
LINE
8
Shape533
10
186.132500
20
86.033030
11
186.132000
21
84.032700
0
LINE
8
Shape533
10
88.132200
20
84.032700
11
88.132400
21
86.033000
0
LINE
8
Shape533
10
152.132300
20
84.032750
11
122.132000
21
84.032700
0
LINE
8
Shape533
10
122.132000
20
84.032700
11
122.132000
21
86.033000
0
LINE
8
Shape533
10
34.132100
20
81.032380
11
64.132500
21
81.032400
0
LINE
8
Shape533
10
190.132500
20
86.033020
11
220.132000
21
86.033000
0
LINE
8
Shape533
10
156.132000
20
84.032750
11
156.132000
21
86.033000
0
LINE
8
Shape533
10
152.132030
20
86.033000
11
152.132000
21
84.032700
0
LINE
8
Shape533
10
34.132000
20
89.033320
11
34.132500
21
91.031000
0
LINE
8
Shape533
10
88.132400
20
86.033030
11
118.132000
21
86.033000
0
LINE
8
Shape533
10
98.132000
20
79.032130
11
68.132500
21
79.032100
0
LINE
8
Shape533
10
132.132400
20
89.033300
11
102.132000
21
89.033400
0
LINE
8
Shape533
10
98.132010
20
81.032410
11
98.132400
21
79.032100
0
LINE
8
Shape533
10
68.132500
20
91.030900
11
98.132400
21
91.031000
0
LINE
8
Shape533
10
84.132400
20
86.033030
11
84.132400
21
84.032700
0
LINE
8
Shape533
10
34.132500
20
91.030920
11
64.132500
21
91.031000
0
LINE
8
Shape533
10
122.132300
20
86.033030
11
152.132000
21
86.033000
0
LINE
8
Shape533
10
190.131900
20
96.031590
11
220.132000
21
96.031600
0
LINE
8
Shape533
10
156.132000
20
86.033010
11
186.132000
21
86.033000
0
LINE
8
Shape533
10
30.132000
20
79.032130
11
0.132524
21
79.032100
0
LINE
8
Shape533
10
68.132424
20
81.032350
11
98.132400
21
81.032400
0
LINE
8
Shape533
10
190.132200
20
84.032770
11
190.132000
21
86.033000
0
LINE
8
Shape533
10
102.132200
20
89.033370
11
102.132000
21
91.031000
0
LINE
8
Shape533
10
0.132000
20
86.033030
11
84.132400
21
86.033000
0
LINE
8
Shape533
10
98.132400
20
89.033370
11
68.132500
21
89.033400
0
LINE
8
Shape533
10
98.132400
20
91.031000
11
98.132400
21
89.033400
0
LINE
8
Shape533
10
220.132400
20
91.031000
11
136.132000
21
91.031000
0
LINE
8
Shape533
10
132.132010
20
91.031000
11
132.132000
21
89.033400
0
LINE
8
Shape533
10
0.132000
20
79.032200
11
0.132524
21
81.032400
0
LINE
8
Shape533
10
220.132524
20
84.032770
11
190.132000
21
84.032700
0
LINE
8
Shape533
10
220.132000
20
89.033320
11
220.132000
21
91.031000
0
LINE
8
Shape533
10
30.132000
20
81.032410
11
30.132500
21
79.032100
0
LINE
8
Shape533
10
0.132500
20
94.031300
11
0.132524
21
96.031600
0
LINE
8
Shape533
10
84.132424
20
84.032800
11
0.132524
21
84.032700
0
LINE
8
Shape533
10
186.132524
20
94.031290
11
156.132000
21
94.031300
0
LINE
8
Shape533
10
68.132200
20
89.033330
11
68.132500
21
91.031000
0
LINE
8
Shape533
10
122.132400
20
106.032900
11
152.132000
21
106.033000
0
LINE
8
Shape533
10
190.131900
20
104.032750
11
190.132000
21
106.033000
0
LINE
8
Shape533
10
220.132000
20
104.032750
11
190.132000
21
104.033000
0
LINE
8
Shape533
10
136.132100
20
109.033620
11
220.132000
21
109.033000
0
LINE
8
Shape533
10
34.132000
20
109.033000
11
34.132500
21
111.031000
0
LINE
8
Shape533
10
118.132400
20
104.032780
11
88.132400
21
104.033000
0
LINE
8
Shape533
10
64.132500
20
109.033620
11
34.132500
21
109.033000
0
LINE
8
Shape533
10
0.132500
20
104.032380
11
0.132524
21
106.033000
0
LINE
8
Shape533
10
68.132424
20
109.033370
11
68.132500
21
111.031000
0
LINE
8
Shape533
10
220.132500
20
106.033030
11
220.132000
21
104.033000
0
LINE
8
Shape533
10
220.132000
20
101.032630
11
136.132000
21
101.032000
0
LINE
8
Shape533
10
64.132200
20
101.032000
11
64.132500
21
99.031900
0
LINE
8
Shape533
10
136.132300
20
111.030700
11
136.132000
21
109.033000
0
LINE
8
Shape533
10
118.132000
20
94.031100
11
88.132400
21
94.031300
0
LINE
8
Shape533
10
118.132400
20
96.031550
11
118.132000
21
94.031300
0
LINE
8
Shape533
10
88.132000
20
96.031550
11
118.132000
21
96.031600
0
LINE
8
Shape533
10
220.132000
20
99.031900
11
220.132000
21
101.032000
0
LINE
8
Shape533
10
34.132000
20
101.032000
11
64.132500
21
101.032000
0
LINE
8
Shape533
10
220.132500
20
111.030590
11
136.132000
21
111.031000
0
LINE
8
Shape533
10
156.131900
20
104.032780
11
156.132000
21
106.033000
0
LINE
8
Shape533
10
136.132100
20
99.032130
11
220.132000
21
99.031900
0
LINE
8
Shape533
10
102.132000
20
99.031900
11
102.132000
21
101.032000
0
LINE
8
Shape533
10
98.132010
20
101.032000
11
98.132400
21
99.031900
0
LINE
8
Shape533
10
34.132500
20
99.031900
11
34.132500
21
101.032000
0
LINE
8
Shape533
10
0.132500
20
101.032000
11
30.132500
21
101.032000
0
LINE
8
Shape533
10
0.132500
20
106.032620
11
84.132400
21
106.033000
0
LINE
8
Shape533
10
156.132200
20
106.033000
11
186.132000
21
106.033000
0
LINE
8
Shape533
10
68.132000
20
111.030970
11
98.132400
21
111.031000
0
LINE
8
Shape533
10
84.132400
20
104.032780
11
0.132524
21
104.033000
0
LINE
8
Shape533
10
98.132424
20
109.033620
11
68.132500
21
109.033000
0
LINE
8
Shape533
10
118.132400
20
106.032630
11
118.132000
21
104.033000
0
LINE
8
Shape533
10
102.132000
20
111.031220
11
132.132000
21
111.031000
0
LINE
8
Shape533
10
220.131900
20
109.033400
11
220.132000
21
111.031000
0
LINE
8
Shape533
10
186.132000
20
96.031600
11
186.132000
21
94.031300
0
LINE
8
Shape533
10
186.132000
20
104.032500
11
156.132000
21
104.033000
0
LINE
8
Shape533
10
156.132000
20
96.032010
11
186.132000
21
96.031600
0
LINE
8
Shape533
10
122.132100
20
94.031350
11
122.132000
21
96.031600
0
LINE
8
Shape533
10
152.131900
20
94.031350
11
122.132000
21
94.031300
0
LINE
8
Shape533
10
152.131900
20
96.031550
11
152.132000
21
94.031300
0
LINE
8
Shape533
10
186.132000
20
106.033000
11
186.132000
21
104.033000
0
LINE
8
Shape533
10
122.132000
20
96.031600
11
152.132000
21
96.031600
0
LINE
8
Shape533
10
88.132100
20
94.031350
11
88.132400
21
96.031600
0
LINE
8
Shape533
10
0.132500
20
99.031970
11
0.132524
21
101.032000
0
LINE
8
Shape533
10
102.132524
20
109.032990
11
102.132000
21
111.031000
0
LINE
8
Shape533
10
136.131900
20
101.032410
11
136.132000
21
99.031900
0
LINE
8
Shape533
10
190.131900
20
106.032770
11
220.132000
21
106.033000
0
LINE
8
Shape533
10
152.132100
20
104.032750
11
122.132000
21
104.033000
0
LINE
8
Shape533
10
132.131990
20
99.032380
11
102.132000
21
99.031900
0
LINE
8
Shape533
10
122.132000
20
104.032520
11
122.132000
21
106.033000
0
LINE
8
Shape533
10
132.131990
20
101.032380
11
132.132000
21
99.031900
0
LINE
8
Shape533
10
102.132000
20
101.032150
11
132.132000
21
101.032000
0
LINE
8
Shape533
10
68.132100
20
99.031750
11
68.132500
21
101.032000
0
LINE
8
Shape533
10
98.132400
20
99.031750
11
68.132500
21
99.031900
0
LINE
8
Shape533
10
68.132500
20
101.032150
11
98.132400
21
101.032000
0
LINE
8
Shape533
10
64.132500
20
99.031750
11
34.132500
21
99.031900
0
LINE
8
Shape533
10
30.132530
20
101.032150
11
30.132500
21
99.031900
0
LINE
8
Shape533
10
88.132400
20
104.032520
11
88.132400
21
106.033000
0
LINE
8
Shape533
10
88.132400
20
106.033000
11
118.132000
21
106.033000
0
LINE
8
Shape533
10
132.132000
20
111.030970
11
132.132000
21
109.033000
0
LINE
8
Shape533
10
30.132000
20
99.031800
11
0.132524
21
99.031900
0
LINE
8
Shape533
10
152.132524
20
106.032770
11
152.132000
21
104.033000
0
LINE
8
Shape533
10
132.132100
20
109.033620
11
102.132000
21
109.033000
0
LINE
8
Shape533
10
84.132000
20
106.032630
11
84.132400
21
104.033000
0
LINE
8
Shape533
10
98.132400
20
111.031220
11
98.132400
21
109.033000
0
LINE
8
Shape533
10
186.132300
20
126.032500
11
186.132000
21
124.032000
0
LINE
8
Shape533
10
0.132000
20
121.031630
11
30.132500
21
121.032000
0
LINE
8
Shape533
10
190.132000
20
126.033000
11
220.132000
21
126.033000
0
LINE
8
Shape533
10
122.132100
20
126.033000
11
152.132000
21
126.033000
0
LINE
8
Shape533
10
30.132000
20
119.032130
11
0.132524
21
119.032000
0
LINE
8
Shape533
10
118.132524
20
114.031380
11
88.132400
21
114.031000
0
LINE
8
Shape533
10
156.132200
20
124.032200
11
156.132000
21
126.033000
0
LINE
8
Shape533
10
34.132000
20
119.032130
11
34.132500
21
121.032000
0
LINE
8
Shape533
10
64.132500
20
111.030800
11
64.132500
21
109.033000
0
LINE
8
Shape533
10
136.132300
20
121.031800
11
136.132000
21
119.032000
0
LINE
8
Shape533
10
0.132000
20
116.031630
11
84.132400
21
116.031000
0
LINE
8
Shape533
10
220.132400
20
114.030750
11
190.132000
21
114.031000
0
LINE
8
Shape533
10
186.132030
20
116.031250
11
186.132000
21
114.031000
0
LINE
8
Shape533
10
156.132000
20
126.032500
11
186.132000
21
126.033000
0
LINE
8
Shape533
10
0.132000
20
109.033500
11
0.132524
21
111.031000
0
LINE
8
Shape533
10
98.132424
20
121.032200
11
98.132400
21
119.032000
0
LINE
8
Shape533
10
68.132500
20
121.032250
11
98.132400
21
121.032000
0
LINE
8
Shape533
10
186.132000
20
114.031000
11
156.132000
21
114.031000
0
LINE
8
Shape533
10
122.132100
20
116.031250
11
152.132000
21
116.031000
0
LINE
8
Shape533
10
118.132000
20
124.032000
11
88.132400
21
124.032000
0
LINE
8
Shape533
10
30.132500
20
121.031630
11
30.132500
21
119.032000
0
LINE
8
Shape533
10
190.132000
20
124.032000
11
190.132000
21
126.033000
0
LINE
8
Shape533
10
156.132000
20
116.031800
11
186.132000
21
116.031000
0
LINE
8
Shape533
10
34.132000
20
111.030380
11
64.132500
21
111.031000
0
LINE
8
Shape533
10
30.132500
20
109.033400
11
0.132524
21
109.033000
0
LINE
8
Shape533
10
30.132524
20
111.030600
11
30.132500
21
109.033000
0
LINE
8
Shape533
10
0.132500
20
111.030600
11
30.132500
21
111.031000
0
LINE
8
Shape533
10
0.132500
20
114.031370
11
0.132524
21
116.031000
0
LINE
8
Shape533
10
84.132424
20
114.030750
11
0.132524
21
114.031000
0
LINE
8
Shape533
10
220.132524
20
116.031250
11
220.132000
21
114.031000
0
LINE
8
Shape533
10
152.132100
20
116.031250
11
152.132000
21
114.031000
0
LINE
8
Shape533
10
118.132100
20
116.031250
11
118.132000
21
114.031000
0
LINE
8
Shape533
10
136.132000
20
119.031620
11
220.132000
21
119.032000
0
LINE
8
Shape533
10
220.132000
20
124.032620
11
190.132000
21
124.032000
0
LINE
8
Shape533
10
132.132000
20
119.032000
11
102.132000
21
119.032000
0
LINE
8
Shape533
10
220.132000
20
126.032870
11
220.132000
21
124.032000
0
LINE
8
Shape533
10
64.132500
20
119.032000
11
34.132500
21
119.032000
0
LINE
8
Shape533
10
190.132500
20
116.031630
11
220.132000
21
116.031000
0
LINE
8
Shape533
10
220.132000
20
119.031370
11
220.132000
21
121.032000
0
LINE
8
Shape533
10
122.132000
20
114.031000
11
122.132000
21
116.031000
0
LINE
8
Shape533
10
186.132000
20
124.032000
11
156.132000
21
124.032000
0
LINE
8
Shape533
10
156.132000
20
114.030800
11
156.132000
21
116.031000
0
LINE
8
Shape533
10
102.132100
20
119.031370
11
102.132000
21
121.032000
0
LINE
8
Shape533
10
88.132000
20
124.032370
11
88.132400
21
126.033000
0
LINE
8
Shape533
10
0.132500
20
124.032750
11
0.132524
21
126.033000
0
LINE
8
Shape533
10
132.132524
20
121.032380
11
132.132000
21
119.032000
0
LINE
8
Shape533
10
220.132000
20
121.032000
11
136.132000
21
121.032000
0
LINE
8
Shape533
10
34.132000
20
121.032000
11
64.132500
21
121.032000
0
LINE
8
Shape533
10
84.132400
20
116.031380
11
84.132400
21
114.031000
0
LINE
8
Shape533
10
84.132400
20
126.032500
11
84.132400
21
124.032000
0
LINE
8
Shape533
10
190.132000
20
114.031000
11
190.132000
21
116.031000
0
LINE
8
Shape533
10
88.132000
20
116.031000
11
118.132000
21
116.031000
0
LINE
8
Shape533
10
84.132100
20
124.031990
11
0.132524
21
124.032000
0
LINE
8
Shape533
10
152.132524
20
126.032250
11
152.132000
21
124.032000
0
LINE
8
Shape533
10
88.132400
20
114.031000
11
88.132400
21
116.031000
0
LINE
8
Shape533
10
98.132390
20
119.031370
11
68.132500
21
119.032000
0
LINE
8
Shape533
10
122.132400
20
124.032620
11
122.132000
21
126.033000
0
LINE
8
Shape533
10
0.132000
20
126.033000
11
84.132400
21
126.033000
0
LINE
8
Shape533
10
64.132500
20
121.032380
11
64.132500
21
119.032000
0
LINE
8
Shape533
10
152.132300
20
124.032620
11
122.132000
21
124.032000
0
LINE
8
Shape533
10
102.132000
20
121.031630
11
132.132000
21
121.032000
0
LINE
8
Shape533
10
152.131900
20
114.031130
11
122.132000
21
114.031000
0
LINE
8
Shape533
10
68.132100
20
119.031620
11
68.132500
21
121.032000
0
LINE
8
Shape533
10
0.132600
20
119.031750
11
0.132524
21
121.032000
0
LINE
8
Shape533
10
207.532000
20
161.032000
11
212.532000
21
161.032000
0
LINE
8
Shape533
10
212.532000
20
206.032300
11
212.532000
21
191.033000
0
LINE
8
Shape533
10
68.132500
20
129.033000
11
68.132500
21
131.033000
0
LINE
8
Shape533
10
88.132400
20
126.032380
11
118.132000
21
126.033000
0
LINE
8
Shape533
10
207.532000
20
191.033000
11
207.532000
21
206.032000
0
LINE
8
Shape533
10
220.132000
20
129.033100
11
220.132000
21
131.033000
0
LINE
8
Shape533
10
163.132000
20
322.632000
11
148.132000
21
322.632000
0
LINE
8
Shape533
10
7.632000
20
161.032000
11
12.632500
21
161.032000
0
LINE
8
Shape533
10
72.132500
20
327.632000
11
72.132400
21
322.632000
0
LINE
8
Shape533
10
98.132400
20
129.033000
11
68.132500
21
129.033000
0
LINE
8
Shape533
10
68.132500
20
131.033250
11
98.132400
21
131.033000
0
LINE
8
Shape533
10
0.132500
20
129.032750
11
0.132524
21
131.033000
0
LINE
8
Shape533
10
118.132524
20
126.032380
11
118.132000
21
124.032000
0
LINE
8
Shape533
10
136.132000
20
129.032620
11
220.132000
21
129.033000
0
LINE
8
Shape533
10
12.632000
20
146.032500
11
7.632390
21
146.032000
0
LINE
8
Shape533
10
12.632480
20
161.031200
11
12.632500
21
146.032000
0
LINE
8
Shape533
10
136.132500
20
131.032800
11
136.132000
21
129.033000
0
LINE
8
Shape533
10
34.132000
20
131.033250
11
64.132500
21
131.033000
0
LINE
8
Shape533
10
12.757500
20
176.032000
11
12.549742
21
177.052123
0
LINE
8
Shape533
10
12.549742
20
177.052123
11
11.986848
21
177.884842
0
LINE
8
Shape533
10
11.986848
20
177.884842
11
11.153031
21
178.446110
0
LINE
8
Shape533
10
11.153031
20
178.446110
11
10.132505
21
178.651877
0
LINE
8
Shape533
10
10.132505
20
178.651877
11
9.111979
21
178.446110
0
LINE
8
Shape533
10
9.111979
20
178.446110
11
8.278162
21
177.884842
0
LINE
8
Shape533
10
8.278162
20
177.884842
11
7.715268
21
177.052123
0
LINE
8
Shape533
10
7.715268
20
177.052123
11
7.507510
21
176.032000
0
LINE
8
Shape533
10
7.507510
20
176.032000
11
7.715268
21
175.011877
0
LINE
8
Shape533
10
7.715268
20
175.011877
11
8.278162
21
174.179158
0
LINE
8
Shape533
10
8.278162
20
174.179158
11
9.111979
21
173.617890
0
LINE
8
Shape533
10
9.111979
20
173.617890
11
10.132505
21
173.412123
0
LINE
8
Shape533
10
10.132505
20
173.412123
11
11.153031
21
173.617890
0
LINE
8
Shape533
10
11.153031
20
173.617890
11
11.986848
21
174.179158
0
LINE
8
Shape533
10
11.986848
20
174.179158
11
12.549742
21
175.011877
0
LINE
8
Shape533
10
12.549742
20
175.011877
11
12.757500
21
176.032000
0
LINE
8
Shape533
10
12.757500
20
176.032000
11
12.757500
21
176.032000
0
LINE
8
Shape533
10
212.532500
20
191.032800
11
194.907000
21
25.133000
0
LINE
8
Shape533
10
207.507000
20
-155.768000
11
207.507000
21
166.632000
0
LINE
8
Shape533
10
30.132500
20
129.033000
11
0.132524
21
129.033000
0
LINE
8
Shape533
10
220.132524
20
131.033250
11
136.132000
21
131.033000
0
LINE
8
Shape533
10
102.132100
20
129.032750
11
102.132000
21
131.033000
0
LINE
8
Shape533
10
132.132000
20
129.032750
11
102.132000
21
129.033000
0
LINE
8
Shape533
10
132.132000
20
131.033250
11
132.132000
21
129.033000
0
LINE
8
Shape533
10
102.132000
20
131.033250
11
132.132000
21
131.033000
0
LINE
8
Shape533
10
34.132200
20
129.032750
11
34.132500
21
131.033000
0
LINE
8
Shape533
10
64.132500
20
129.032750
11
34.132500
21
129.033000
0
LINE
8
Shape533
10
64.132500
20
131.033250
11
64.132500
21
129.033000
0
LINE
8
Shape533
10
212.657000
20
176.032000
11
212.449242
21
177.052123
0
LINE
8
Shape533
10
212.449242
20
177.052123
11
211.886348
21
177.884842
0
LINE
8
Shape533
10
211.886348
20
177.884842
11
211.052531
21
178.446110
0
LINE
8
Shape533
10
211.052531
20
178.446110
11
210.032005
21
178.651877
0
LINE
8
Shape533
10
210.032005
20
178.651877
11
209.011479
21
178.446110
0
LINE
8
Shape533
10
209.011479
20
178.446110
11
208.177662
21
177.884842
0
LINE
8
Shape533
10
208.177662
20
177.884842
11
207.614768
21
177.052123
0
LINE
8
Shape533
10
207.614768
20
177.052123
11
207.407010
21
176.032000
0
LINE
8
Shape533
10
207.407010
20
176.032000
11
207.614768
21
175.011877
0
LINE
8
Shape533
10
207.614768
20
175.011877
11
208.177662
21
174.179158
0
LINE
8
Shape533
10
208.177662
20
174.179158
11
209.011479
21
173.617890
0
LINE
8
Shape533
10
209.011479
20
173.617890
11
210.032005
21
173.412123
0
LINE
8
Shape533
10
210.032005
20
173.412123
11
211.052531
21
173.617890
0
LINE
8
Shape533
10
211.052531
20
173.617890
11
211.886348
21
174.179158
0
LINE
8
Shape533
10
211.886348
20
174.179158
11
212.449242
21
175.011877
0
LINE
8
Shape533
10
212.449242
20
175.011877
11
212.657000
21
176.032000
0
LINE
8
Shape533
10
212.657000
20
176.032000
11
212.657000
21
176.032000
0
LINE
8
Shape533
10
163.132000
20
327.632000
11
163.132000
21
322.632000
0
LINE
8
Shape533
10
72.132100
20
322.632000
11
57.132400
21
322.632000
0
LINE
8
Shape533
10
207.532000
20
146.032000
11
207.532000
21
161.032000
0
LINE
8
Shape533
10
7.632000
20
191.033100
11
7.632390
21
206.032000
0
LINE
8
Shape533
10
30.132490
20
131.033300
11
30.132500
21
129.033000
0
LINE
8
Shape533
10
57.132400
20
322.632000
11
57.132400
21
327.632000
0
LINE
8
Shape533
10
57.132400
20
327.632000
11
72.132400
21
327.632000
0
LINE
8
Shape533
10
112.757300
20
325.032130
11
112.549542
21
326.052253
0
LINE
8
Shape533
10
112.549542
20
326.052253
11
111.986648
21
326.884972
0
LINE
8
Shape533
10
111.986648
20
326.884972
11
111.152831
21
327.446240
0
LINE
8
Shape533
10
111.152831
20
327.446240
11
110.132305
21
327.652007
0
LINE
8
Shape533
10
110.132305
20
327.652007
11
109.111779
21
327.446240
0
LINE
8
Shape533
10
109.111779
20
327.446240
11
108.277962
21
326.884972
0
LINE
8
Shape533
10
108.277962
20
326.884972
11
107.715068
21
326.052253
0
LINE
8
Shape533
10
107.715068
20
326.052253
11
107.507310
21
325.032130
0
LINE
8
Shape533
10
107.507310
20
325.032130
11
107.715068
21
324.012007
0
LINE
8
Shape533
10
107.715068
20
324.012007
11
108.277962
21
323.179288
0
LINE
8
Shape533
10
108.277962
20
323.179288
11
109.111779
21
322.618020
0
LINE
8
Shape533
10
109.111779
20
322.618020
11
110.132305
21
322.412253
0
LINE
8
Shape533
10
110.132305
20
322.412253
11
111.152831
21
322.618020
0
LINE
8
Shape533
10
111.152831
20
322.618020
11
111.986648
21
323.179288
0
LINE
8
Shape533
10
111.986648
20
323.179288
11
112.549542
21
324.012007
0
LINE
8
Shape533
10
112.549542
20
324.012007
11
112.757300
21
325.032130
0
LINE
8
Shape533
10
112.757300
20
325.032130
11
112.757300
21
325.032130
0
LINE
8
Shape533
10
212.532000
20
146.032000
11
207.532000
21
146.032000
0
LINE
8
Shape533
10
7.654490
20
206.136000
11
12.654600
21
206.136000
0
LINE
8
Shape533
10
12.632507
20
206.031561
11
12.632500
21
191.033000
0
LINE
8
Shape533
10
207.532500
20
206.032200
11
212.532000
21
206.032000
0
LINE
8
Shape533
10
0.132000
20
332.532000
11
0.132524
21
10.132100
0
LINE
8
Shape533
10
148.132524
20
327.632100
11
163.132000
21
327.632000
0
LINE
8
Shape533
10
10.132000
20
0.134000
11
210.132000
21
0.133465
0
LINE
8
Shape533
10
98.132400
20
131.033000
11
98.132400
21
129.033000
0
LINE
8
Shape533
10
148.132000
20
322.632000
11
148.132000
21
327.632000
0
LINE
8
Shape533
10
7.632390
20
146.032000
11
7.632390
21
161.032000
0
LINE
8
Shape533
10
210.132000
20
342.532000
11
10.132400
21
342.532000
0
LINE
8
Shape533
10
12.632440
20
191.033000
11
7.632390
21
191.033000
0
LINE
8
Shape533
10
212.532390
20
161.031900
11
212.532000
21
146.032000
0
LINE
8
Shape533
10
0.132000
20
131.032800
11
30.132500
21
131.033000
 0 
ENDSEC
 0 
EOF