999
"DXF R12 Output" (www.mydxf.blogspot.com)
 0 
SECTION
 2 
HEADER
 9 
$ACADVER
 1 
AC1009
 9 
$EXTMIN
 10 
 0 
 20 
 0 
 9 
$EXTMAX
 10 
 8.5 
 20 
 11 
 0 
ENDSEC
 0 
SECTION
 2 
ENTITIES
0
LINE
8
Layer 1
10
0.793749
20
381.059000
11
-0.793749
21
379.471000
0
LINE
8
Layer 1
10
0.000000
20
381.588000
11
0.000000
21
378.942000
0
LINE
8
Layer 1
10
2.116660
20
379.207000
11
1.058330
21
378.148670
0
LINE
8
Layer 1
10
1.587500
20
379.736000
11
0.529170
21
378.677670
0
LINE
8
Layer 1
10
1.058330
20
380.265000
11
0.000000
21
379.206670
0
LINE
8
Sketch
10
207.632000
20
49.632300
11
207.632000
21
34.632300
0
LINE
8
Sketch
10
212.632090
20
49.632300
11
207.632000
21
49.632300
0
LINE
8
Sketch
10
212.632090
20
34.632300
11
212.632000
21
49.632300
0
LINE
8
Sketch
10
207.631910
20
34.632300
11
212.632000
21
34.632300
0
LINE
8
Sketch
10
207.632000
20
79.632300
11
207.632000
21
94.632300
0
LINE
8
Sketch
10
212.632090
20
79.632300
11
207.632000
21
79.632300
0
LINE
8
Sketch
10
212.632090
20
94.632300
11
212.632000
21
79.632300
0
LINE
8
Sketch
10
207.631910
20
94.632300
11
212.632000
21
94.632300
0
LINE
8
Sketch
10
212.756888
20
64.632200
11
212.549130
21
65.652323
0
LINE
8
Sketch
10
212.549130
20
65.652323
11
211.986236
21
66.485042
0
LINE
8
Sketch
10
211.986236
20
66.485042
11
211.152419
21
67.046310
0
LINE
8
Sketch
10
211.152419
20
67.046310
11
210.131893
21
67.252077
0
LINE
8
Sketch
10
210.131893
20
67.252077
11
209.111367
21
67.046310
0
LINE
8
Sketch
10
209.111367
20
67.046310
11
208.277550
21
66.485042
0
LINE
8
Sketch
10
208.277550
20
66.485042
11
207.714656
21
65.652323
0
LINE
8
Sketch
10
207.714656
20
65.652323
11
207.506898
21
64.632200
0
LINE
8
Sketch
10
207.506898
20
64.632200
11
207.714656
21
63.612077
0
LINE
8
Sketch
10
207.714656
20
63.612077
11
208.277550
21
62.779358
0
LINE
8
Sketch
10
208.277550
20
62.779358
11
209.111367
21
62.218090
0
LINE
8
Sketch
10
209.111367
20
62.218090
11
210.131893
21
62.012323
0
LINE
8
Sketch
10
210.131893
20
62.012323
11
211.152419
21
62.218090
0
LINE
8
Sketch
10
211.152419
20
62.218090
11
211.986236
21
62.779358
0
LINE
8
Sketch
10
211.986236
20
62.779358
11
212.549130
21
63.612077
0
LINE
8
Sketch
10
212.549130
20
63.612077
11
212.756888
21
64.632200
0
LINE
8
Sketch
10
212.756888
20
64.632200
11
212.756888
21
64.632200
0
LINE
8
Sketch
10
7.632020
20
49.632300
11
7.632020
21
34.632300
0
LINE
8
Sketch
10
12.632110
20
49.632300
11
7.632020
21
49.632300
0
LINE
8
Sketch
10
12.632110
20
34.632300
11
12.632100
21
49.632300
0
LINE
8
Sketch
10
7.632010
20
34.632300
11
12.632100
21
34.632300
0
LINE
8
Sketch
10
7.632010
20
79.632300
11
7.632020
21
94.632300
0
LINE
8
Sketch
10
12.632110
20
79.632300
11
7.632020
21
79.632300
0
LINE
8
Sketch
10
12.632110
20
94.632300
11
12.632100
21
79.632300
0
LINE
8
Sketch
10
7.632010
20
94.632300
11
12.632100
21
94.632300
0
LINE
8
Sketch
10
12.757115
20
64.632200
11
12.549357
21
65.652323
0
LINE
8
Sketch
10
12.549357
20
65.652323
11
11.986463
21
66.485042
0
LINE
8
Sketch
10
11.986463
20
66.485042
11
11.152646
21
67.046310
0
LINE
8
Sketch
10
11.152646
20
67.046310
11
10.132120
21
67.252077
0
LINE
8
Sketch
10
10.132120
20
67.252077
11
9.111594
21
67.046310
0
LINE
8
Sketch
10
9.111594
20
67.046310
11
8.277777
21
66.485042
0
LINE
8
Sketch
10
8.277777
20
66.485042
11
7.714883
21
65.652323
0
LINE
8
Sketch
10
7.714883
20
65.652323
11
7.507125
21
64.632200
0
LINE
8
Sketch
10
7.507125
20
64.632200
11
7.714883
21
63.612077
0
LINE
8
Sketch
10
7.714883
20
63.612077
11
8.277777
21
62.779358
0
LINE
8
Sketch
10
8.277777
20
62.779358
11
9.111594
21
62.218090
0
LINE
8
Sketch
10
9.111594
20
62.218090
11
10.132120
21
62.012323
0
LINE
8
Sketch
10
10.132120
20
62.012323
11
11.152646
21
62.218090
0
LINE
8
Sketch
10
11.152646
20
62.218090
11
11.986463
21
62.779358
0
LINE
8
Sketch
10
11.986463
20
62.779358
11
12.549357
21
63.612077
0
LINE
8
Sketch
10
12.549357
20
63.612077
11
12.757115
21
64.632200
0
LINE
8
Sketch
10
12.757115
20
64.632200
11
12.757115
21
64.632200
0
LINE
8
Sketch
10
212.632000
20
198.632000
11
212.632000
21
183.632000
0
LINE
8
Sketch
10
207.631910
20
198.632000
11
212.632000
21
198.632000
0
LINE
8
Sketch
10
207.631910
20
183.632000
11
207.632000
21
198.632000
0
LINE
8
Sketch
10
212.632090
20
183.632000
11
207.632000
21
183.632000
0
LINE
8
Sketch
10
212.632090
20
228.631700
11
212.632000
21
243.632000
0
LINE
8
Sketch
10
207.631910
20
228.632000
11
212.632000
21
228.632000
0
LINE
8
Sketch
10
207.631910
20
243.632000
11
207.632000
21
228.632000
0
LINE
8
Sketch
10
212.632090
20
243.632000
11
207.632000
21
243.632000
0
LINE
8
Sketch
10
7.632000
20
198.632300
11
7.632020
21
183.632000
0
LINE
8
Sketch
10
12.632110
20
198.632000
11
7.632020
21
198.632000
0
LINE
8
Sketch
10
12.632110
20
183.632000
11
12.632100
21
198.632000
0
LINE
8
Sketch
10
7.632010
20
183.632000
11
12.632100
21
183.632000
0
LINE
8
Sketch
10
7.632010
20
228.631700
11
7.632020
21
243.632000
0
LINE
8
Sketch
10
12.632110
20
228.632000
11
7.632020
21
228.632000
0
LINE
8
Sketch
10
12.632110
20
243.632000
11
12.632100
21
228.632000
0
LINE
8
Sketch
10
7.632010
20
243.632000
11
12.632100
21
243.632000
0
LINE
8
Sketch
10
163.132100
20
360.232000
11
163.132000
21
365.232000
0
LINE
8
Sketch
10
148.132000
20
360.231910
11
163.132000
21
360.232000
0
LINE
8
Sketch
10
148.132000
20
365.232090
11
148.132000
21
360.232000
0
LINE
8
Sketch
10
163.132000
20
365.232090
11
148.132000
21
365.232000
0
LINE
8
Sketch
10
57.132100
20
360.231910
11
57.132100
21
365.232000
0
LINE
8
Sketch
10
72.132100
20
360.231910
11
57.132100
21
360.232000
0
LINE
8
Sketch
10
72.132100
20
365.232090
11
72.132100
21
360.232000
0
LINE
8
Sketch
10
57.132100
20
365.232090
11
72.132100
21
365.232000
0
LINE
8
Sketch
10
212.757100
20
213.632000
11
212.549342
21
214.652123
0
LINE
8
Sketch
10
212.549342
20
214.652123
11
211.986448
21
215.484842
0
LINE
8
Sketch
10
211.986448
20
215.484842
11
211.152631
21
216.046110
0
LINE
8
Sketch
10
211.152631
20
216.046110
11
210.132105
21
216.251877
0
LINE
8
Sketch
10
210.132105
20
216.251877
11
209.111579
21
216.046110
0
LINE
8
Sketch
10
209.111579
20
216.046110
11
208.277762
21
215.484842
0
LINE
8
Sketch
10
208.277762
20
215.484842
11
207.714868
21
214.652123
0
LINE
8
Sketch
10
207.714868
20
214.652123
11
207.507110
21
213.632000
0
LINE
8
Sketch
10
207.507110
20
213.632000
11
207.714868
21
212.611877
0
LINE
8
Sketch
10
207.714868
20
212.611877
11
208.277762
21
211.779158
0
LINE
8
Sketch
10
208.277762
20
211.779158
11
209.111579
21
211.217890
0
LINE
8
Sketch
10
209.111579
20
211.217890
11
210.132105
21
211.012123
0
LINE
8
Sketch
10
210.132105
20
211.012123
11
211.152631
21
211.217890
0
LINE
8
Sketch
10
211.152631
20
211.217890
11
211.986448
21
211.779158
0
LINE
8
Sketch
10
211.986448
20
211.779158
11
212.549342
21
212.611877
0
LINE
8
Sketch
10
212.549342
20
212.611877
11
212.757100
21
213.632000
0
LINE
8
Sketch
10
212.757100
20
213.632000
11
212.757100
21
213.632000
0
LINE
8
Sketch
10
12.757100
20
213.632000
11
12.549342
21
214.652123
0
LINE
8
Sketch
10
12.549342
20
214.652123
11
11.986448
21
215.484842
0
LINE
8
Sketch
10
11.986448
20
215.484842
11
11.152631
21
216.046110
0
LINE
8
Sketch
10
11.152631
20
216.046110
11
10.132105
21
216.251877
0
LINE
8
Sketch
10
10.132105
20
216.251877
11
9.111579
21
216.046110
0
LINE
8
Sketch
10
9.111579
20
216.046110
11
8.277762
21
215.484842
0
LINE
8
Sketch
10
8.277762
20
215.484842
11
7.714868
21
214.652123
0
LINE
8
Sketch
10
7.714868
20
214.652123
11
7.507110
21
213.632000
0
LINE
8
Sketch
10
7.507110
20
213.632000
11
7.714868
21
212.611877
0
LINE
8
Sketch
10
7.714868
20
212.611877
11
8.277762
21
211.779158
0
LINE
8
Sketch
10
8.277762
20
211.779158
11
9.111579
21
211.217890
0
LINE
8
Sketch
10
9.111579
20
211.217890
11
10.132105
21
211.012123
0
LINE
8
Sketch
10
10.132105
20
211.012123
11
11.152631
21
211.217890
0
LINE
8
Sketch
10
11.152631
20
211.217890
11
11.986448
21
211.779158
0
LINE
8
Sketch
10
11.986448
20
211.779158
11
12.549342
21
212.611877
0
LINE
8
Sketch
10
12.549342
20
212.611877
11
12.757100
21
213.632000
0
LINE
8
Sketch
10
12.757100
20
213.632000
11
12.757100
21
213.632000
0
LINE
8
Sketch
10
112.757000
20
64.632300
11
112.549242
21
65.652423
0
LINE
8
Sketch
10
112.549242
20
65.652423
11
111.986348
21
66.485142
0
LINE
8
Sketch
10
111.986348
20
66.485142
11
111.152531
21
67.046410
0
LINE
8
Sketch
10
111.152531
20
67.046410
11
110.132005
21
67.252177
0
LINE
8
Sketch
10
110.132005
20
67.252177
11
109.111479
21
67.046410
0
LINE
8
Sketch
10
109.111479
20
67.046410
11
108.277662
21
66.485142
0
LINE
8
Sketch
10
108.277662
20
66.485142
11
107.714768
21
65.652423
0
LINE
8
Sketch
10
107.714768
20
65.652423
11
107.507010
21
64.632300
0
LINE
8
Sketch
10
107.507010
20
64.632300
11
107.714768
21
63.612177
0
LINE
8
Sketch
10
107.714768
20
63.612177
11
108.277662
21
62.779458
0
LINE
8
Sketch
10
108.277662
20
62.779458
11
109.111479
21
62.218190
0
LINE
8
Sketch
10
109.111479
20
62.218190
11
110.132005
21
62.012423
0
LINE
8
Sketch
10
110.132005
20
62.012423
11
111.152531
21
62.218190
0
LINE
8
Sketch
10
111.152531
20
62.218190
11
111.986348
21
62.779458
0
LINE
8
Sketch
10
111.986348
20
62.779458
11
112.549242
21
63.612177
0
LINE
8
Sketch
10
112.549242
20
63.612177
11
112.757000
21
64.632300
0
LINE
8
Sketch
10
112.757000
20
64.632300
11
112.757000
21
64.632300
0
LINE
8
Sketch
10
112.757000
20
362.632300
11
112.549242
21
363.652423
0
LINE
8
Sketch
10
112.549242
20
363.652423
11
111.986348
21
364.485142
0
LINE
8
Sketch
10
111.986348
20
364.485142
11
111.152531
21
365.046410
0
LINE
8
Sketch
10
111.152531
20
365.046410
11
110.132005
21
365.252177
0
LINE
8
Sketch
10
110.132005
20
365.252177
11
109.111479
21
365.046410
0
LINE
8
Sketch
10
109.111479
20
365.046410
11
108.277662
21
364.485142
0
LINE
8
Sketch
10
108.277662
20
364.485142
11
107.714768
21
363.652423
0
LINE
8
Sketch
10
107.714768
20
363.652423
11
107.507010
21
362.632300
0
LINE
8
Sketch
10
107.507010
20
362.632300
11
107.714768
21
361.612177
0
LINE
8
Sketch
10
107.714768
20
361.612177
11
108.277662
21
360.779458
0
LINE
8
Sketch
10
108.277662
20
360.779458
11
109.111479
21
360.218190
0
LINE
8
Sketch
10
109.111479
20
360.218190
11
110.132005
21
360.012423
0
LINE
8
Sketch
10
110.132005
20
360.012423
11
111.152531
21
360.218190
0
LINE
8
Sketch
10
111.152531
20
360.218190
11
111.986348
21
360.779458
0
LINE
8
Sketch
10
111.986348
20
360.779458
11
112.549242
21
361.612177
0
LINE
8
Sketch
10
112.549242
20
361.612177
11
112.757000
21
362.632300
0
LINE
8
Sketch
10
112.757000
20
362.632300
11
112.757000
21
362.632300
0
LINE
8
Sketch
10
19.132100
20
82.132400
11
19.132100
21
345.132000
0
LINE
8
Sketch
10
201.132100
20
82.133000
11
19.132100
21
82.132400
0
LINE
8
Sketch
10
201.132100
20
345.131400
11
201.132000
21
82.132400
0
LINE
8
Sketch
10
19.132000
20
345.131400
11
201.132000
21
345.132000
0
LINE
8
Sketch
10
210.131990
20
0.133000
11
212.092001
21
0.326922
0
LINE
8
Sketch
10
212.092001
20
0.326922
11
213.958820
21
0.894204
0
LINE
8
Sketch
10
213.958820
20
0.894204
11
215.679990
21
1.813116
0
LINE
8
Sketch
10
215.679990
20
1.813116
11
217.203051
21
3.061929
0
LINE
8
Sketch
10
217.203051
20
3.061929
11
218.451864
21
4.584990
0
LINE
8
Sketch
10
218.451864
20
4.584990
11
219.370776
21
6.306160
0
LINE
8
Sketch
10
219.370776
20
6.306160
11
219.938058
21
8.172979
0
LINE
8
Sketch
10
219.938058
20
8.172979
11
220.131980
21
10.132990
0
LINE
8
Sketch
10
10.132100
20
0.132291
11
210.132000
21
0.132291
0
LINE
8
Sketch
10
0.132000
20
10.132391
11
0.325922
21
8.172380
0
LINE
8
Sketch
10
0.325922
20
8.172380
11
0.893204
21
6.305561
0
LINE
8
Sketch
10
0.893204
20
6.305561
11
1.812116
21
4.584391
0
LINE
8
Sketch
10
1.812116
20
4.584391
11
3.060929
21
3.061330
0
LINE
8
Sketch
10
3.060929
20
3.061330
11
4.583990
21
1.812517
0
LINE
8
Sketch
10
4.583990
20
1.812517
11
6.305160
21
0.893605
0
LINE
8
Sketch
10
6.305160
20
0.893605
11
8.171979
21
0.326323
0
LINE
8
Sketch
10
8.171979
20
0.326323
11
10.131990
21
0.132401
0
LINE
8
Sketch
10
0.132147
20
370.132000
11
0.132147
21
10.133500
0
LINE
8
Sketch
10
10.132127
20
380.131500
11
8.172116
21
379.937578
0
LINE
8
Sketch
10
8.172116
20
379.937578
11
6.305297
21
379.370296
0
LINE
8
Sketch
10
6.305297
20
379.370296
11
4.584127
21
378.451384
0
LINE
8
Sketch
10
4.584127
20
378.451384
11
3.061066
21
377.202571
0
LINE
8
Sketch
10
3.061066
20
377.202571
11
1.812253
21
375.679510
0
LINE
8
Sketch
10
1.812253
20
375.679510
11
0.893341
21
373.958340
0
LINE
8
Sketch
10
0.893341
20
373.958340
11
0.326059
21
372.091521
0
LINE
8
Sketch
10
0.326059
20
372.091521
11
0.132137
21
370.131510
0
LINE
8
Sketch
10
210.132000
20
380.132000
11
10.132100
21
380.132000
0
LINE
8
Sketch
10
220.132100
20
370.132000
11
219.938178
21
372.092011
0
LINE
8
Sketch
10
219.938178
20
372.092011
11
219.370896
21
373.958830
0
LINE
8
Sketch
10
219.370896
20
373.958830
11
218.451984
21
375.680000
0
LINE
8
Sketch
10
218.451984
20
375.680000
11
217.203171
21
377.203061
0
LINE
8
Sketch
10
217.203171
20
377.203061
11
215.680110
21
378.451874
0
LINE
8
Sketch
10
215.680110
20
378.451874
11
213.958940
21
379.370786
0
LINE
8
Sketch
10
213.958940
20
379.370786
11
212.092121
21
379.938068
0
LINE
8
Sketch
10
212.092121
20
379.938068
11
210.132110
21
380.131990
0
LINE
8
Sketch
10
220.132000
20
10.133500
11
220.132000
21
370.132000
 0 
ENDSEC
 0 
EOF