999
"DXF R12 Output" (www.mydxf.blogspot.com)
 0 
SECTION
 2 
HEADER
 9 
$ACADVER
 1 
AC1009
 9 
$EXTMIN
 10 
 0 
 20 
 0 
 9 
$EXTMAX
 10 
 8.5 
 20 
 11 
 0 
ENDSEC
 0 
SECTION
 2 
ENTITIES
0
LINE
8
Layer 1
10
0.793749
20
76.057900
11
-0.793749
21
74.470500
0
LINE
8
Layer 1
10
0.000000
20
76.587100
11
0.000000
21
73.941300
0
LINE
8
Layer 1
10
2.116660
20
74.205900
11
1.058330
21
73.147570
0
LINE
8
Layer 1
10
1.587500
20
74.735000
11
0.529170
21
73.676670
0
LINE
8
Layer 1
10
1.058330
20
75.264200
11
0.000000
21
74.205870
0
LINE
8
Sketch
10
5.132110
20
45.133200
11
5.132110
21
70.132300
0
LINE
8
Sketch
10
5.132110
20
45.133200
11
0.132017
21
45.133200
0
LINE
8
Sketch
10
0.132017
20
45.133200
11
0.132017
21
30.131400
0
LINE
8
Sketch
10
0.132017
20
30.131400
11
5.132110
21
30.131400
0
LINE
8
Sketch
10
5.132110
20
5.133600
11
5.132110
21
30.131400
0
LINE
8
Sketch
10
49.632110
20
5.133600
11
5.132110
21
5.133560
0
LINE
8
Sketch
10
49.632110
20
0.132940
11
49.632100
21
5.133560
0
LINE
8
Sketch
10
64.632100
20
0.132940
11
49.632100
21
0.132942
0
LINE
8
Sketch
10
64.632100
20
5.133562
11
64.632100
21
0.132942
0
LINE
8
Sketch
10
100.007000
20
5.133562
11
64.632100
21
5.133560
0
LINE
8
Sketch
10
100.007000
20
10.131530
11
100.007000
21
5.133560
0
LINE
8
Sketch
10
98.632000
20
10.131530
11
100.007000
21
10.131500
0
LINE
8
Sketch
10
98.632000
20
14.131990
11
98.632000
21
10.131500
0
LINE
8
Sketch
10
100.007000
20
14.131990
11
98.632000
21
14.132000
0
LINE
8
Sketch
10
100.007000
20
17.132400
11
100.007000
21
14.132000
0
LINE
8
Sketch
10
105.257000
20
17.132400
11
100.007000
21
17.132400
0
LINE
8
Sketch
10
105.256990
20
14.132030
11
105.257000
21
17.132400
0
LINE
8
Sketch
10
106.632000
20
14.132030
11
105.257000
21
14.132000
0
LINE
8
Sketch
10
106.632000
20
10.131510
11
106.632000
21
14.132000
0
LINE
8
Sketch
10
105.257000
20
10.131510
11
106.632000
21
10.131500
0
LINE
8
Sketch
10
105.257000
20
5.133530
11
105.257000
21
10.131500
0
LINE
8
Sketch
10
140.632000
20
5.133560
11
105.257000
21
5.133560
0
LINE
8
Sketch
10
140.631900
20
0.132940
11
140.632000
21
5.133560
0
LINE
8
Sketch
10
155.632000
20
0.132940
11
140.632000
21
0.132942
0
LINE
8
Sketch
10
155.632000
20
5.133562
11
155.632000
21
0.132942
0
LINE
8
Sketch
10
200.132000
20
5.133562
11
155.632000
21
5.133560
0
LINE
8
Sketch
10
200.132000
20
30.131360
11
200.132000
21
5.133560
0
LINE
8
Sketch
10
205.132090
20
30.131360
11
200.132000
21
30.131400
0
LINE
8
Sketch
10
205.132090
20
45.133300
11
205.132000
21
30.131400
0
LINE
8
Sketch
10
200.131910
20
45.133300
11
205.132000
21
45.133200
0
LINE
8
Sketch
10
200.131910
20
70.132300
11
200.132000
21
45.133200
0
LINE
8
Sketch
10
155.632000
20
70.132300
11
200.132000
21
70.132300
0
LINE
8
Sketch
10
155.632000
20
75.132400
11
155.632000
21
70.132300
0
LINE
8
Sketch
10
140.632000
20
75.132390
11
155.632000
21
75.132400
0
LINE
8
Sketch
10
140.632000
20
70.132310
11
140.632000
21
75.132400
0
LINE
8
Sketch
10
105.257000
20
70.132300
11
140.632000
21
70.132300
0
LINE
8
Sketch
10
105.257000
20
65.133000
11
105.257000
21
70.132300
0
LINE
8
Sketch
10
106.632000
20
65.133000
11
105.257000
21
65.133000
0
LINE
8
Sketch
10
106.632000
20
61.132510
11
106.632000
21
65.133000
0
LINE
8
Sketch
10
105.257000
20
61.132510
11
106.632000
21
61.132600
0
LINE
8
Sketch
10
105.257000
20
58.132230
11
105.257000
21
61.132600
0
LINE
8
Sketch
10
100.007010
20
58.132230
11
105.257000
21
58.132200
0
LINE
8
Sketch
10
100.007000
20
61.132600
11
100.007000
21
58.132200
0
LINE
8
Sketch
10
98.632000
20
61.132570
11
100.007000
21
61.132600
0
LINE
8
Sketch
10
98.632000
20
65.133090
11
98.632000
21
61.132600
0
LINE
8
Sketch
10
100.007000
20
65.133090
11
98.632000
21
65.133000
0
LINE
8
Sketch
10
100.007000
20
70.132300
11
100.007000
21
65.133000
0
LINE
8
Sketch
10
64.632100
20
70.132300
11
100.007000
21
70.132300
0
LINE
8
Sketch
10
64.632100
20
75.132400
11
64.632100
21
70.132300
0
LINE
8
Sketch
10
49.632100
20
75.132390
11
64.632100
21
75.132400
0
LINE
8
Sketch
10
49.632100
20
70.132310
11
49.632100
21
75.132400
0
LINE
8
Sketch
10
5.132100
20
70.132310
11
49.632100
21
70.132300
 0 
ENDSEC
 0 
EOF