999
"DXF R12 Output" (www.mydxf.blogspot.com)
 0 
SECTION
 2 
HEADER
 9 
$ACADVER
 1 
AC1009
 9 
$EXTMIN
 10 
 0 
 20 
 0 
 9 
$EXTMAX
 10 
 8.5 
 20 
 11 
 0 
ENDSEC
 0 
SECTION
 2 
ENTITIES
0
LINE
8
Layer 1
10
0.793749
20
264.059000
11
-0.793749
21
262.471000
0
LINE
8
Layer 1
10
0.000000
20
264.588000
11
0.000000
21
261.942000
0
LINE
8
Layer 1
10
2.116660
20
262.207000
11
1.058330
21
261.148670
0
LINE
8
Layer 1
10
1.587500
20
262.736000
11
0.529170
21
261.677670
0
LINE
8
Layer 1
10
1.058330
20
263.265000
11
0.000000
21
262.206670
0
LINE
8
Sketch
10
142.632000
20
94.133400
11
142.434101
21
95.104907
0
LINE
8
Sketch
10
142.434101
20
95.104907
11
141.898003
21
95.897934
0
LINE
8
Sketch
10
141.898003
20
95.897934
11
141.103906
21
96.432444
0
LINE
8
Sketch
10
141.103906
20
96.432444
11
140.132005
21
96.628400
0
LINE
8
Sketch
10
140.132005
20
96.628400
11
139.160104
21
96.432444
0
LINE
8
Sketch
10
139.160104
20
96.432444
11
138.366007
21
95.897934
0
LINE
8
Sketch
10
138.366007
20
95.897934
11
137.829909
21
95.104907
0
LINE
8
Sketch
10
137.829909
20
95.104907
11
137.632010
21
94.133400
0
LINE
8
Sketch
10
137.632010
20
94.133400
11
137.829909
21
93.161893
0
LINE
8
Sketch
10
137.829909
20
93.161893
11
138.366007
21
92.368866
0
LINE
8
Sketch
10
138.366007
20
92.368866
11
139.160104
21
91.834356
0
LINE
8
Sketch
10
139.160104
20
91.834356
11
140.132005
21
91.638400
0
LINE
8
Sketch
10
140.132005
20
91.638400
11
141.103906
21
91.834356
0
LINE
8
Sketch
10
141.103906
20
91.834356
11
141.898003
21
92.368866
0
LINE
8
Sketch
10
141.898003
20
92.368866
11
142.434101
21
93.161893
0
LINE
8
Sketch
10
142.434101
20
93.161893
11
142.632000
21
94.133400
0
LINE
8
Sketch
10
142.632000
20
94.133400
11
142.632000
21
94.133400
0
LINE
8
Sketch
10
142.632000
20
169.133300
11
142.434101
21
170.104807
0
LINE
8
Sketch
10
142.434101
20
170.104807
11
141.898003
21
170.897834
0
LINE
8
Sketch
10
141.898003
20
170.897834
11
141.103906
21
171.432344
0
LINE
8
Sketch
10
141.103906
20
171.432344
11
140.132005
21
171.628300
0
LINE
8
Sketch
10
140.132005
20
171.628300
11
139.160104
21
171.432344
0
LINE
8
Sketch
10
139.160104
20
171.432344
11
138.366007
21
170.897834
0
LINE
8
Sketch
10
138.366007
20
170.897834
11
137.829909
21
170.104807
0
LINE
8
Sketch
10
137.829909
20
170.104807
11
137.632010
21
169.133300
0
LINE
8
Sketch
10
137.632010
20
169.133300
11
137.829909
21
168.161793
0
LINE
8
Sketch
10
137.829909
20
168.161793
11
138.366007
21
167.368766
0
LINE
8
Sketch
10
138.366007
20
167.368766
11
139.160104
21
166.834256
0
LINE
8
Sketch
10
139.160104
20
166.834256
11
140.132005
21
166.638300
0
LINE
8
Sketch
10
140.132005
20
166.638300
11
141.103906
21
166.834256
0
LINE
8
Sketch
10
141.103906
20
166.834256
11
141.898003
21
167.368766
0
LINE
8
Sketch
10
141.898003
20
167.368766
11
142.434101
21
168.161793
0
LINE
8
Sketch
10
142.434101
20
168.161793
11
142.632000
21
169.133300
0
LINE
8
Sketch
10
142.632000
20
169.133300
11
142.632000
21
169.133300
0
LINE
8
Sketch
10
67.632100
20
94.133400
11
67.434201
21
95.104907
0
LINE
8
Sketch
10
67.434201
20
95.104907
11
66.898103
21
95.897934
0
LINE
8
Sketch
10
66.898103
20
95.897934
11
66.104006
21
96.432444
0
LINE
8
Sketch
10
66.104006
20
96.432444
11
65.132105
21
96.628400
0
LINE
8
Sketch
10
65.132105
20
96.628400
11
64.160204
21
96.432444
0
LINE
8
Sketch
10
64.160204
20
96.432444
11
63.366107
21
95.897934
0
LINE
8
Sketch
10
63.366107
20
95.897934
11
62.830009
21
95.104907
0
LINE
8
Sketch
10
62.830009
20
95.104907
11
62.632110
21
94.133400
0
LINE
8
Sketch
10
62.632110
20
94.133400
11
62.830009
21
93.161893
0
LINE
8
Sketch
10
62.830009
20
93.161893
11
63.366107
21
92.368866
0
LINE
8
Sketch
10
63.366107
20
92.368866
11
64.160204
21
91.834356
0
LINE
8
Sketch
10
64.160204
20
91.834356
11
65.132105
21
91.638400
0
LINE
8
Sketch
10
65.132105
20
91.638400
11
66.104006
21
91.834356
0
LINE
8
Sketch
10
66.104006
20
91.834356
11
66.898103
21
92.368866
0
LINE
8
Sketch
10
66.898103
20
92.368866
11
67.434201
21
93.161893
0
LINE
8
Sketch
10
67.434201
20
93.161893
11
67.632100
21
94.133400
0
LINE
8
Sketch
10
67.632100
20
94.133400
11
67.632100
21
94.133400
0
LINE
8
Sketch
10
67.632100
20
169.133300
11
67.434201
21
170.104807
0
LINE
8
Sketch
10
67.434201
20
170.104807
11
66.898103
21
170.897834
0
LINE
8
Sketch
10
66.898103
20
170.897834
11
66.104006
21
171.432344
0
LINE
8
Sketch
10
66.104006
20
171.432344
11
65.132105
21
171.628300
0
LINE
8
Sketch
10
65.132105
20
171.628300
11
64.160204
21
171.432344
0
LINE
8
Sketch
10
64.160204
20
171.432344
11
63.366107
21
170.897834
0
LINE
8
Sketch
10
63.366107
20
170.897834
11
62.830009
21
170.104807
0
LINE
8
Sketch
10
62.830009
20
170.104807
11
62.632110
21
169.133300
0
LINE
8
Sketch
10
62.632110
20
169.133300
11
62.830009
21
168.161793
0
LINE
8
Sketch
10
62.830009
20
168.161793
11
63.366107
21
167.368766
0
LINE
8
Sketch
10
63.366107
20
167.368766
11
64.160204
21
166.834256
0
LINE
8
Sketch
10
64.160204
20
166.834256
11
65.132105
21
166.638300
0
LINE
8
Sketch
10
65.132105
20
166.638300
11
66.104006
21
166.834256
0
LINE
8
Sketch
10
66.104006
20
166.834256
11
66.898103
21
167.368766
0
LINE
8
Sketch
10
66.898103
20
167.368766
11
67.434201
21
168.161793
0
LINE
8
Sketch
10
67.434201
20
168.161793
11
67.632100
21
169.133300
0
LINE
8
Sketch
10
67.632100
20
169.133300
11
67.632100
21
169.133300
0
LINE
8
Sketch
10
200.132000
20
251.633000
11
205.132000
21
251.633000
0
LINE
8
Sketch
10
205.132000
20
251.633000
11
205.132000
21
236.633000
0
LINE
8
Sketch
10
205.132000
20
236.633000
11
200.132000
21
236.633000
0
LINE
8
Sketch
10
200.132000
20
206.633000
11
200.132000
21
236.633000
0
LINE
8
Sketch
10
200.132000
20
206.633000
11
205.132000
21
206.633000
0
LINE
8
Sketch
10
205.132000
20
206.633000
11
205.132000
21
191.633000
0
LINE
8
Sketch
10
205.132000
20
191.633000
11
200.132000
21
191.633000
0
LINE
8
Sketch
10
200.132000
20
161.634100
11
200.132000
21
191.633000
0
LINE
8
Sketch
10
200.132000
20
161.634100
11
205.132000
21
161.634000
0
LINE
8
Sketch
10
205.132000
20
161.634000
11
205.132000
21
146.633000
0
LINE
8
Sketch
10
205.132000
20
146.633000
11
200.132000
21
146.633000
0
LINE
8
Sketch
10
200.132000
20
116.634600
11
200.132000
21
146.633000
0
LINE
8
Sketch
10
200.132000
20
116.634600
11
205.132000
21
116.634000
0
LINE
8
Sketch
10
205.132000
20
116.634000
11
205.132000
21
101.632000
0
LINE
8
Sketch
10
205.132000
20
101.632000
11
200.132000
21
101.632000
0
LINE
8
Sketch
10
200.132000
20
71.633600
11
200.132000
21
101.632000
0
LINE
8
Sketch
10
200.132000
20
71.633600
11
205.132000
21
71.633800
0
LINE
8
Sketch
10
205.132000
20
71.633800
11
205.132000
21
56.634600
0
LINE
8
Sketch
10
205.132000
20
56.634600
11
200.132000
21
56.634600
0
LINE
8
Sketch
10
200.132000
20
26.633500
11
200.132000
21
56.634600
0
LINE
8
Sketch
10
200.132000
20
26.633500
11
205.132000
21
26.633500
0
LINE
8
Sketch
10
205.132000
20
26.633500
11
205.132000
21
11.634300
0
LINE
8
Sketch
10
205.132000
20
11.634300
11
200.132000
21
11.634300
0
LINE
8
Sketch
10
200.132000
20
0.132900
11
200.132000
21
11.634300
0
LINE
8
Sketch
10
151.132000
20
0.132900
11
200.132000
21
0.132894
0
LINE
8
Sketch
10
151.132000
20
44.133094
11
151.132000
21
0.132894
0
LINE
8
Sketch
10
54.132200
20
44.133094
11
151.132000
21
44.133000
0
LINE
8
Sketch
10
54.132200
20
0.132800
11
54.132100
21
44.133000
0
LINE
8
Sketch
10
5.132100
20
0.132800
11
54.132100
21
0.132894
0
LINE
8
Sketch
10
5.132100
20
11.634294
11
5.132110
21
0.132894
0
LINE
8
Sketch
10
0.132020
20
11.634294
11
5.132110
21
11.634300
0
LINE
8
Sketch
10
0.132020
20
26.633500
11
0.132017
21
11.634300
0
LINE
8
Sketch
10
5.132107
20
26.633500
11
0.132017
21
26.633500
0
LINE
8
Sketch
10
5.132107
20
56.634600
11
5.132110
21
26.633500
0
LINE
8
Sketch
10
0.132020
20
56.634600
11
5.132110
21
56.634600
0
LINE
8
Sketch
10
0.132020
20
71.633800
11
0.132017
21
56.634600
0
LINE
8
Sketch
10
5.132107
20
71.633800
11
0.132017
21
71.633800
0
LINE
8
Sketch
10
5.132107
20
101.632200
11
5.132110
21
71.633800
0
LINE
8
Sketch
10
0.132020
20
101.632200
11
5.132110
21
101.632000
0
LINE
8
Sketch
10
0.132020
20
116.633900
11
0.132017
21
101.632000
0
LINE
8
Sketch
10
5.132107
20
116.633900
11
0.132017
21
116.634000
0
LINE
8
Sketch
10
5.132107
20
146.632400
11
5.132110
21
116.634000
0
LINE
8
Sketch
10
0.132020
20
146.632400
11
5.132110
21
146.633000
0
LINE
8
Sketch
10
0.132020
20
161.634900
11
0.132017
21
146.633000
0
LINE
8
Sketch
10
5.132107
20
161.634900
11
0.132017
21
161.634000
0
LINE
8
Sketch
10
5.132107
20
191.632900
11
5.132110
21
161.634000
0
LINE
8
Sketch
10
0.132020
20
191.632900
11
5.132110
21
191.633000
0
LINE
8
Sketch
10
0.132020
20
206.633000
11
0.132017
21
191.633000
0
LINE
8
Sketch
10
5.132107
20
206.633000
11
0.132017
21
206.633000
0
LINE
8
Sketch
10
5.132107
20
236.633000
11
5.132110
21
206.633000
0
LINE
8
Sketch
10
0.132020
20
236.633000
11
5.132110
21
236.633000
0
LINE
8
Sketch
10
0.132020
20
251.633000
11
0.132017
21
236.633000
0
LINE
8
Sketch
10
5.132107
20
251.633000
11
0.132017
21
251.633000
0
LINE
8
Sketch
10
5.132107
20
263.132800
11
5.132110
21
251.633000
0
LINE
8
Sketch
10
200.132110
20
263.132800
11
5.132110
21
263.133000
0
LINE
8
Sketch
10
200.132110
20
251.633200
11
200.132000
21
263.133000
 0 
ENDSEC
 0 
EOF