<?xml version="1.0" encoding="UTF-8" standalone="no"?>
<svg
   viewBox="0 0 862.06852 1181.8772"
   width="862.06854"
   height="1181.8772"
   version="1.1"
   id="svg7823"
   sodipodi:docname="Cote10Portrait v1.svg"
   inkscape:version="1.2.2 (b0a84865, 2022-12-01)"
   xmlns:inkscape="http://www.inkscape.org/namespaces/inkscape"
   xmlns:sodipodi="http://sodipodi.sourceforge.net/DTD/sodipodi-0.dtd"
   xmlns="http://www.w3.org/2000/svg"
   xmlns:svg="http://www.w3.org/2000/svg">
  <sodipodi:namedview
     id="namedview7825"
     pagecolor="#ffffff"
     bordercolor="#000000"
     borderopacity="0.25"
     inkscape:showpageshadow="2"
     inkscape:pageopacity="0.0"
     inkscape:pagecheckerboard="0"
     inkscape:deskcolor="#d1d1d1"
     showgrid="false"
     inkscape:zoom="0.45878929"
     inkscape:cx="589.59527"
     inkscape:cy="561.25983"
     inkscape:window-width="1441"
     inkscape:window-height="696"
     inkscape:window-x="0"
     inkscape:window-y="37"
     inkscape:window-maximized="0"
     inkscape:current-layer="g7821" />
  <desc
     id="desc6577">Cote10Portrait v1.dxf - scale = 1.000000, origin = (0.000000, 0.000000), method = manual</desc>
  <defs
     id="defs6591">
    <marker
       id="DistanceX"
       orient="auto"
       refX="0"
       refY="0"
       style="overflow:visible">
      <path
         d="M 3,-3 -3,3 M 0,-5 V 5"
         style="stroke:#000000;stroke-width:0.5"
         id="path6579" />
    </marker>
    <pattern
       id="Hatch"
       patternUnits="userSpaceOnUse"
       width="8"
       height="8"
       x="0"
       y="0">
      <path
         d="M8 4 l-4,4"
         stroke="#000000"
         stroke-width="0.25"
         linecap="square"
         id="path6582" />
      <path
         d="M6 2 l-4,4"
         stroke="#000000"
         stroke-width="0.25"
         linecap="square"
         id="path6584" />
      <path
         d="M4 0 l-4,4"
         stroke="#000000"
         stroke-width="0.25"
         linecap="square"
         id="path6586" />
    </pattern>
    <symbol
       id="*MODEL_SPACE" />
    <symbol
       id="*PAPER_SPACE" />
  </defs>
  <g
     inkscape:groupmode="layer"
     inkscape:label="0"
     id="g6593"
     transform="translate(711.77662,58.856076)" />
  <g
     inkscape:groupmode="layer"
     inkscape:label="none"
     id="g6595"
     transform="translate(711.77662,58.856076)" />
  <g
     inkscape:groupmode="layer"
     inkscape:label="Body001"
     id="g7821"
     transform="translate(711.77662,58.856076)">
    <path
       id="path7819"
       style="fill:none;stroke:#000000"
       d="m -471.67,803.286 -28.346,49.098 m 44.715,-39.649 -16.369,-9.449 m -11.977,58.547 28.346,-49.098 m -44.715,39.649 16.369,9.449 m 97.016,-205.839 -28.346,49.096 m 44.714,-39.647 -16.368,-9.449 m -11.977,58.545 28.345,-49.096 m -44.714,39.647 16.369,9.449 m 97.019,-205.837 -28.347,49.096 m 44.712,-39.647 -16.365,-9.449 m -11.981,58.545 28.346,-49.096 m -44.712,39.647 16.366,9.449 m 68.674,-156.741 28.346,-49.096 m -11.981,58.545 -16.365,-9.449 m 44.712,-39.647 -28.347,49.096 m 11.981,-58.545 16.366,9.449 M -74.8176,115.922 -46.4712,66.8258 m -11.9807,58.5452 -16.3657,-9.449 m 44.7122,-39.6474 -28.3465,49.0964 m 11.9807,-58.5452 16.3658,9.4488 m -129.7516,186.9394 28.346,-49.096 m -11.98,58.545 -16.366,-9.449 m 44.712,-39.647 -28.346,49.096 m 11.98,-58.545 16.366,9.449 m -191.942,151.033 -23.385,40.506 m 0,0 13.092,7.559 m 10.293,-48.065 -16.365,-9.449 m 6.072,57.514 2.599,-4.502 m -8.671,-53.012 28.346,-49.096 m -19.675,102.108 13.092,7.559 m 6.583,-109.667 16.366,9.449 m -25.547,104.72 2.598,-4.502 m 22.949,-100.218 56.693,-98.196 m -69.147,210.475 -13.093,-7.559 m 82.24,-202.916 154.0155,-266.7625 m -233.0845,494.4225 9.922,-17.185 M -16.402205,-53.288519 a 37.795276,37.795276 0 0 0 -51.629306,13.834031 M -314.208,447.409 l 13.092,7.559 m 284.7138,-508.2556 49.0975,28.3465 m -349.5023,476.8521 2.599,-4.502 M 32.6953,-24.9411 23.2465,-8.57575 M -316.807,451.911 l -13.092,-7.56 M 23.2465,-8.57575 72.3439,19.7707 m -402.2429,424.5803 2.598,-4.501 M 72.3439,19.7707 81.7928,3.40535 M -340.394,432.291 l 13.093,7.559 M 81.7928,3.40535 130.89,31.7518 m -494.67,441.0442 23.386,-40.505 M 144.72436,83.380157 A 37.795276,37.795276 0 0 0 130.89033,31.750851 M -380.145,463.347 l 16.365,9.449 M 144.725,83.3802 -65.9841,448.339 m -342.5069,64.104 28.346,-49.096 m 314.1609,-15.008 16.3657,9.449 m -342.5076,64.104 -16.365,-9.449 m 358.8726,-54.655 -28.3464,49.096 m -370.8542,113.204 56.693,-98.196 m 314.1612,-15.008 -16.3658,-9.449 M -560.315,813.205 -448.819,620.088 M -94.3306,497.435 -117.716,537.94 m -442.599,275.265 -16.365,-9.448 m 442.597,-275.266 16.367,9.449 m -458.964,265.817 -28.347,49.097 m 470.944,-324.363 2.599,-4.501 m -473.543,328.864 16.366,9.449 m 457.177,-338.313 -13.093,-7.559 m -467.472,386.377 23.388,-40.505 m 441.486,-341.371 2.598,-4.501 m -454.376,393.936 -13.096,-7.559 m 455.054,-387.545 9.82,5.669 m -449.182,384.935 -2.596,4.5 m 432.037,-377.918 9.921,-17.186 m -426.269,398.163 -13.093,-7.559 m 439.261,-367.749 -9.82,-5.669 m -418.945,385.477 2.597,-4.5 m 423.569,-370.807 2.599,-4.501 m -415.673,387.367 -13.092,-7.559 m 426.166,-375.307 13.093,7.559 m -436.088,392.492 9.921,-17.185 m 426.167,-375.307 2.598,-4.501 m -451.778,389.434 13.092,7.559 m 438.686,-396.993 16.366,9.449 m -470.744,384.485 2.6,-4.5 m 468.144,-379.985 -23.385,40.505 m -460.452,336.421 13.093,7.559 m 447.359,-343.98 16.365,9.449 m -474.216,322.472 -2.601,4.5 m 476.817,-326.972 -28.346,49.096 m -458.966,265.817 13.096,7.559 m 445.87,-273.376 -16.366,-9.449 m -465.984,315.771 23.384,-40.505 m 442.6,-275.266 -51.968,90.013 m -414.016,225.758 -16.366,-9.449 M -231.33845,734.73985 A 252.05291,252.05291 0 0 0 -32.731581,1084.7244 M -661.72,951.049 l -28.346,49.101 m 657.3343,65.68 v 18.89 m -657.3343,-84.57 16.365,9.45 M 0,1084.72 -32.7317,1065.83 m -673.4353,0 32.466,-56.23 M 0,1111.18 v -26.46 m -706.16411,-18.8932 a 37.795276,37.795276 0 0 0 32.73167,56.6929 m 662.093857,0 A 11.338583,11.338583 0 0 0 0,1111.1811 M -11.3386,1122.52 H -673.432 m 201.762,-319.234 -28.346,49.098 m 28.346,-49.098 -28.346,49.098 m 0,0 v 0 m 28.346,-49.098 v 0 m 16.369,9.449 -16.369,-9.449 m 16.369,9.449 -16.369,-9.449 m 0,0 v 0 m 16.369,9.449 v 0 m -28.346,49.098 28.346,-49.098 m -28.346,49.098 28.346,-49.098 m 0,0 v 0 m -28.346,49.098 v 0 m -16.369,-9.449 16.369,9.449 m -16.369,-9.449 16.369,9.449 m 0,0 v 0 m -16.369,-9.449 v 0 m 113.385,-196.39 -28.346,49.096 m 28.346,-49.096 -28.346,49.096 m 0,0 v 0 m 28.346,-49.096 v 0 m 16.368,9.449 -16.368,-9.449 m 16.368,9.449 -16.368,-9.449 m 0,0 v 0 m 16.368,9.449 v 0 m -28.345,49.096 28.345,-49.096 m -28.345,49.096 28.345,-49.096 m 0,0 v 0 m -28.345,49.096 v 0 m -16.369,-9.449 16.369,9.449 m -16.369,-9.449 16.369,9.449 m 0,0 v 0 m -16.369,-9.449 v 0 m 113.388,-196.388 -28.347,49.096 m 28.347,-49.096 -28.347,49.096 m 0,0 v 0 m 28.347,-49.096 v 0 m 16.365,9.449 -16.365,-9.449 m 16.365,9.449 -16.365,-9.449 m 0,0 v 0 m 16.365,9.449 v 0 m -28.346,49.096 28.346,-49.096 m -28.346,49.096 28.346,-49.096 m 0,0 v 0 m -28.346,49.096 v 0 m -16.366,-9.449 16.366,9.449 m -16.366,-9.449 16.366,9.449 m 0,0 v 0 m -16.366,-9.449 v 0 m 85.04,-147.292 28.346,-49.096 m -28.346,49.096 28.346,-49.096 m 0,0 v 0 m -28.346,49.096 v 0 m 16.365,9.449 -16.365,-9.449 m 16.365,9.449 -16.365,-9.449 m 0,0 v 0 m 16.365,9.449 v 0 m 28.347,-49.096 -28.347,49.096 m 28.347,-49.096 -28.347,49.096 m 0,0 v 0 m 28.347,-49.096 v 0 m -16.366,-9.449 16.366,9.449 m -16.366,-9.449 16.366,9.449 m 0,0 v 0 m -16.366,-9.449 v 0 M -74.8176,115.922 -46.4712,66.8258 m -28.3464,49.0962 28.3464,-49.0962 m 0,0 v 0 m -28.3464,49.0962 v 0 m 16.3657,9.449 -16.3657,-9.449 m 16.3657,9.449 -16.3657,-9.449 m 0,0 v 0 m 16.3657,9.449 v 0 m 28.3465,-49.0964 -28.3465,49.0964 m 28.3465,-49.0964 -28.3465,49.0964 m 0,0 v 0 m 28.3465,-49.0964 v 0 m -16.3658,-9.4488 16.3658,9.4488 m -16.3658,-9.4488 16.3658,9.4488 m 0,0 v 0 m -16.3658,-9.4488 v 0 m -113.3858,196.3882 28.346,-49.096 m -28.346,49.096 28.346,-49.096 m 0,0 v 0 m -28.346,49.096 v 0 m 16.366,9.449 -16.366,-9.449 m 16.366,9.449 -16.366,-9.449 m 0,0 v 0 m 16.366,9.449 v 0 m 28.346,-49.096 -28.346,49.096 m 28.346,-49.096 -28.346,49.096 m 0,0 v 0 m 28.346,-49.096 v 0 m -16.366,-9.449 16.366,9.449 m -16.366,-9.449 16.366,9.449 m 0,0 v 0 m -16.366,-9.449 v 0 m -175.576,160.482 -23.385,40.506 m 23.385,-40.506 -23.385,40.506 m 0,0 v 0 m 23.385,-40.506 v 0 m -23.385,40.506 13.092,7.559 m -13.092,-7.559 13.092,7.559 m 0,0 v 0 m -13.092,-7.559 v 0 m 23.385,-40.506 -16.365,-9.449 m 16.365,9.449 -16.365,-9.449 m 0,0 v 0 m 16.365,9.449 v 0 m -10.293,48.065 2.599,-4.502 m -2.599,4.502 2.599,-4.502 m 0,0 v 0 m -2.599,4.502 v 0 m -6.072,-57.514 28.346,-49.096 m -28.346,49.096 28.346,-49.096 m 0,0 v 0 m -28.346,49.096 v 0 m 8.671,53.012 13.092,7.559 m -13.092,-7.559 13.092,7.559 m 0,0 v 0 m -13.092,-7.559 v 0 m 19.675,-102.108 16.366,9.449 m -16.366,-9.449 16.366,9.449 m 0,0 v 0 m -16.366,-9.449 v 0 m -9.181,114.169 2.598,-4.502 m -2.598,4.502 2.598,-4.502 m 0,0 v 0 m -2.598,4.502 v 0 m 25.547,-104.72 56.693,-98.196 m -56.693,98.196 56.693,-98.196 m 0,0 v 0 m -56.693,98.196 v 0 m -12.454,112.279 -13.093,-7.559 m 13.093,7.559 -13.093,-7.559 m 0,0 v 0 m 13.093,7.559 v 0 M -222.047,227.308 -68.0315,-39.4545 M -222.047,227.308 v 0 M -68.0315,-39.4545 v 0 M -222.047,227.308 -68.0315,-39.4545 m -233.0845,494.4225 9.922,-17.185 m -9.922,17.185 9.922,-17.185 m 0,0 v 0 m -9.922,17.185 v 0 M -16.402205,-53.288519 a 37.795276,37.795276 0 0 0 -51.629306,13.834031 M -16.4022,-53.2876 v 0 m -51.6293,13.8331 v 0 m 51.629295,-13.834019 a 37.795276,37.795276 0 0 0 -51.629306,13.834031 M -314.208,447.409 l 13.092,7.559 m -13.092,-7.559 13.092,7.559 m 0,0 v 0 m -13.092,-7.559 v 0 m 297.8058,-500.6966 49.0975,28.3465 m 0,0 v 0 m -49.0975,-28.3465 v 0 m 0,0 49.0975,28.3465 m -349.5023,476.8521 2.599,-4.502 m -2.599,4.502 2.599,-4.502 m 0,0 v 0 m -2.599,4.502 v 0 M 32.6953,-24.9411 23.2465,-8.57575 m 9.4488,-16.36535 -9.4488,16.36535 m 0,0 v 0 m 9.4488,-16.36535 v 0 m -349.5023,476.8521 -13.092,-7.56 m 13.092,7.56 -13.092,-7.56 m 0,0 v 0 m 13.092,7.56 v 0 M 23.2465,-8.57575 72.3439,19.7707 M 23.2465,-8.57575 72.3439,19.7707 m 0,0 v 0 M 23.2465,-8.57575 v 0 M -329.899,444.351 l 2.598,-4.501 m -2.598,4.501 2.598,-4.501 m 0,0 v 0 m -2.598,4.501 v 0 M 72.3439,19.7707 81.7928,3.40535 M 72.3439,19.7707 81.7928,3.40535 m 0,0 v 0 M 72.3439,19.7707 v 0 m -412.7379,412.5203 13.093,7.559 m -13.093,-7.559 13.093,7.559 m 0,0 v 0 m -13.093,-7.559 v 0 M 81.7928,3.40535 130.89,31.7518 M 81.7928,3.40535 v 0 M 130.89,31.7518 v 0 M 81.7928,3.40535 130.89,31.7518 m -494.67,441.0442 23.386,-40.505 m -23.386,40.505 23.386,-40.505 m 0,0 v 0 m -23.386,40.505 v 0 M 144.72436,83.380157 A 37.795276,37.795276 0 0 0 130.89033,31.750851 M 144.725,83.3802 v 0 M 130.89,31.7518 v 0 m 13.83436,51.628357 A 37.795276,37.795276 0 0 0 130.89033,31.750851 M -380.145,463.347 l 16.365,9.449 m -16.365,-9.449 16.365,9.449 m 0,0 v 0 m -16.365,-9.449 v 0 M 144.725,83.3802 -65.9841,448.339 m 0,0 v 0 M 144.725,83.3802 v 0 m 0,0 -210.7091,364.9588 m -342.5069,64.104 28.346,-49.096 m -28.346,49.096 28.346,-49.096 m 0,0 v 0 m -28.346,49.096 v 0 m 342.5069,-64.104 16.3657,9.449 m -16.3657,-9.449 16.3657,9.449 m 0,0 v 0 m -16.3657,-9.449 v 0 m -326.1419,73.553 -16.365,-9.449 m 16.365,9.449 -16.365,-9.449 m 0,0 v 0 m 16.365,9.449 v 0 m 342.5076,-64.104 -28.3464,49.096 m 28.3464,-49.096 -28.3464,49.096 m 0,0 v 0 m 28.3464,-49.096 v 0 m -399.2006,162.3 56.693,-98.196 m -56.693,98.196 56.693,-98.196 m 0,0 v 0 m -56.693,98.196 v 0 m 370.8542,-113.204 -16.3658,-9.449 m 16.3658,9.449 -16.3658,-9.449 m 0,0 v 0 m 16.3658,9.449 v 0 M -560.315,813.205 -448.819,620.088 m -111.496,193.117 111.496,-193.117 m 0,0 v 0 m -111.496,193.117 v 0 m 465.9844,-315.77 -23.3854,40.505 m 23.3854,-40.505 -23.3854,40.505 m 0,0 v 0 m 23.3854,-40.505 v 0 m -465.9844,315.77 -16.365,-9.448 m 16.365,9.448 -16.365,-9.448 m 0,0 v 0 m 16.365,9.448 v 0 m 426.232,-284.714 16.367,9.449 m -16.367,-9.449 16.367,9.449 m 0,0 v 0 m -16.367,-9.449 v 0 m -442.597,275.266 -28.347,49.097 m 28.347,-49.097 -28.347,49.097 m 0,0 v 0 m 28.347,-49.097 v 0 m 442.597,-275.266 2.599,-4.501 m -2.599,4.501 2.599,-4.501 m 0,0 v 0 m -2.599,4.501 v 0 m -470.944,324.363 16.366,9.449 m -16.366,-9.449 16.366,9.449 m 0,0 v 0 m -16.366,-9.449 v 0 m 473.543,-328.864 -13.093,-7.559 m 13.093,7.559 -13.093,-7.559 m 0,0 v 0 m 13.093,7.559 v 0 m -480.565,378.818 23.388,-40.505 m -23.388,40.505 23.388,-40.505 m 0,0 v 0 m -23.388,40.505 v 0 m 464.874,-381.876 2.598,-4.501 m -2.598,4.501 2.598,-4.501 m 0,0 v 0 m -2.598,4.501 v 0 m -451.778,389.435 -13.096,-7.559 m 13.096,7.559 -13.096,-7.559 m 0,0 v 0 m 13.096,7.559 v 0 m 441.958,-395.104 9.82,5.669 m -9.82,-5.669 9.82,5.669 m 0,0 v 0 m -9.82,-5.669 v 0 m -439.362,390.604 -2.596,4.5 m 2.596,-4.5 -2.596,4.5 m 0,0 v 0 m 2.596,-4.5 v 0 m 429.441,-373.418 9.921,-17.186 m -9.921,17.186 9.921,-17.186 m 0,0 v 0 m -9.921,17.186 v 0 m -416.348,380.977 -13.093,-7.559 m 13.093,7.559 -13.093,-7.559 m 0,0 v 0 m 13.093,7.559 v 0 m 426.168,-375.308 -9.82,-5.669 m 9.82,5.669 -9.82,-5.669 m 0,0 v 0 m 9.82,5.669 v 0 m -428.765,379.808 2.597,-4.5 m -2.597,4.5 2.597,-4.5 m 0,0 v 0 m -2.597,4.5 v 0 m 426.166,-375.307 2.599,-4.501 m -2.599,4.501 2.599,-4.501 m 0,0 v 0 m -2.599,4.501 v 0 m -413.074,382.866 -13.092,-7.559 m 13.092,7.559 -13.092,-7.559 m 0,0 v 0 m 13.092,7.559 v 0 m 413.074,-382.866 13.093,7.559 m -13.093,-7.559 13.093,7.559 m 0,0 v 0 m -13.093,-7.559 v 0 m -422.995,400.051 9.921,-17.185 m -9.921,17.185 9.921,-17.185 m 0,0 v 0 m -9.921,17.185 v 0 m 436.088,-392.492 2.598,-4.501 m -2.598,4.501 2.598,-4.501 m 0,0 v 0 m -2.598,4.501 v 0 m -449.18,384.933 13.092,7.559 m -13.092,-7.559 13.092,7.559 m 0,0 v 0 m -13.092,-7.559 v 0 m 451.778,-389.434 16.366,9.449 m -16.366,-9.449 16.366,9.449 m 0,0 v 0 m -16.366,-9.449 v 0 m -454.378,393.934 2.6,-4.5 m -2.6,4.5 2.6,-4.5 m 0,0 v 0 m -2.6,4.5 v 0 m 470.744,-384.485 -23.385,40.505 m 23.385,-40.505 -23.385,40.505 m 0,0 v 0 m 23.385,-40.505 v 0 m -483.837,376.926 13.093,7.559 m -13.093,-7.559 13.093,7.559 m 0,0 v 0 m -13.093,-7.559 v 0 m 460.452,-336.421 16.365,9.449 m -16.365,-9.449 16.365,9.449 m 0,0 v 0 m -16.365,-9.449 v 0 m -457.851,331.921 -2.601,4.5 m 2.601,-4.5 -2.601,4.5 m 0,0 v 0 m 2.601,-4.5 v 0 m 474.216,-322.472 -28.346,49.096 m 28.346,-49.096 -28.346,49.096 m 0,0 v 0 m 28.346,-49.096 v 0 m -487.312,314.913 13.096,7.559 m -13.096,-7.559 13.096,7.559 m 0,0 v 0 m -13.096,-7.559 v 0 m 458.966,-265.817 -16.366,-9.449 m 16.366,9.449 -16.366,-9.449 m 0,0 v 0 m 16.366,9.449 v 0 m -482.35,306.322 23.384,-40.505 m -23.384,40.505 23.384,-40.505 m 0,0 v 0 m -23.384,40.505 v 0 m 465.984,-315.771 -51.968,90.013 m 51.968,-90.013 -51.968,90.013 m 0,0 v 0 m 51.968,-90.013 v 0 m -465.984,315.771 -16.366,-9.449 m 16.366,9.449 -16.366,-9.449 m 0,0 v 0 m 16.366,9.449 v 0 M -231.33845,734.73985 A 252.05291,252.05291 0 0 0 -32.731581,1084.7244 M -231.33845,734.73985 a 252.05291,252.05291 0 0 0 198.606869,349.98455 m -1.19e-4,0 v 0 M -231.338,734.74 v 0 m -430.382,216.309 -28.346,49.101 m 28.346,-49.101 -28.346,49.101 m 0,0 v 0 m 28.346,-49.101 v 0 m 628.9883,114.781 v 18.89 m 0,-18.89 v 18.89 m 0,0 v 0 m 0,-18.89 v 0 m -657.3343,-65.68 16.365,9.45 m -16.365,-9.45 16.365,9.45 m 0,0 v 0 m -16.365,-9.45 v 0 M 0,1084.72 -32.7317,1065.83 M 0,1084.72 -32.7317,1065.83 m 0,0 v 0 M 0,1084.72 v 0 m -706.167,-18.89 32.466,-56.23 m 0,0 v 0 m -32.466,56.23 v 0 m 0,0 32.466,-56.23 M 0,1111.18 v -26.46 m 0,0 v 0 m 0,26.46 v 0 m 0,0 v -26.46 m -706.16411,-18.8932 a 37.795276,37.795276 0 0 0 32.73167,56.6929 M -706.167,1065.83 v 0 m 32.735,56.69 v 0 m -32.73211,-56.6932 a 37.795276,37.795276 0 0 0 32.73167,56.6929 m 662.093857,0 A 11.338583,11.338583 0 0 0 0,1111.1811 m 0,0 v 0 m -11.3386,11.34 v 0 m 1.7e-5,-3e-4 A 11.338583,11.338583 0 0 0 0,1111.1811 M -11.3386,1122.52 H -673.432 m 0,0 v 0 m 662.0934,0 v 0 m 0,0 H -673.432 m 201.762,-319.234 -28.346,49.098 m 44.715,-39.649 -16.369,-9.449 m -11.977,58.547 28.346,-49.098 m -44.715,39.649 16.369,9.449 m 97.016,-205.839 -28.346,49.096 m 44.714,-39.647 -16.368,-9.449 m -11.977,58.545 28.345,-49.096 m -44.714,39.647 16.369,9.449 m 97.019,-205.837 -28.347,49.096 m 44.712,-39.647 -16.365,-9.449 m -11.981,58.545 28.346,-49.096 m -44.712,39.647 16.366,9.449 m 68.674,-156.741 28.346,-49.096 m -11.981,58.545 -16.365,-9.449 m 44.712,-39.647 -28.347,49.096 m 11.981,-58.545 16.366,9.449 M -74.8176,115.922 -46.4712,66.8258 m -11.9807,58.5452 -16.3657,-9.449 m 44.7122,-39.6474 -28.3465,49.0964 m 11.9807,-58.5452 16.3658,9.4488 m -129.7516,186.9394 28.346,-49.096 m -11.98,58.545 -16.366,-9.449 m 44.712,-39.647 -28.346,49.096 m 11.98,-58.545 16.366,9.449 m -191.942,151.033 -23.385,40.506 m 0,0 13.092,7.559 m 10.293,-48.065 -16.365,-9.449 m 6.072,57.514 2.599,-4.502 m -8.671,-53.012 28.346,-49.096 m -19.675,102.108 13.092,7.559 m 6.583,-109.667 16.366,9.449 m -25.547,104.72 2.598,-4.502 m 22.949,-100.218 56.693,-98.196 m -69.147,210.475 -13.093,-7.559 m 82.24,-202.916 154.0155,-266.7625 m -233.0845,494.4225 9.922,-17.185 M -16.402205,-53.288519 a 37.795276,37.795276 0 0 0 -51.629306,13.834031 M -314.208,447.409 l 13.092,7.559 m 284.7138,-508.2556 49.0975,28.3465 m -349.5023,476.8521 2.599,-4.502 M 32.6953,-24.9411 23.2465,-8.57575 M -316.807,451.911 l -13.092,-7.56 M 23.2465,-8.57575 72.3439,19.7707 m -402.2429,424.5803 2.598,-4.501 M 72.3439,19.7707 81.7928,3.40535 M -340.394,432.291 l 13.093,7.559 M 81.7928,3.40535 130.89,31.7518 m -494.67,441.0442 23.386,-40.505 M 144.72436,83.380157 A 37.795276,37.795276 0 0 0 130.89033,31.750851 M -380.145,463.347 l 16.365,9.449 M 144.725,83.3802 -65.9841,448.339 m -342.5069,64.104 28.346,-49.096 m 314.1609,-15.008 16.3657,9.449 m -342.5076,64.104 -16.365,-9.449 m 358.8726,-54.655 -28.3464,49.096 m -370.8542,113.204 56.693,-98.196 m 314.1612,-15.008 -16.3658,-9.449 M -560.315,813.205 -448.819,620.088 M -94.3306,497.435 -117.716,537.94 m -442.599,275.265 -16.365,-9.448 m 442.597,-275.266 16.367,9.449 m -458.964,265.817 -28.347,49.097 m 470.944,-324.363 2.599,-4.501 m -473.543,328.864 16.366,9.449 m 457.177,-338.313 -13.093,-7.559 m -467.472,386.377 23.388,-40.505 m 441.486,-341.371 2.598,-4.501 m -454.376,393.936 -13.096,-7.559 m 455.054,-387.545 9.82,5.669 m -449.182,384.935 -2.596,4.5 m 432.037,-377.918 9.921,-17.186 m -426.269,398.163 -13.093,-7.559 m 439.261,-367.749 -9.82,-5.669 m -418.945,385.477 2.597,-4.5 m 423.569,-370.807 2.599,-4.501 m -415.673,387.367 -13.092,-7.559 m 426.166,-375.307 13.093,7.559 m -436.088,392.492 9.921,-17.185 m 426.167,-375.307 2.598,-4.501 m -451.778,389.434 13.092,7.559 m 438.686,-396.993 16.366,9.449 m -470.744,384.485 2.6,-4.5 m 468.144,-379.985 -23.385,40.505 m -460.452,336.421 13.093,7.559 m 447.359,-343.98 16.365,9.449 m -474.216,322.472 -2.601,4.5 m 476.817,-326.972 -28.346,49.096 m -458.966,265.817 13.096,7.559 m 445.87,-273.376 -16.366,-9.449 m -465.984,315.771 23.384,-40.505 m 442.6,-275.266 -51.968,90.013 m -414.016,225.758 -16.366,-9.449 M -231.33845,734.73985 A 252.05291,252.05291 0 0 0 -32.731581,1084.7244 M -661.72,951.049 l -28.346,49.101 m 657.3343,65.68 v 18.89 m -657.3343,-84.57 16.365,9.45 M 0,1084.72 -32.7317,1065.83 m -673.4353,0 32.466,-56.23 M 0,1111.18 v -26.46 m -706.16411,-18.8932 a 37.795276,37.795276 0 0 0 32.73167,56.6929 m 662.093857,0 A 11.338583,11.338583 0 0 0 0,1111.1811 M -11.3386,1122.52 H -673.432" />
  </g>
</svg>
