<?xml version="1.0" encoding="UTF-8" standalone="no"?>
<svg
   viewBox="0 0 832.49601 1437.221"
   width="832.49603"
   height="1437.2209"
   version="1.1"
   id="svg352"
   sodipodi:docname="FA10Portrait.svg"
   inkscape:version="1.2.2 (b0a84865, 2022-12-01)"
   xmlns:inkscape="http://www.inkscape.org/namespaces/inkscape"
   xmlns:sodipodi="http://sodipodi.sourceforge.net/DTD/sodipodi-0.dtd"
   xmlns="http://www.w3.org/2000/svg"
   xmlns:svg="http://www.w3.org/2000/svg">
  <sodipodi:namedview
     id="namedview354"
     pagecolor="#ffffff"
     bordercolor="#000000"
     borderopacity="0.25"
     inkscape:showpageshadow="2"
     inkscape:pageopacity="0.0"
     inkscape:pagecheckerboard="0"
     inkscape:deskcolor="#d1d1d1"
     showgrid="false"
     inkscape:zoom="0.21024131"
     inkscape:cx="815.72932"
     inkscape:cy="604.06778"
     inkscape:window-width="1441"
     inkscape:window-height="417"
     inkscape:window-x="0"
     inkscape:window-y="37"
     inkscape:window-maximized="0"
     inkscape:current-layer="g350" />
  <desc
     id="desc214">FA10Portrait.dxf - scale = 1.000000, origin = (0.000000, 0.000000), method = manual</desc>
  <defs
     id="defs228">
    <marker
       id="DistanceX"
       orient="auto"
       refX="0"
       refY="0"
       style="overflow:visible">
      <path
         d="M 3,-3 -3,3 M 0,-5 V 5"
         style="stroke:#000000;stroke-width:0.5"
         id="path216" />
    </marker>
    <pattern
       id="Hatch"
       patternUnits="userSpaceOnUse"
       width="8"
       height="8"
       x="0"
       y="0">
      <path
         d="M8 4 l-4,4"
         stroke="#000000"
         stroke-width="0.25"
         linecap="square"
         id="path219" />
      <path
         d="M6 2 l-4,4"
         stroke="#000000"
         stroke-width="0.25"
         linecap="square"
         id="path221" />
      <path
         d="M4 0 l-4,4"
         stroke="#000000"
         stroke-width="0.25"
         linecap="square"
         id="path223" />
    </pattern>
    <symbol
       id="*MODEL_SPACE" />
    <symbol
       id="*PAPER_SPACE" />
  </defs>
  <g
     inkscape:groupmode="layer"
     inkscape:label="0"
     id="g230"
     transform="translate(416.24803,314.201)" />
  <g
     inkscape:groupmode="layer"
     inkscape:label="none"
     id="g232"
     transform="translate(416.24803,314.201)" />
  <g
     inkscape:groupmode="layer"
     inkscape:label="Sketch"
     id="g350"
     transform="translate(416.24803,314.201)">
    <path
       id="path348"
       style="fill:none;stroke:#000000"
       d="m 368.504,935.433 v 56.693 m 18.898,-56.693 h -18.898 m 18.898,56.693 v -56.693 m -18.898,56.693 h 18.898 M 368.504,822.047 v -56.693 m 18.898,56.693 h -18.898 m 18.898,-56.693 v 56.693 m -18.898,-56.693 h 18.898 m 0.47202,113.38616 a 9.92126,9.92126 0 0 0 -19.84252,0 9.92126,9.92126 0 0 0 19.84252,0 z M -387.402,935.433 v 56.693 m 18.898,-56.693 h -18.898 m 18.898,56.693 v -56.693 m -18.898,56.693 h 18.898 m -18.898,-170.079 v -56.693 m 18.898,56.693 h -18.898 m 18.898,-56.693 v 56.693 m -18.898,-56.693 h 18.898 m 0.4725,113.38616 a 9.92126,9.92126 0 0 0 -19.84252,0 9.92126,9.92126 0 0 0 19.84252,0 z M 387.402,372.283 v 56.693 m -18.898,-56.693 h 18.898 m -18.898,56.693 v -56.693 m 18.898,56.693 h -18.898 m 18.898,-170.078 v -56.693 m -18.898,56.693 h 18.898 m -18.898,-56.693 v 56.693 m 18.898,-56.693 h -18.898 m -755.906,170.078 v 56.693 m 18.898,-56.693 h -18.898 m 18.898,56.693 v -56.693 m -18.898,56.693 h 18.898 m -18.898,-170.078 v -56.693 m 18.898,56.693 h -18.898 m 18.898,-56.693 v 56.693 m -18.898,-56.693 h 18.898 m 568.819,-440.693 v -18.898 m -56.693,18.898 h 56.693 m -56.693,-18.898 v 18.898 m 56.693,-18.898 h -56.693 m -343.937,18.898 v -18.898 m 56.693,18.898 h -56.693 m 56.693,-18.898 v 18.898 m -56.693,-18.898 h 56.693 m 531.49602,572.97655 a 9.92126,9.92126 0 0 0 -19.84252,0 9.92126,9.92126 0 0 0 19.84252,0 z m -755.90552,0 a 9.92126,9.92126 0 0 0 -19.84252,0 9.92126,9.92126 0 0 0 19.84252,0 z M 9.92126,878.74016 a 9.92126,9.92126 0 0 0 -19.84252,0 9.92126,9.92126 0 0 0 19.84252,0 z m 0,-1126.29921 a 9.92126,9.92126 0 0 0 -19.84252,0 9.92126,9.92126 0 0 0 19.84252,0 z M -343.937,812.598 v -994.015 m 687.874,994.015 h -687.874 m 687.874,-994.015 v 994.015 m -687.874,-994.015 h 687.874 m 34.01576,1303.9367 a 37.795276,37.795276 0 0 0 37.79527,-37.7953 M -377.953,1122.52 h 755.906 m -793.70103,-37.7956 a 37.795276,37.795276 0 0 0 37.79527,37.7953 M -415.748,-275.906 V 1084.72 m 37.79524,-1398.42079 a 37.795276,37.795276 0 0 0 -37.79527,37.79528 M 377.953,-313.701 h -755.906 m 793.70103,37.79549 a 37.795276,37.795276 0 0 0 -37.79527,-37.79528 M 415.748,1084.72 V -275.906" />
  </g>
</svg>
