<?xml version="1.0" encoding="UTF-8" standalone="no"?>
<svg
   viewBox="0 0 775.804 284.46302"
   width="775.80402"
   height="284.46301"
   version="1.1"
   id="svg3404"
   sodipodi:docname="Haut10Portrait.svg"
   inkscape:version="1.2.2 (b0a84865, 2022-12-01)"
   xmlns:inkscape="http://www.inkscape.org/namespaces/inkscape"
   xmlns:sodipodi="http://sodipodi.sourceforge.net/DTD/sodipodi-0.dtd"
   xmlns="http://www.w3.org/2000/svg"
   xmlns:svg="http://www.w3.org/2000/svg">
  <sodipodi:namedview
     id="namedview3406"
     pagecolor="#ffffff"
     bordercolor="#000000"
     borderopacity="0.25"
     inkscape:showpageshadow="2"
     inkscape:pageopacity="0.0"
     inkscape:pagecheckerboard="0"
     inkscape:deskcolor="#d1d1d1"
     showgrid="false"
     inkscape:zoom="0.21024131"
     inkscape:cx="511.31721"
     inkscape:cy="142.69318"
     inkscape:window-width="1441"
     inkscape:window-height="417"
     inkscape:window-x="0"
     inkscape:window-y="37"
     inkscape:window-maximized="0"
     inkscape:current-layer="g3402" />
  <desc
     id="desc3278">Haut10Portrait.dxf - scale = 1.000000, origin = (0.000000, 0.000000), method = manual</desc>
  <defs
     id="defs3292">
    <marker
       id="DistanceX"
       orient="auto"
       refX="0"
       refY="0"
       style="overflow:visible">
      <path
         d="M 3,-3 -3,3 M 0,-5 V 5"
         style="stroke:#000000;stroke-width:0.5"
         id="path3280" />
    </marker>
    <pattern
       id="Hatch"
       patternUnits="userSpaceOnUse"
       width="8"
       height="8"
       x="0"
       y="0">
      <path
         d="M8 4 l-4,4"
         stroke="#000000"
         stroke-width="0.25"
         linecap="square"
         id="path3283" />
      <path
         d="M6 2 l-4,4"
         stroke="#000000"
         stroke-width="0.25"
         linecap="square"
         id="path3285" />
      <path
         d="M4 0 l-4,4"
         stroke="#000000"
         stroke-width="0.25"
         linecap="square"
         id="path3287" />
    </pattern>
    <symbol
       id="*MODEL_SPACE" />
    <symbol
       id="*PAPER_SPACE" />
  </defs>
  <g
     inkscape:groupmode="layer"
     inkscape:label="0"
     id="g3294"
     transform="translate(387.902,-980.287)" />
  <g
     inkscape:groupmode="layer"
     inkscape:label="none"
     id="g3296"
     transform="translate(387.902,-980.287)" />
  <g
     inkscape:groupmode="layer"
     inkscape:label="Sketch"
     id="g3402"
     transform="translate(387.902,-980.287)">
    <path
       id="path3400"
       style="fill:none;stroke:#000000"
       d="m -368.504,1094.17 v -94.485 m 0,94.485 h -18.898 m 0,0 v 56.7 m 0,0 h 18.898 m 0,94.48 v -94.48 m 168.189,94.48 h -168.189 m 168.189,18.9 v -18.9 m 56.693,18.9 h -56.693 m 56.693,-18.9 v 18.9 m 133.70074,-18.9 H -143.622 m 133.70074,-18.89 v 18.89 m -5.19684,-18.89 h 5.19684 m -5.19684,-15.12 v 15.12 m 5.19684,-15.12 H -15.1181 M -9.92126,1200 v 11.34 M 9.92126,1200 H -9.92126 m 19.84252,11.34 V 1200 m 5.19684,11.34 H 9.92126 m 5.19684,15.12 v -15.12 m -5.19684,15.12 h 5.19684 m -5.19684,18.89 v -18.89 M 143.622,1245.35 H 9.92126 m 133.70074,18.9 v -18.9 m 56.693,18.9 h -56.693 m 56.693,-18.9 v 18.9 m 168.189,-18.9 H 200.315 m 168.189,-94.48 v 94.48 m 18.898,-94.48 h -18.898 m 18.898,-56.7 v 56.7 m -18.898,-56.7 h 18.898 m -18.898,-94.485 v 94.485 M 200.315,999.685 H 368.504 M 200.315,980.787 v 18.898 m -56.693,-18.898 h 56.693 m -56.693,18.898 V 980.787 M 9.92126,999.685 H 143.622 M 9.92126,1018.58 v -18.895 m 5.19684,18.895 H 9.92126 m 5.19684,15.12 v -15.12 m -5.19684,15.12 h 5.19684 m -5.19684,11.34 v -11.34 m -19.84252,11.34 H 9.92126 M -9.92126,1033.7 v 11.34 m -5.19684,-11.34 h 5.19684 m -5.19684,-15.12 v 15.12 m 5.19684,-15.12 h -5.19684 m 5.19684,-18.895 v 18.895 M -143.622,999.685 H -9.92126 M -143.622,980.787 v 18.898 m -56.693,-18.898 h 56.693 m -56.693,18.898 v -18.898 m -168.189,18.898 h 168.189" />
  </g>
</svg>
