<?xml version="1.0" encoding="UTF-8" standalone="no"?>
<svg
   viewBox="0 0 775.804 995.01803"
   width="775.80402"
   height="995.01801"
   version="1.1"
   id="svg674"
   sodipodi:docname="Vesa10Portrait.svg"
   inkscape:version="1.2.2 (b0a84865, 2022-12-01)"
   xmlns:inkscape="http://www.inkscape.org/namespaces/inkscape"
   xmlns:sodipodi="http://sodipodi.sourceforge.net/DTD/sodipodi-0.dtd"
   xmlns="http://www.w3.org/2000/svg"
   xmlns:svg="http://www.w3.org/2000/svg">
  <sodipodi:namedview
     id="namedview676"
     pagecolor="#ffffff"
     bordercolor="#000000"
     borderopacity="0.25"
     inkscape:showpageshadow="2"
     inkscape:pageopacity="0.0"
     inkscape:pagecheckerboard="0"
     inkscape:deskcolor="#d1d1d1"
     showgrid="false"
     inkscape:zoom="0.21024131"
     inkscape:cx="787.19069"
     inkscape:cy="513.69543"
     inkscape:window-width="1441"
     inkscape:window-height="417"
     inkscape:window-x="0"
     inkscape:window-y="37"
     inkscape:window-maximized="0"
     inkscape:current-layer="g672" />
  <desc
     id="desc532">Vesa10Portrait.dxf - scale = 1.000000, origin = (0.000000, 0.000000), method = manual</desc>
  <defs
     id="defs546">
    <marker
       id="DistanceX"
       orient="auto"
       refX="0"
       refY="0"
       style="overflow:visible">
      <path
         d="M 3,-3 -3,3 M 0,-5 V 5"
         style="stroke:#000000;stroke-width:0.5"
         id="path534" />
    </marker>
    <pattern
       id="Hatch"
       patternUnits="userSpaceOnUse"
       width="8"
       height="8"
       x="0"
       y="0">
      <path
         d="M8 4 l-4,4"
         stroke="#000000"
         stroke-width="0.25"
         linecap="square"
         id="path537" />
      <path
         d="M6 2 l-4,4"
         stroke="#000000"
         stroke-width="0.25"
         linecap="square"
         id="path539" />
      <path
         d="M4 0 l-4,4"
         stroke="#000000"
         stroke-width="0.25"
         linecap="square"
         id="path541" />
    </pattern>
    <symbol
       id="*MODEL_SPACE" />
    <symbol
       id="*PAPER_SPACE" />
  </defs>
  <g
     inkscape:groupmode="layer"
     inkscape:label="0"
     id="g548"
     transform="translate(387.902,-625.012)" />
  <g
     inkscape:groupmode="layer"
     inkscape:label="none"
     id="g550"
     transform="translate(387.902,-625.012)" />
  <g
     inkscape:groupmode="layer"
     inkscape:label="Sketch"
     id="g672"
     transform="translate(387.902,-625.012)">
    <path
       id="path670"
       style="fill:none;stroke:#000000"
       d="m 151.1811,1264.252 a 9.44882,9.44882 0 0 0 -18.89764,0 9.44882,9.44882 0 0 0 18.89764,0 z m 0,-283.4646 a 9.44882,9.44882 0 0 0 -18.89764,0 9.44882,9.44882 0 0 0 18.89764,0 z m -283.46456,283.4646 a 9.44882,9.44882 0 0 0 -18.89764,0 9.44882,9.44882 0 0 0 18.89764,0 z m 0,-283.4646 a 9.44882,9.44882 0 0 0 -18.89764,0 9.44882,9.44882 0 0 0 18.89764,0 z M 368.504,668.976 h 18.898 m 0,0 v 56.693 m 0,0 h -18.898 m 0,113.386 V 725.669 m 0,113.386 h 18.898 m 0,0 v 56.693 m 0,0 h -18.898 m 0,113.382 V 895.748 m 0,113.382 h 18.898 m 0,0 v 56.7 m 0,0 h -18.898 m 0,113.38 v -113.38 m 0,113.38 h 18.898 m 0,0 v 56.7 m 0,0 h -18.898 m 0,113.38 v -113.38 m 0,113.38 h 18.898 m 0,0 v 56.69 m 0,0 h -18.898 m 0,113.39 v -113.39 m 0,113.39 h 18.898 m 0,0 v 56.69 m 0,0 h -18.898 m 0,43.47 v -43.47 m -185.197,43.47 h 185.197 m -185.197,-166.3 v 166.3 m -366.614,-166.3 h 366.614 m -366.614,166.3 v -166.3 m -185.197,166.3 h 185.197 m -185.197,-43.47 v 43.47 m -18.898,-43.47 h 18.898 m -18.898,-56.69 v 56.69 m 18.898,-56.69 h -18.898 m 18.898,-113.39 v 113.39 m -18.898,-113.39 h 18.898 m -18.898,-56.69 v 56.69 m 18.898,-56.69 h -18.898 m 18.898,-113.38 v 113.38 m -18.898,-113.38 h 18.898 m -18.898,-56.7 v 56.7 m 18.898,-56.7 h -18.898 m 18.898,-113.38 v 113.38 m -18.898,-113.38 h 18.898 m -18.898,-56.7 v 56.7 m 18.898,-56.7 h -18.898 m 18.898,-113.382 v 113.382 m -18.898,-113.382 h 18.898 m -18.898,-56.693 v 56.693 m 18.898,-56.693 h -18.898 m 18.898,-113.386 v 113.386 m -18.898,-113.386 h 18.898 m -18.898,-56.693 v 56.693 m 18.898,-56.693 h -18.898 m 18.898,-43.464 v 43.464 m 737.008,-43.464 h -737.008 m 737.008,43.464 v -43.464" />
  </g>
</svg>
