<?xml version='1.0' encoding='UTF-8' standalone='no'?>
<svg version="1.2" xmlns:rdf="http://www.w3.org/1999/02/22-rdf-syntax-ns#" xmlns:inkscape="http://www.inkscape.org/namespaces/inkscape" xmlns="http://www.w3.org/2000/svg" width="210mm" xmlns:cc="http://creativecommons.org/ns#" height="297mm" viewBox="0 0 2100 2970" xmlns:freecad="http://www.freecadweb.org/wiki/index.php?title=Svg_Namespace" baseProfile="tiny" xmlns:svg="http://www.w3.org/2000/svg" xmlns:dc="http://purl.org/dc/elements/1.1/" xmlns:xlink="http://www.w3.org/1999/xlink" xmlns:sodipodi="http://sodipodi.sourceforge.net/DTD/sodipodi-0.dtd">
 <title>FreeCAD SVG Export</title>
 <desc>Drawing page: Page exported from FreeCAD document: Haut10Portrait</desc>
 <defs/>
 <g inkscape:label="TechDraw" inkscape:groupmode="layer" id="Page">
  <g stroke="black" stroke-width="1" stroke-linejoin="bevel" fill-rule="evenodd" stroke-linecap="square" id="DrawingContent" fill="none">
   <g stroke="none" font-style="normal" transform="matrix(1,0,0,1,1101.77,1456.76)" font-family=".AppleSystemUIFont" fill-opacity="1" font-weight="400" fill="#ffffff" font-size="45.8611">
    <path vector-effect="non-scaling-stroke" fill-rule="evenodd" d="M-60,780 L-260,780 L-260,424 L-300,424 L-300,304 L-260,304 L-260,21 L-220,21 L-220,32 L-188,32 L-188,21 L-164,21 L-164,-21 L-188,-21 L-188,-32 L-220,-32 L-220,-21 L-260,-21 L-260,-304 L-300,-304 L-300,-424 L-260,-424 L-260,-780 L-60,-780 L-60,-820 L60,-820 L60,-780 L260,-780 L260,-424 L300,-424 L300,-304 L260,-304 L260,-21 L220,-21 L220,-32 L188,-32 L188,-21 L164,-21 L164,21 L188,21 L188,32 L220,32 L220,21 L260,21 L260,304 L300,304 L300,424 L260,424 L260,780 L60,780 L60,820 L-60,820 L-60,780"/>
   </g>
   <g stroke="#000000" font-style="normal" transform="matrix(1,0,0,1,1101.77,1456.76)" font-family=".AppleSystemUIFont" stroke-width="2.5" stroke-linejoin="bevel" stroke-opacity="1" stroke-linecap="round" font-weight="400" fill="none" font-size="45.8611">
    <path vector-effect="none" fill-rule="evenodd" d="M-260,780 L-260,424"/>
   </g>
   <g stroke="#000000" font-style="normal" transform="matrix(1,0,0,1,1101.77,1456.76)" font-family=".AppleSystemUIFont" stroke-width="2.5" stroke-linejoin="bevel" stroke-opacity="1" stroke-linecap="round" font-weight="400" fill="none" font-size="45.8611">
    <path vector-effect="none" fill-rule="evenodd" d="M-260,424 L-300,424"/>
   </g>
   <g stroke="#000000" font-style="normal" transform="matrix(1,0,0,1,1101.77,1456.76)" font-family=".AppleSystemUIFont" stroke-width="2.5" stroke-linejoin="bevel" stroke-opacity="1" stroke-linecap="round" font-weight="400" fill="none" font-size="45.8611">
    <path vector-effect="none" fill-rule="evenodd" d="M-300,424 L-300,304"/>
   </g>
   <g stroke="#000000" font-style="normal" transform="matrix(1,0,0,1,1101.77,1456.76)" font-family=".AppleSystemUIFont" stroke-width="2.5" stroke-linejoin="bevel" stroke-opacity="1" stroke-linecap="round" font-weight="400" fill="none" font-size="45.8611">
    <path vector-effect="none" fill-rule="evenodd" d="M-300,304 L-260,304"/>
   </g>
   <g stroke="#000000" font-style="normal" transform="matrix(1,0,0,1,1101.77,1456.76)" font-family=".AppleSystemUIFont" stroke-width="2.5" stroke-linejoin="bevel" stroke-opacity="1" stroke-linecap="round" font-weight="400" fill="none" font-size="45.8611">
    <path vector-effect="none" fill-rule="evenodd" d="M-260,304 L-260,21"/>
   </g>
   <g stroke="#000000" font-style="normal" transform="matrix(1,0,0,1,1101.77,1456.76)" font-family=".AppleSystemUIFont" stroke-width="2.5" stroke-linejoin="bevel" stroke-opacity="1" stroke-linecap="round" font-weight="400" fill="none" font-size="45.8611">
    <path vector-effect="none" fill-rule="evenodd" d="M-260,21 L-220,21"/>
   </g>
   <g stroke="#000000" font-style="normal" transform="matrix(1,0,0,1,1101.77,1456.76)" font-family=".AppleSystemUIFont" stroke-width="2.5" stroke-linejoin="bevel" stroke-opacity="1" stroke-linecap="round" font-weight="400" fill="none" font-size="45.8611">
    <path vector-effect="none" fill-rule="evenodd" d="M-220,21 L-220,32"/>
   </g>
   <g stroke="#000000" font-style="normal" transform="matrix(1,0,0,1,1101.77,1456.76)" font-family=".AppleSystemUIFont" stroke-width="2.5" stroke-linejoin="bevel" stroke-opacity="1" stroke-linecap="round" font-weight="400" fill="none" font-size="45.8611">
    <path vector-effect="none" fill-rule="evenodd" d="M-220,32 L-188,32"/>
   </g>
   <g stroke="#000000" font-style="normal" transform="matrix(1,0,0,1,1101.77,1456.76)" font-family=".AppleSystemUIFont" stroke-width="2.5" stroke-linejoin="bevel" stroke-opacity="1" stroke-linecap="round" font-weight="400" fill="none" font-size="45.8611">
    <path vector-effect="none" fill-rule="evenodd" d="M-188,32 L-188,21"/>
   </g>
   <g stroke="#000000" font-style="normal" transform="matrix(1,0,0,1,1101.77,1456.76)" font-family=".AppleSystemUIFont" stroke-width="2.5" stroke-linejoin="bevel" stroke-opacity="1" stroke-linecap="round" font-weight="400" fill="none" font-size="45.8611">
    <path vector-effect="none" fill-rule="evenodd" d="M-188,21 L-164,21"/>
   </g>
   <g stroke="#000000" font-style="normal" transform="matrix(1,0,0,1,1101.77,1456.76)" font-family=".AppleSystemUIFont" stroke-width="2.5" stroke-linejoin="bevel" stroke-opacity="1" stroke-linecap="round" font-weight="400" fill="none" font-size="45.8611">
    <path vector-effect="none" fill-rule="evenodd" d="M-164,21 L-164,-21"/>
   </g>
   <g stroke="#000000" font-style="normal" transform="matrix(1,0,0,1,1101.77,1456.76)" font-family=".AppleSystemUIFont" stroke-width="2.5" stroke-linejoin="bevel" stroke-opacity="1" stroke-linecap="round" font-weight="400" fill="none" font-size="45.8611">
    <path vector-effect="none" fill-rule="evenodd" d="M-164,-21 L-188,-21"/>
   </g>
   <g stroke="#000000" font-style="normal" transform="matrix(1,0,0,1,1101.77,1456.76)" font-family=".AppleSystemUIFont" stroke-width="2.5" stroke-linejoin="bevel" stroke-opacity="1" stroke-linecap="round" font-weight="400" fill="none" font-size="45.8611">
    <path vector-effect="none" fill-rule="evenodd" d="M-188,-21 L-188,-32"/>
   </g>
   <g stroke="#000000" font-style="normal" transform="matrix(1,0,0,1,1101.77,1456.76)" font-family=".AppleSystemUIFont" stroke-width="2.5" stroke-linejoin="bevel" stroke-opacity="1" stroke-linecap="round" font-weight="400" fill="none" font-size="45.8611">
    <path vector-effect="none" fill-rule="evenodd" d="M-188,-32 L-220,-32"/>
   </g>
   <g stroke="#000000" font-style="normal" transform="matrix(1,0,0,1,1101.77,1456.76)" font-family=".AppleSystemUIFont" stroke-width="2.5" stroke-linejoin="bevel" stroke-opacity="1" stroke-linecap="round" font-weight="400" fill="none" font-size="45.8611">
    <path vector-effect="none" fill-rule="evenodd" d="M-220,-32 L-220,-21"/>
   </g>
   <g stroke="#000000" font-style="normal" transform="matrix(1,0,0,1,1101.77,1456.76)" font-family=".AppleSystemUIFont" stroke-width="2.5" stroke-linejoin="bevel" stroke-opacity="1" stroke-linecap="round" font-weight="400" fill="none" font-size="45.8611">
    <path vector-effect="none" fill-rule="evenodd" d="M-220,-21 L-260,-21"/>
   </g>
   <g stroke="#000000" font-style="normal" transform="matrix(1,0,0,1,1101.77,1456.76)" font-family=".AppleSystemUIFont" stroke-width="2.5" stroke-linejoin="bevel" stroke-opacity="1" stroke-linecap="round" font-weight="400" fill="none" font-size="45.8611">
    <path vector-effect="none" fill-rule="evenodd" d="M-260,-21 L-260,-304"/>
   </g>
   <g stroke="#000000" font-style="normal" transform="matrix(1,0,0,1,1101.77,1456.76)" font-family=".AppleSystemUIFont" stroke-width="2.5" stroke-linejoin="bevel" stroke-opacity="1" stroke-linecap="round" font-weight="400" fill="none" font-size="45.8611">
    <path vector-effect="none" fill-rule="evenodd" d="M-260,-304 L-300,-304"/>
   </g>
   <g stroke="#000000" font-style="normal" transform="matrix(1,0,0,1,1101.77,1456.76)" font-family=".AppleSystemUIFont" stroke-width="2.5" stroke-linejoin="bevel" stroke-opacity="1" stroke-linecap="round" font-weight="400" fill="none" font-size="45.8611">
    <path vector-effect="none" fill-rule="evenodd" d="M-300,-304 L-300,-424"/>
   </g>
   <g stroke="#000000" font-style="normal" transform="matrix(1,0,0,1,1101.77,1456.76)" font-family=".AppleSystemUIFont" stroke-width="2.5" stroke-linejoin="bevel" stroke-opacity="1" stroke-linecap="round" font-weight="400" fill="none" font-size="45.8611">
    <path vector-effect="none" fill-rule="evenodd" d="M-300,-424 L-260,-424"/>
   </g>
   <g stroke="#000000" font-style="normal" transform="matrix(1,0,0,1,1101.77,1456.76)" font-family=".AppleSystemUIFont" stroke-width="2.5" stroke-linejoin="bevel" stroke-opacity="1" stroke-linecap="round" font-weight="400" fill="none" font-size="45.8611">
    <path vector-effect="none" fill-rule="evenodd" d="M-260,-424 L-260,-780"/>
   </g>
   <g stroke="#000000" font-style="normal" transform="matrix(1,0,0,1,1101.77,1456.76)" font-family=".AppleSystemUIFont" stroke-width="2.5" stroke-linejoin="bevel" stroke-opacity="1" stroke-linecap="round" font-weight="400" fill="none" font-size="45.8611">
    <path vector-effect="none" fill-rule="evenodd" d="M-260,-780 L-60,-780"/>
   </g>
   <g stroke="#000000" font-style="normal" transform="matrix(1,0,0,1,1101.77,1456.76)" font-family=".AppleSystemUIFont" stroke-width="2.5" stroke-linejoin="bevel" stroke-opacity="1" stroke-linecap="round" font-weight="400" fill="none" font-size="45.8611">
    <path vector-effect="none" fill-rule="evenodd" d="M-60,-780 L-60,-820"/>
   </g>
   <g stroke="#000000" font-style="normal" transform="matrix(1,0,0,1,1101.77,1456.76)" font-family=".AppleSystemUIFont" stroke-width="2.5" stroke-linejoin="bevel" stroke-opacity="1" stroke-linecap="round" font-weight="400" fill="none" font-size="45.8611">
    <path vector-effect="none" fill-rule="evenodd" d="M-60,-820 L60,-820"/>
   </g>
   <g stroke="#000000" font-style="normal" transform="matrix(1,0,0,1,1101.77,1456.76)" font-family=".AppleSystemUIFont" stroke-width="2.5" stroke-linejoin="bevel" stroke-opacity="1" stroke-linecap="round" font-weight="400" fill="none" font-size="45.8611">
    <path vector-effect="none" fill-rule="evenodd" d="M60,-820 L60,-780"/>
   </g>
   <g stroke="#000000" font-style="normal" transform="matrix(1,0,0,1,1101.77,1456.76)" font-family=".AppleSystemUIFont" stroke-width="2.5" stroke-linejoin="bevel" stroke-opacity="1" stroke-linecap="round" font-weight="400" fill="none" font-size="45.8611">
    <path vector-effect="none" fill-rule="evenodd" d="M60,-780 L260,-780"/>
   </g>
   <g stroke="#000000" font-style="normal" transform="matrix(1,0,0,1,1101.77,1456.76)" font-family=".AppleSystemUIFont" stroke-width="2.5" stroke-linejoin="bevel" stroke-opacity="1" stroke-linecap="round" font-weight="400" fill="none" font-size="45.8611">
    <path vector-effect="none" fill-rule="evenodd" d="M260,-780 L260,-424"/>
   </g>
   <g stroke="#000000" font-style="normal" transform="matrix(1,0,0,1,1101.77,1456.76)" font-family=".AppleSystemUIFont" stroke-width="2.5" stroke-linejoin="bevel" stroke-opacity="1" stroke-linecap="round" font-weight="400" fill="none" font-size="45.8611">
    <path vector-effect="none" fill-rule="evenodd" d="M260,-424 L300,-424"/>
   </g>
   <g stroke="#000000" font-style="normal" transform="matrix(1,0,0,1,1101.77,1456.76)" font-family=".AppleSystemUIFont" stroke-width="2.5" stroke-linejoin="bevel" stroke-opacity="1" stroke-linecap="round" font-weight="400" fill="none" font-size="45.8611">
    <path vector-effect="none" fill-rule="evenodd" d="M300,-424 L300,-304"/>
   </g>
   <g stroke="#000000" font-style="normal" transform="matrix(1,0,0,1,1101.77,1456.76)" font-family=".AppleSystemUIFont" stroke-width="2.5" stroke-linejoin="bevel" stroke-opacity="1" stroke-linecap="round" font-weight="400" fill="none" font-size="45.8611">
    <path vector-effect="none" fill-rule="evenodd" d="M300,-304 L260,-304"/>
   </g>
   <g stroke="#000000" font-style="normal" transform="matrix(1,0,0,1,1101.77,1456.76)" font-family=".AppleSystemUIFont" stroke-width="2.5" stroke-linejoin="bevel" stroke-opacity="1" stroke-linecap="round" font-weight="400" fill="none" font-size="45.8611">
    <path vector-effect="none" fill-rule="evenodd" d="M260,-304 L260,-21"/>
   </g>
   <g stroke="#000000" font-style="normal" transform="matrix(1,0,0,1,1101.77,1456.76)" font-family=".AppleSystemUIFont" stroke-width="2.5" stroke-linejoin="bevel" stroke-opacity="1" stroke-linecap="round" font-weight="400" fill="none" font-size="45.8611">
    <path vector-effect="none" fill-rule="evenodd" d="M260,-21 L220,-21"/>
   </g>
   <g stroke="#000000" font-style="normal" transform="matrix(1,0,0,1,1101.77,1456.76)" font-family=".AppleSystemUIFont" stroke-width="2.5" stroke-linejoin="bevel" stroke-opacity="1" stroke-linecap="round" font-weight="400" fill="none" font-size="45.8611">
    <path vector-effect="none" fill-rule="evenodd" d="M220,-21 L220,-32"/>
   </g>
   <g stroke="#000000" font-style="normal" transform="matrix(1,0,0,1,1101.77,1456.76)" font-family=".AppleSystemUIFont" stroke-width="2.5" stroke-linejoin="bevel" stroke-opacity="1" stroke-linecap="round" font-weight="400" fill="none" font-size="45.8611">
    <path vector-effect="none" fill-rule="evenodd" d="M220,-32 L188,-32"/>
   </g>
   <g stroke="#000000" font-style="normal" transform="matrix(1,0,0,1,1101.77,1456.76)" font-family=".AppleSystemUIFont" stroke-width="2.5" stroke-linejoin="bevel" stroke-opacity="1" stroke-linecap="round" font-weight="400" fill="none" font-size="45.8611">
    <path vector-effect="none" fill-rule="evenodd" d="M188,-32 L188,-21"/>
   </g>
   <g stroke="#000000" font-style="normal" transform="matrix(1,0,0,1,1101.77,1456.76)" font-family=".AppleSystemUIFont" stroke-width="2.5" stroke-linejoin="bevel" stroke-opacity="1" stroke-linecap="round" font-weight="400" fill="none" font-size="45.8611">
    <path vector-effect="none" fill-rule="evenodd" d="M188,-21 L164,-21"/>
   </g>
   <g stroke="#000000" font-style="normal" transform="matrix(1,0,0,1,1101.77,1456.76)" font-family=".AppleSystemUIFont" stroke-width="2.5" stroke-linejoin="bevel" stroke-opacity="1" stroke-linecap="round" font-weight="400" fill="none" font-size="45.8611">
    <path vector-effect="none" fill-rule="evenodd" d="M164,-21 L164,21"/>
   </g>
   <g stroke="#000000" font-style="normal" transform="matrix(1,0,0,1,1101.77,1456.76)" font-family=".AppleSystemUIFont" stroke-width="2.5" stroke-linejoin="bevel" stroke-opacity="1" stroke-linecap="round" font-weight="400" fill="none" font-size="45.8611">
    <path vector-effect="none" fill-rule="evenodd" d="M164,21 L188,21"/>
   </g>
   <g stroke="#000000" font-style="normal" transform="matrix(1,0,0,1,1101.77,1456.76)" font-family=".AppleSystemUIFont" stroke-width="2.5" stroke-linejoin="bevel" stroke-opacity="1" stroke-linecap="round" font-weight="400" fill="none" font-size="45.8611">
    <path vector-effect="none" fill-rule="evenodd" d="M188,21 L188,32"/>
   </g>
   <g stroke="#000000" font-style="normal" transform="matrix(1,0,0,1,1101.77,1456.76)" font-family=".AppleSystemUIFont" stroke-width="2.5" stroke-linejoin="bevel" stroke-opacity="1" stroke-linecap="round" font-weight="400" fill="none" font-size="45.8611">
    <path vector-effect="none" fill-rule="evenodd" d="M188,32 L220,32"/>
   </g>
   <g stroke="#000000" font-style="normal" transform="matrix(1,0,0,1,1101.77,1456.76)" font-family=".AppleSystemUIFont" stroke-width="2.5" stroke-linejoin="bevel" stroke-opacity="1" stroke-linecap="round" font-weight="400" fill="none" font-size="45.8611">
    <path vector-effect="none" fill-rule="evenodd" d="M220,32 L220,21"/>
   </g>
   <g stroke="#000000" font-style="normal" transform="matrix(1,0,0,1,1101.77,1456.76)" font-family=".AppleSystemUIFont" stroke-width="2.5" stroke-linejoin="bevel" stroke-opacity="1" stroke-linecap="round" font-weight="400" fill="none" font-size="45.8611">
    <path vector-effect="none" fill-rule="evenodd" d="M220,21 L260,21"/>
   </g>
   <g stroke="#000000" font-style="normal" transform="matrix(1,0,0,1,1101.77,1456.76)" font-family=".AppleSystemUIFont" stroke-width="2.5" stroke-linejoin="bevel" stroke-opacity="1" stroke-linecap="round" font-weight="400" fill="none" font-size="45.8611">
    <path vector-effect="none" fill-rule="evenodd" d="M260,21 L260,304"/>
   </g>
   <g stroke="#000000" font-style="normal" transform="matrix(1,0,0,1,1101.77,1456.76)" font-family=".AppleSystemUIFont" stroke-width="2.5" stroke-linejoin="bevel" stroke-opacity="1" stroke-linecap="round" font-weight="400" fill="none" font-size="45.8611">
    <path vector-effect="none" fill-rule="evenodd" d="M260,304 L300,304"/>
   </g>
   <g stroke="#000000" font-style="normal" transform="matrix(1,0,0,1,1101.77,1456.76)" font-family=".AppleSystemUIFont" stroke-width="2.5" stroke-linejoin="bevel" stroke-opacity="1" stroke-linecap="round" font-weight="400" fill="none" font-size="45.8611">
    <path vector-effect="none" fill-rule="evenodd" d="M300,304 L300,424"/>
   </g>
   <g stroke="#000000" font-style="normal" transform="matrix(1,0,0,1,1101.77,1456.76)" font-family=".AppleSystemUIFont" stroke-width="2.5" stroke-linejoin="bevel" stroke-opacity="1" stroke-linecap="round" font-weight="400" fill="none" font-size="45.8611">
    <path vector-effect="none" fill-rule="evenodd" d="M300,424 L260,424"/>
   </g>
   <g stroke="#000000" font-style="normal" transform="matrix(1,0,0,1,1101.77,1456.76)" font-family=".AppleSystemUIFont" stroke-width="2.5" stroke-linejoin="bevel" stroke-opacity="1" stroke-linecap="round" font-weight="400" fill="none" font-size="45.8611">
    <path vector-effect="none" fill-rule="evenodd" d="M260,424 L260,780"/>
   </g>
   <g stroke="#000000" font-style="normal" transform="matrix(1,0,0,1,1101.77,1456.76)" font-family=".AppleSystemUIFont" stroke-width="2.5" stroke-linejoin="bevel" stroke-opacity="1" stroke-linecap="round" font-weight="400" fill="none" font-size="45.8611">
    <path vector-effect="none" fill-rule="evenodd" d="M260,780 L60,780"/>
   </g>
   <g stroke="#000000" font-style="normal" transform="matrix(1,0,0,1,1101.77,1456.76)" font-family=".AppleSystemUIFont" stroke-width="2.5" stroke-linejoin="bevel" stroke-opacity="1" stroke-linecap="round" font-weight="400" fill="none" font-size="45.8611">
    <path vector-effect="none" fill-rule="evenodd" d="M60,820 L60,780"/>
   </g>
   <g stroke="#000000" font-style="normal" transform="matrix(1,0,0,1,1101.77,1456.76)" font-family=".AppleSystemUIFont" stroke-width="2.5" stroke-linejoin="bevel" stroke-opacity="1" stroke-linecap="round" font-weight="400" fill="none" font-size="45.8611">
    <path vector-effect="none" fill-rule="evenodd" d="M-60,820 L60,820"/>
   </g>
   <g stroke="#000000" font-style="normal" transform="matrix(1,0,0,1,1101.77,1456.76)" font-family=".AppleSystemUIFont" stroke-width="2.5" stroke-linejoin="bevel" stroke-opacity="1" stroke-linecap="round" font-weight="400" fill="none" font-size="45.8611">
    <path vector-effect="none" fill-rule="evenodd" d="M-60,780 L-60,820"/>
   </g>
   <g stroke="#000000" font-style="normal" transform="matrix(1,0,0,1,1101.77,1456.76)" font-family=".AppleSystemUIFont" stroke-width="2.5" stroke-linejoin="bevel" stroke-opacity="1" stroke-linecap="round" font-weight="400" fill="none" font-size="45.8611">
    <path vector-effect="none" fill-rule="evenodd" d="M-60,780 L-260,780"/>
   </g>
   <g stroke="#0055ff" font-style="normal" transform="matrix(0,-1,1,0,240.337,1486.05)" font-family=".AppleSystemUIFont" stroke-width="1" stroke-linejoin="bevel" stroke-opacity="1" stroke-linecap="square" font-weight="400" fill="none" font-size="45.8611">
    <text stroke="none" font-style="normal" font-family="osifont" fill-opacity="1" x="4" font-weight="400" fill="#0055ff" xml:space="preserve" y="69.8438" font-size="50">195</text>
   </g>
   <g stroke="#0055ff" font-style="normal" transform="matrix(1,0,0,1,1101.77,1456.76)" font-family=".AppleSystemUIFont" stroke-width="1.3" stroke-linejoin="bevel" stroke-opacity="1" stroke-linecap="round" font-weight="400" fill="none" font-size="45.8611">
    <path vector-effect="none" fill-rule="evenodd" d="M-780.588,780 L-780.588,-780 M-260,-780 L-790.988,-780 M-260,780 L-790.988,780"/>
   </g>
   <g stroke="#0055ff" font-style="normal" transform="matrix(1,0,0,1,321.187,676.759)" font-family=".AppleSystemUIFont" fill-opacity="1" stroke-width="1.3" stroke-linejoin="bevel" stroke-opacity="1" stroke-linecap="round" font-weight="400" fill="#0055ff" font-size="45.8611">
    <path vector-effect="none" fill-rule="evenodd" d="M0,0 L-8.33333,50 L8.33333,50 L0,0"/>
   </g>
   <g stroke="#0055ff" font-style="normal" transform="matrix(1,0,0,1,321.187,2236.76)" font-family=".AppleSystemUIFont" fill-opacity="1" stroke-width="1.3" stroke-linejoin="bevel" stroke-opacity="1" stroke-linecap="round" font-weight="400" fill="#0055ff" font-size="45.8611">
    <path vector-effect="none" fill-rule="evenodd" d="M0,0 L8.33333,-50 L-8.33333,-50 L0,0"/>
   </g>
   <g stroke="#0055ff" font-style="normal" transform="matrix(0,-1,1,0,684.055,2103.89)" font-family=".AppleSystemUIFont" stroke-width="1" stroke-linejoin="bevel" stroke-opacity="1" stroke-linecap="square" font-weight="400" fill="none" font-size="45.8611">
    <text stroke="none" font-style="normal" font-family="osifont" fill-opacity="1" x="4" font-weight="400" fill="#0055ff" xml:space="preserve" y="69.8438" font-size="50">44,5</text>
   </g>
   <g stroke="#0055ff" font-style="normal" transform="matrix(1,0,0,1,1101.77,1456.76)" font-family=".AppleSystemUIFont" stroke-width="1.3" stroke-linejoin="bevel" stroke-opacity="1" stroke-linecap="round" font-weight="400" fill="none" font-size="45.8611">
    <path vector-effect="none" fill-rule="evenodd" d="M-334.62,780 L-334.62,424 M-260,424 L-345.02,424 M-260,780 L-345.02,780"/>
   </g>
   <g stroke="#0055ff" font-style="normal" transform="matrix(1,0,0,1,767.155,1880.76)" font-family=".AppleSystemUIFont" fill-opacity="1" stroke-width="1.3" stroke-linejoin="bevel" stroke-opacity="1" stroke-linecap="round" font-weight="400" fill="#0055ff" font-size="45.8611">
    <path vector-effect="none" fill-rule="evenodd" d="M0,0 L-8.33333,50 L8.33333,50 L0,0"/>
   </g>
   <g stroke="#0055ff" font-style="normal" transform="matrix(1,0,0,1,767.155,2236.76)" font-family=".AppleSystemUIFont" fill-opacity="1" stroke-width="1.3" stroke-linejoin="bevel" stroke-opacity="1" stroke-linecap="round" font-weight="400" fill="#0055ff" font-size="45.8611">
    <path vector-effect="none" fill-rule="evenodd" d="M0,0 L8.33333,-50 L-8.33333,-50 L0,0"/>
   </g>
   <g stroke="#0055ff" font-style="normal" transform="matrix(0,-1,1,0,609.795,1856.3)" font-family=".AppleSystemUIFont" stroke-width="1" stroke-linejoin="bevel" stroke-opacity="1" stroke-linecap="square" font-weight="400" fill="none" font-size="45.8611">
    <text stroke="none" font-style="normal" font-family="osifont" fill-opacity="1" x="4" font-weight="400" fill="#0055ff" xml:space="preserve" y="69.8438" font-size="50">15</text>
   </g>
   <g stroke="#0055ff" font-style="normal" transform="matrix(1,0,0,1,1101.77,1456.76)" font-family=".AppleSystemUIFont" stroke-width="1.3" stroke-linejoin="bevel" stroke-opacity="1" stroke-linecap="round" font-weight="400" fill="none" font-size="45.8611">
    <path vector-effect="none" fill-rule="evenodd" d="M-411.13,424 L-411.13,304 M-300,304 L-421.53,304 M-300,424 L-421.53,424"/>
   </g>
   <g stroke="#0055ff" font-style="normal" transform="matrix(1,0,0,1,690.645,1760.76)" font-family=".AppleSystemUIFont" fill-opacity="1" stroke-width="1.3" stroke-linejoin="bevel" stroke-opacity="1" stroke-linecap="round" font-weight="400" fill="#0055ff" font-size="45.8611">
    <path vector-effect="none" fill-rule="evenodd" d="M0,0 L-8.33333,50 L8.33333,50 L0,0"/>
   </g>
   <g stroke="#0055ff" font-style="normal" transform="matrix(1,0,0,1,690.645,1880.76)" font-family=".AppleSystemUIFont" fill-opacity="1" stroke-width="1.3" stroke-linejoin="bevel" stroke-opacity="1" stroke-linecap="round" font-weight="400" fill="#0055ff" font-size="45.8611">
    <path vector-effect="none" fill-rule="evenodd" d="M0,0 L8.33333,-50 L-8.33333,-50 L0,0"/>
   </g>
   <g stroke="#0055ff" font-style="normal" transform="matrix(0,-1,1,0,608.871,1675.64)" font-family=".AppleSystemUIFont" stroke-width="1" stroke-linejoin="bevel" stroke-opacity="1" stroke-linecap="square" font-weight="400" fill="none" font-size="45.8611">
    <text stroke="none" font-style="normal" font-family="osifont" fill-opacity="1" x="4" font-weight="400" fill="#0055ff" xml:space="preserve" y="69.8438" font-size="50">35,38</text>
   </g>
   <g stroke="#0055ff" font-style="normal" transform="matrix(1,0,0,1,1101.77,1456.76)" font-family=".AppleSystemUIFont" stroke-width="1.3" stroke-linejoin="bevel" stroke-opacity="1" stroke-linecap="round" font-weight="400" fill="none" font-size="45.8611">
    <path vector-effect="none" fill-rule="evenodd" d="M-409.804,304 L-409.804,21 M-260,21 L-420.204,21 M-260,304 L-420.204,304"/>
   </g>
   <g stroke="#0055ff" font-style="normal" transform="matrix(1,0,0,1,691.971,1477.76)" font-family=".AppleSystemUIFont" fill-opacity="1" stroke-width="1.3" stroke-linejoin="bevel" stroke-opacity="1" stroke-linecap="round" font-weight="400" fill="#0055ff" font-size="45.8611">
    <path vector-effect="none" fill-rule="evenodd" d="M0,0 L-8.33333,50 L8.33333,50 L0,0"/>
   </g>
   <g stroke="#0055ff" font-style="normal" transform="matrix(1,0,0,1,691.971,1760.76)" font-family=".AppleSystemUIFont" fill-opacity="1" stroke-width="1.3" stroke-linejoin="bevel" stroke-opacity="1" stroke-linecap="round" font-weight="400" fill="#0055ff" font-size="45.8611">
    <path vector-effect="none" fill-rule="evenodd" d="M0,0 L8.33333,-50 L-8.33333,-50 L0,0"/>
   </g>
   <g stroke="#0055ff" font-style="normal" transform="matrix(0,-1,1,0,517.32,1512.39)" font-family=".AppleSystemUIFont" stroke-width="1" stroke-linejoin="bevel" stroke-opacity="1" stroke-linecap="square" font-weight="400" fill="none" font-size="45.8611">
    <text stroke="none" font-style="normal" font-family="osifont" fill-opacity="1" x="4" font-weight="400" fill="#0055ff" xml:space="preserve" y="69.8438" font-size="50">5,25</text>
   </g>
   <g stroke="#0055ff" font-style="normal" transform="matrix(1,0,0,1,1101.77,1456.76)" font-family=".AppleSystemUIFont" stroke-width="1.3" stroke-linejoin="bevel" stroke-opacity="1" stroke-linecap="round" font-weight="400" fill="none" font-size="45.8611">
    <path vector-effect="none" fill-rule="evenodd" d="M-501.605,121 L-501.605,-121 M-260,-21 L-512.005,-21 M-260,21 L-512.005,21"/>
   </g>
   <g stroke="#0055ff" font-style="normal" transform="matrix(1,0,0,1,600.17,1435.76)" font-family=".AppleSystemUIFont" fill-opacity="1" stroke-width="1.3" stroke-linejoin="bevel" stroke-opacity="1" stroke-linecap="round" font-weight="400" fill="#0055ff" font-size="45.8611">
    <path vector-effect="none" fill-rule="evenodd" d="M0,0 L8.33333,-50 L-8.33333,-50 L0,0"/>
   </g>
   <g stroke="#0055ff" font-style="normal" transform="matrix(1,0,0,1,600.17,1477.76)" font-family=".AppleSystemUIFont" fill-opacity="1" stroke-width="1.3" stroke-linejoin="bevel" stroke-opacity="1" stroke-linecap="round" font-weight="400" fill="#0055ff" font-size="45.8611">
    <path vector-effect="none" fill-rule="evenodd" d="M0,0 L-8.33333,50 L8.33333,50 L0,0"/>
   </g>
   <g stroke="#0055ff" font-style="normal" transform="matrix(0,-1,1,0,981.09,1562.72)" font-family=".AppleSystemUIFont" stroke-width="1" stroke-linejoin="bevel" stroke-opacity="1" stroke-linecap="square" font-weight="400" fill="none" font-size="45.8611">
    <text stroke="none" font-style="normal" font-family="osifont" fill-opacity="1" x="4" font-weight="400" fill="#0055ff" xml:space="preserve" y="69.8438" font-size="50">8</text>
   </g>
   <g stroke="#0055ff" font-style="normal" transform="matrix(1,0,0,1,1101.77,1456.76)" font-family=".AppleSystemUIFont" stroke-width="1.3" stroke-linejoin="bevel" stroke-opacity="1" stroke-linecap="round" font-weight="400" fill="none" font-size="45.8611">
    <path vector-effect="none" fill-rule="evenodd" d="M-39.8354,132 L-39.8354,-132 M-188,-32 L-29.4354,-32 M-188,32 L-29.4354,32"/>
   </g>
   <g stroke="#0055ff" font-style="normal" transform="matrix(1,0,0,1,1061.94,1424.76)" font-family=".AppleSystemUIFont" fill-opacity="1" stroke-width="1.3" stroke-linejoin="bevel" stroke-opacity="1" stroke-linecap="round" font-weight="400" fill="#0055ff" font-size="45.8611">
    <path vector-effect="none" fill-rule="evenodd" d="M0,0 L8.33333,-50 L-8.33333,-50 L0,0"/>
   </g>
   <g stroke="#0055ff" font-style="normal" transform="matrix(1,0,0,1,1061.94,1488.76)" font-family=".AppleSystemUIFont" fill-opacity="1" stroke-width="1.3" stroke-linejoin="bevel" stroke-opacity="1" stroke-linecap="round" font-weight="400" fill="#0055ff" font-size="45.8611">
    <path vector-effect="none" fill-rule="evenodd" d="M0,0 L-8.33333,50 L8.33333,50 L0,0"/>
   </g>
   <g stroke="#0055ff" font-style="normal" transform="matrix(1,0,0,1,889.672,1526.45)" font-family=".AppleSystemUIFont" stroke-width="1" stroke-linejoin="bevel" stroke-opacity="1" stroke-linecap="square" font-weight="400" fill="none" font-size="45.8611">
    <text stroke="none" font-style="normal" font-family="osifont" fill-opacity="1" x="4" font-weight="400" fill="#0055ff" xml:space="preserve" y="69.8438" font-size="50">5</text>
   </g>
   <g stroke="#0055ff" font-style="normal" transform="matrix(1,0,0,1,1101.77,1456.76)" font-family=".AppleSystemUIFont" stroke-width="1.3" stroke-linejoin="bevel" stroke-opacity="1" stroke-linecap="round" font-weight="400" fill="none" font-size="45.8611">
    <path vector-effect="none" fill-rule="evenodd" d="M-360,150.539 L-120,150.539 M-220,21 L-220,160.939 M-260,21 L-260,160.939"/>
   </g>
   <g stroke="#0055ff" font-style="normal" transform="matrix(1,0,0,1,881.775,1607.3)" font-family=".AppleSystemUIFont" fill-opacity="1" stroke-width="1.3" stroke-linejoin="bevel" stroke-opacity="1" stroke-linecap="round" font-weight="400" fill="#0055ff" font-size="45.8611">
    <path vector-effect="none" fill-rule="evenodd" d="M0,0 L50,8.33333 L50,-8.33333 L0,0"/>
   </g>
   <g stroke="#0055ff" font-style="normal" transform="matrix(1,0,0,1,841.775,1607.3)" font-family=".AppleSystemUIFont" fill-opacity="1" stroke-width="1.3" stroke-linejoin="bevel" stroke-opacity="1" stroke-linecap="round" font-weight="400" fill="#0055ff" font-size="45.8611">
    <path vector-effect="none" fill-rule="evenodd" d="M0,0 L-50,-8.33333 L-50,8.33333 L0,0"/>
   </g>
   <g stroke="#0055ff" font-style="normal" transform="matrix(1,0,0,1,878.413,1301.85)" font-family=".AppleSystemUIFont" stroke-width="1" stroke-linejoin="bevel" stroke-opacity="1" stroke-linecap="square" font-weight="400" fill="none" font-size="45.8611">
    <text stroke="none" font-style="normal" font-family="osifont" fill-opacity="1" x="4" font-weight="400" fill="#0055ff" xml:space="preserve" y="69.8438" font-size="50">4</text>
   </g>
   <g stroke="#0055ff" font-style="normal" transform="matrix(1,0,0,1,1101.77,1456.76)" font-family=".AppleSystemUIFont" stroke-width="1.3" stroke-linejoin="bevel" stroke-opacity="1" stroke-linecap="round" font-weight="400" fill="none" font-size="45.8611">
    <path vector-effect="none" fill-rule="evenodd" d="M-88,-74.0639 L-320,-74.0639 M-220,-32 L-220,-84.4639 M-188,-32 L-188,-84.4639"/>
   </g>
   <g stroke="#0055ff" font-style="normal" transform="matrix(1,0,0,1,881.775,1382.7)" font-family=".AppleSystemUIFont" fill-opacity="1" stroke-width="1.3" stroke-linejoin="bevel" stroke-opacity="1" stroke-linecap="round" font-weight="400" fill="#0055ff" font-size="45.8611">
    <path vector-effect="none" fill-rule="evenodd" d="M0,0 L-50,-8.33333 L-50,8.33333 L0,0"/>
   </g>
   <g stroke="#0055ff" font-style="normal" transform="matrix(1,0,0,1,913.775,1382.7)" font-family=".AppleSystemUIFont" fill-opacity="1" stroke-width="1.3" stroke-linejoin="bevel" stroke-opacity="1" stroke-linecap="round" font-weight="400" fill="#0055ff" font-size="45.8611">
    <path vector-effect="none" fill-rule="evenodd" d="M0,0 L50,8.33333 L50,-8.33333 L0,0"/>
   </g>
   <g stroke="#0055ff" font-style="normal" transform="matrix(1,0,0,1,921.443,1225.68)" font-family=".AppleSystemUIFont" stroke-width="1" stroke-linejoin="bevel" stroke-opacity="1" stroke-linecap="square" font-weight="400" fill="none" font-size="45.8611">
    <text stroke="none" font-style="normal" font-family="osifont" fill-opacity="1" x="4" font-weight="400" fill="#0055ff" xml:space="preserve" y="69.8438" font-size="50">3</text>
   </g>
   <g stroke="#0055ff" font-style="normal" transform="matrix(1,0,0,1,1101.77,1456.76)" font-family=".AppleSystemUIFont" stroke-width="1.3" stroke-linejoin="bevel" stroke-opacity="1" stroke-linecap="round" font-weight="400" fill="none" font-size="45.8611">
    <path vector-effect="none" fill-rule="evenodd" d="M-64,-150.227 L-288,-150.227 M-188,-21 L-188,-160.627 M-164,-21 L-164,-160.627"/>
   </g>
   <g stroke="#0055ff" font-style="normal" transform="matrix(1,0,0,1,913.775,1306.53)" font-family=".AppleSystemUIFont" fill-opacity="1" stroke-width="1.3" stroke-linejoin="bevel" stroke-opacity="1" stroke-linecap="round" font-weight="400" fill="#0055ff" font-size="45.8611">
    <path vector-effect="none" fill-rule="evenodd" d="M0,0 L-50,-8.33333 L-50,8.33333 L0,0"/>
   </g>
   <g stroke="#0055ff" font-style="normal" transform="matrix(1,0,0,1,937.775,1306.53)" font-family=".AppleSystemUIFont" fill-opacity="1" stroke-width="1.3" stroke-linejoin="bevel" stroke-opacity="1" stroke-linecap="round" font-weight="400" fill="#0055ff" font-size="45.8611">
    <path vector-effect="none" fill-rule="evenodd" d="M0,0 L50,8.33333 L50,-8.33333 L0,0"/>
   </g>
   <g stroke="#0055ff" font-style="normal" transform="matrix(0,-1,1,0,416.545,1345.93)" font-family=".AppleSystemUIFont" stroke-width="1" stroke-linejoin="bevel" stroke-opacity="1" stroke-linecap="square" font-weight="400" fill="none" font-size="45.8611">
    <text stroke="none" font-style="normal" font-family="osifont" fill-opacity="1" x="4" font-weight="400" fill="#0055ff" xml:space="preserve" y="69.8438" font-size="50">35,38</text>
   </g>
   <g stroke="#0055ff" font-style="normal" transform="matrix(1,0,0,1,1101.77,1456.76)" font-family=".AppleSystemUIFont" stroke-width="1.3" stroke-linejoin="bevel" stroke-opacity="1" stroke-linecap="round" font-weight="400" fill="none" font-size="45.8611">
    <path vector-effect="none" fill-rule="evenodd" d="M-602.13,-21 L-602.13,-304 M-260,-304 L-612.53,-304 M-260,-21 L-612.53,-21"/>
   </g>
   <g stroke="#0055ff" font-style="normal" transform="matrix(1,0,0,1,499.645,1152.76)" font-family=".AppleSystemUIFont" fill-opacity="1" stroke-width="1.3" stroke-linejoin="bevel" stroke-opacity="1" stroke-linecap="round" font-weight="400" fill="#0055ff" font-size="45.8611">
    <path vector-effect="none" fill-rule="evenodd" d="M0,0 L-8.33333,50 L8.33333,50 L0,0"/>
   </g>
   <g stroke="#0055ff" font-style="normal" transform="matrix(1,0,0,1,499.645,1435.76)" font-family=".AppleSystemUIFont" fill-opacity="1" stroke-width="1.3" stroke-linejoin="bevel" stroke-opacity="1" stroke-linecap="round" font-weight="400" fill="#0055ff" font-size="45.8611">
    <path vector-effect="none" fill-rule="evenodd" d="M0,0 L8.33333,-50 L-8.33333,-50 L0,0"/>
   </g>
   <g stroke="#0055ff" font-style="normal" transform="matrix(0,-1,1,0,633.874,1114.18)" font-family=".AppleSystemUIFont" stroke-width="1" stroke-linejoin="bevel" stroke-opacity="1" stroke-linecap="square" font-weight="400" fill="none" font-size="45.8611">
    <text stroke="none" font-style="normal" font-family="osifont" fill-opacity="1" x="4" font-weight="400" fill="#0055ff" xml:space="preserve" y="69.8438" font-size="50">15</text>
   </g>
   <g stroke="#0055ff" font-style="normal" transform="matrix(1,0,0,1,1101.77,1456.76)" font-family=".AppleSystemUIFont" stroke-width="1.3" stroke-linejoin="bevel" stroke-opacity="1" stroke-linecap="round" font-weight="400" fill="none" font-size="45.8611">
    <path vector-effect="none" fill-rule="evenodd" d="M-387.051,-304 L-387.051,-424 M-300,-424 L-397.451,-424 M-300,-304 L-397.451,-304"/>
   </g>
   <g stroke="#0055ff" font-style="normal" transform="matrix(1,0,0,1,714.724,1032.76)" font-family=".AppleSystemUIFont" fill-opacity="1" stroke-width="1.3" stroke-linejoin="bevel" stroke-opacity="1" stroke-linecap="round" font-weight="400" fill="#0055ff" font-size="45.8611">
    <path vector-effect="none" fill-rule="evenodd" d="M0,0 L-8.33333,50 L8.33333,50 L0,0"/>
   </g>
   <g stroke="#0055ff" font-style="normal" transform="matrix(1,0,0,1,714.724,1152.76)" font-family=".AppleSystemUIFont" fill-opacity="1" stroke-width="1.3" stroke-linejoin="bevel" stroke-opacity="1" stroke-linecap="round" font-weight="400" fill="#0055ff" font-size="45.8611">
    <path vector-effect="none" fill-rule="evenodd" d="M0,0 L8.33333,-50 L-8.33333,-50 L0,0"/>
   </g>
   <g stroke="#0055ff" font-style="normal" transform="matrix(0,-1,1,0,522.65,895.183)" font-family=".AppleSystemUIFont" stroke-width="1" stroke-linejoin="bevel" stroke-opacity="1" stroke-linecap="square" font-weight="400" fill="none" font-size="45.8611">
    <text stroke="none" font-style="normal" font-family="osifont" fill-opacity="1" x="4" font-weight="400" fill="#0055ff" xml:space="preserve" y="69.8438" font-size="50">44,5</text>
   </g>
   <g stroke="#0055ff" font-style="normal" transform="matrix(1,0,0,1,1101.77,1456.76)" font-family=".AppleSystemUIFont" stroke-width="1.3" stroke-linejoin="bevel" stroke-opacity="1" stroke-linecap="round" font-weight="400" fill="none" font-size="45.8611">
    <path vector-effect="none" fill-rule="evenodd" d="M-496.025,-424 L-496.025,-780 M-260,-780 L-506.425,-780 M-260,-424 L-506.425,-424"/>
   </g>
   <g stroke="#0055ff" font-style="normal" transform="matrix(1,0,0,1,605.75,676.759)" font-family=".AppleSystemUIFont" fill-opacity="1" stroke-width="1.3" stroke-linejoin="bevel" stroke-opacity="1" stroke-linecap="round" font-weight="400" fill="#0055ff" font-size="45.8611">
    <path vector-effect="none" fill-rule="evenodd" d="M0,0 L-8.33333,50 L8.33333,50 L0,0"/>
   </g>
   <g stroke="#0055ff" font-style="normal" transform="matrix(1,0,0,1,605.75,1032.76)" font-family=".AppleSystemUIFont" fill-opacity="1" stroke-width="1.3" stroke-linejoin="bevel" stroke-opacity="1" stroke-linecap="round" font-weight="400" fill="#0055ff" font-size="45.8611">
    <path vector-effect="none" fill-rule="evenodd" d="M0,0 L8.33333,-50 L-8.33333,-50 L0,0"/>
   </g>
   <g stroke="#0055ff" font-style="normal" transform="matrix(1,0,0,1,911.538,496.644)" font-family=".AppleSystemUIFont" stroke-width="1" stroke-linejoin="bevel" stroke-opacity="1" stroke-linecap="square" font-weight="400" fill="none" font-size="45.8611">
    <text stroke="none" font-style="normal" font-family="osifont" fill-opacity="1" x="4" font-weight="400" fill="#0055ff" xml:space="preserve" y="69.8438" font-size="50">25</text>
   </g>
   <g stroke="#0055ff" font-style="normal" transform="matrix(1,0,0,1,1101.77,1456.76)" font-family=".AppleSystemUIFont" stroke-width="1.3" stroke-linejoin="bevel" stroke-opacity="1" stroke-linecap="round" font-weight="400" fill="none" font-size="45.8611">
    <path vector-effect="none" fill-rule="evenodd" d="M-260,-879.265 L-60,-879.265 M-60,-780 L-60,-889.665 M-260,-780 L-260,-889.665"/>
   </g>
   <g stroke="#0055ff" font-style="normal" transform="matrix(1,0,0,1,1041.77,577.494)" font-family=".AppleSystemUIFont" fill-opacity="1" stroke-width="1.3" stroke-linejoin="bevel" stroke-opacity="1" stroke-linecap="round" font-weight="400" fill="#0055ff" font-size="45.8611">
    <path vector-effect="none" fill-rule="evenodd" d="M0,0 L-50,-8.33333 L-50,8.33333 L0,0"/>
   </g>
   <g stroke="#0055ff" font-style="normal" transform="matrix(1,0,0,1,841.775,577.494)" font-family=".AppleSystemUIFont" fill-opacity="1" stroke-width="1.3" stroke-linejoin="bevel" stroke-opacity="1" stroke-linecap="round" font-weight="400" fill="#0055ff" font-size="45.8611">
    <path vector-effect="none" fill-rule="evenodd" d="M0,0 L50,8.33333 L50,-8.33333 L0,0"/>
   </g>
   <g stroke="#0055ff" font-style="normal" transform="matrix(1,0,0,1,1077.07,437.577)" font-family=".AppleSystemUIFont" stroke-width="1" stroke-linejoin="bevel" stroke-opacity="1" stroke-linecap="square" font-weight="400" fill="none" font-size="45.8611">
    <text stroke="none" font-style="normal" font-family="osifont" fill-opacity="1" x="4" font-weight="400" fill="#0055ff" xml:space="preserve" y="69.8438" font-size="50">15</text>
   </g>
   <g stroke="#0055ff" font-style="normal" transform="matrix(1,0,0,1,1101.77,1456.76)" font-family=".AppleSystemUIFont" stroke-width="1.3" stroke-linejoin="bevel" stroke-opacity="1" stroke-linecap="round" font-weight="400" fill="none" font-size="45.8611">
    <path vector-effect="none" fill-rule="evenodd" d="M-60,-938.332 L60,-938.332 M60,-820 L60,-948.732 M-60,-820 L-60,-948.732"/>
   </g>
   <g stroke="#0055ff" font-style="normal" transform="matrix(1,0,0,1,1161.77,518.427)" font-family=".AppleSystemUIFont" fill-opacity="1" stroke-width="1.3" stroke-linejoin="bevel" stroke-opacity="1" stroke-linecap="round" font-weight="400" fill="#0055ff" font-size="45.8611">
    <path vector-effect="none" fill-rule="evenodd" d="M0,0 L-50,-8.33333 L-50,8.33333 L0,0"/>
   </g>
   <g stroke="#0055ff" font-style="normal" transform="matrix(1,0,0,1,1041.77,518.427)" font-family=".AppleSystemUIFont" fill-opacity="1" stroke-width="1.3" stroke-linejoin="bevel" stroke-opacity="1" stroke-linecap="round" font-weight="400" fill="#0055ff" font-size="45.8611">
    <path vector-effect="none" fill-rule="evenodd" d="M0,0 L50,8.33333 L50,-8.33333 L0,0"/>
   </g>
   <g stroke="#0055ff" font-style="normal" transform="matrix(1,0,0,1,1242.43,502.092)" font-family=".AppleSystemUIFont" stroke-width="1" stroke-linejoin="bevel" stroke-opacity="1" stroke-linecap="square" font-weight="400" fill="none" font-size="45.8611">
    <text stroke="none" font-style="normal" font-family="osifont" fill-opacity="1" x="4" font-weight="400" fill="#0055ff" xml:space="preserve" y="69.8438" font-size="50">25</text>
   </g>
   <g stroke="#0055ff" font-style="normal" transform="matrix(1,0,0,1,1101.77,1456.76)" font-family=".AppleSystemUIFont" stroke-width="1.3" stroke-linejoin="bevel" stroke-opacity="1" stroke-linecap="round" font-weight="400" fill="none" font-size="45.8611">
    <path vector-effect="none" fill-rule="evenodd" d="M60,-873.817 L260,-873.817 M260,-780 L260,-884.217 M60,-780 L60,-884.217"/>
   </g>
   <g stroke="#0055ff" font-style="normal" transform="matrix(1,0,0,1,1361.77,582.942)" font-family=".AppleSystemUIFont" fill-opacity="1" stroke-width="1.3" stroke-linejoin="bevel" stroke-opacity="1" stroke-linecap="round" font-weight="400" fill="#0055ff" font-size="45.8611">
    <path vector-effect="none" fill-rule="evenodd" d="M0,0 L-50,-8.33333 L-50,8.33333 L0,0"/>
   </g>
   <g stroke="#0055ff" font-style="normal" transform="matrix(1,0,0,1,1161.77,582.942)" font-family=".AppleSystemUIFont" fill-opacity="1" stroke-width="1.3" stroke-linejoin="bevel" stroke-opacity="1" stroke-linecap="round" font-weight="400" fill="#0055ff" font-size="45.8611">
    <path vector-effect="none" fill-rule="evenodd" d="M0,0 L50,8.33333 L50,-8.33333 L0,0"/>
   </g>
   <g stroke="#0055ff" font-style="normal" transform="matrix(0,-1,1,0,1413.83,596.099)" font-family=".AppleSystemUIFont" stroke-width="1" stroke-linejoin="bevel" stroke-opacity="1" stroke-linecap="square" font-weight="400" fill="none" font-size="45.8611">
    <text stroke="none" font-style="normal" font-family="osifont" fill-opacity="1" x="4" font-weight="400" fill="#0055ff" xml:space="preserve" y="69.8438" font-size="50">5</text>
   </g>
   <g stroke="#0055ff" font-style="normal" transform="matrix(1,0,0,1,1101.77,1456.76)" font-family=".AppleSystemUIFont" stroke-width="1.3" stroke-linejoin="bevel" stroke-opacity="1" stroke-linecap="round" font-weight="400" fill="none" font-size="45.8611">
    <path vector-effect="none" fill-rule="evenodd" d="M392.902,-920 L392.902,-680 M60,-780 L403.302,-780 M60,-820 L403.302,-820"/>
   </g>
   <g stroke="#0055ff" font-style="normal" transform="matrix(1,0,0,1,1494.68,676.759)" font-family=".AppleSystemUIFont" fill-opacity="1" stroke-width="1.3" stroke-linejoin="bevel" stroke-opacity="1" stroke-linecap="round" font-weight="400" fill="#0055ff" font-size="45.8611">
    <path vector-effect="none" fill-rule="evenodd" d="M0,0 L-8.33333,50 L8.33333,50 L0,0"/>
   </g>
   <g stroke="#0055ff" font-style="normal" transform="matrix(1,0,0,1,1494.68,636.759)" font-family=".AppleSystemUIFont" fill-opacity="1" stroke-width="1.3" stroke-linejoin="bevel" stroke-opacity="1" stroke-linecap="round" font-weight="400" fill="#0055ff" font-size="45.8611">
    <path vector-effect="none" fill-rule="evenodd" d="M0,0 L8.33333,-50 L-8.33333,-50 L0,0"/>
   </g>
   <g stroke="#0055ff" font-style="normal" transform="matrix(1,0,0,1,705.308,539.402)" font-family=".AppleSystemUIFont" stroke-width="1" stroke-linejoin="bevel" stroke-opacity="1" stroke-linecap="square" font-weight="400" fill="none" font-size="45.8611">
    <text stroke="none" font-style="normal" font-family="osifont" fill-opacity="1" x="4" font-weight="400" fill="#0055ff" xml:space="preserve" y="69.8438" font-size="50">5</text>
   </g>
   <g stroke="#0055ff" font-style="normal" transform="matrix(1,0,0,1,1101.77,1456.76)" font-family=".AppleSystemUIFont" stroke-width="1.3" stroke-linejoin="bevel" stroke-opacity="1" stroke-linecap="round" font-weight="400" fill="none" font-size="45.8611">
    <path vector-effect="none" fill-rule="evenodd" d="M-400,-836.508 L-160,-836.508 M-260,-424 L-260,-846.908 M-300,-424 L-300,-846.908"/>
   </g>
   <g stroke="#0055ff" font-style="normal" transform="matrix(1,0,0,1,841.775,620.252)" font-family=".AppleSystemUIFont" fill-opacity="1" stroke-width="1.3" stroke-linejoin="bevel" stroke-opacity="1" stroke-linecap="round" font-weight="400" fill="#0055ff" font-size="45.8611">
    <path vector-effect="none" fill-rule="evenodd" d="M0,0 L50,8.33333 L50,-8.33333 L0,0"/>
   </g>
   <g stroke="#0055ff" font-style="normal" transform="matrix(1,0,0,1,801.775,620.252)" font-family=".AppleSystemUIFont" fill-opacity="1" stroke-width="1.3" stroke-linejoin="bevel" stroke-opacity="1" stroke-linecap="round" font-weight="400" fill="#0055ff" font-size="45.8611">
    <path vector-effect="none" fill-rule="evenodd" d="M0,0 L-50,-8.33333 L-50,8.33333 L0,0"/>
   </g>
   <g stroke="#0055ff" font-style="normal" transform="matrix(1,0,0,1,1071.19,2339.92)" font-family=".AppleSystemUIFont" stroke-width="1" stroke-linejoin="bevel" stroke-opacity="1" stroke-linecap="square" font-weight="400" fill="none" font-size="45.8611">
    <text stroke="none" font-style="normal" font-family="osifont" fill-opacity="1" x="4" font-weight="400" fill="#0055ff" xml:space="preserve" y="69.8438" font-size="50">65</text>
   </g>
   <g stroke="#0055ff" font-style="normal" transform="matrix(1,0,0,1,1101.77,1456.76)" font-family=".AppleSystemUIFont" stroke-width="1.3" stroke-linejoin="bevel" stroke-opacity="1" stroke-linecap="round" font-weight="400" fill="none" font-size="45.8611">
    <path vector-effect="none" fill-rule="evenodd" d="M-260,964.016 L260,964.016 M260,780 L260,974.416 M-260,780 L-260,974.416"/>
   </g>
   <g stroke="#0055ff" font-style="normal" transform="matrix(1,0,0,1,1361.77,2420.77)" font-family=".AppleSystemUIFont" fill-opacity="1" stroke-width="1.3" stroke-linejoin="bevel" stroke-opacity="1" stroke-linecap="round" font-weight="400" fill="#0055ff" font-size="45.8611">
    <path vector-effect="none" fill-rule="evenodd" d="M0,0 L-50,-8.33333 L-50,8.33333 L0,0"/>
   </g>
   <g stroke="#0055ff" font-style="normal" transform="matrix(1,0,0,1,841.775,2420.77)" font-family=".AppleSystemUIFont" fill-opacity="1" stroke-width="1.3" stroke-linejoin="bevel" stroke-opacity="1" stroke-linecap="round" font-weight="400" fill="#0055ff" font-size="45.8611">
    <path vector-effect="none" fill-rule="evenodd" d="M0,0 L50,8.33333 L50,-8.33333 L0,0"/>
   </g>
  </g>
 </g>
</svg>
