<?xml version="1.0" encoding="UTF-8"?>
<svg xmlns="http://www.w3.org/2000/svg" xmlns:xlink="http://www.w3.org/1999/xlink" width="316.518mm" height="173.579mm" viewBox="-331.258789 -190.789581 316.517883 173.579468">
    <path transform="matrix(-0.502107,0.864806,-0.864806,-0.502107,-105.557999,-16.108673)" style="stroke:#0000ff;stroke-width:0.05mm;fill:none" d="M-57.393299,109.208L-43.643299,133.022995L-39.313202,130.522995L-31.8132,143.514008L-36.143299,146.014008L-29.955799,156.731003L-34.285999,159.231003L-34.973499,158.039993L-38.437599,160.039993L-37.750099,161.231003L-40.348202,162.731003L-37.723202,167.278L-35.125099,165.778L-34.437599,166.968002L-30.973499,164.968002L-31.660999,163.778L-27.330799,161.278L-21.143299,171.994995L-16.8132,169.494995L-9.31322,182.485001L-13.6433,184.985001L17.656677,239.197739C20.418121,243.980652,18.779358,250.096588,13.996399,252.858002L1.00602,260.358002L-1.49398,256.028015L-14.4844,263.528015L-11.9844,267.858002L-24.974762,275.358032C-29.75769,278.119446,-35.873596,276.480713,-38.63504,271.697784L-69.934998,217.485001L-74.265099,219.985001L-81.765099,206.994995L-77.434998,204.494995L-83.622498,193.778L-80.158401,191.778L-79.470901,192.968002L-76.006798,190.968002L-76.694298,189.778L-73.230202,187.778L-75.855202,183.231003L-79.319298,185.231003L-80.006798,184.039993L-83.470901,186.039993L-82.783401,187.231003L-86.247498,189.231003L-92.434998,178.514008L-96.765099,181.014008L-104.264999,168.022995L-99.934998,165.522995L-186.839722,15C-188.626038,11.906006,-188.626053,8.094025,-186.839722,5C-185.053375,1.905945,-181.752121,0,-178.179489,0L-3.000031,0C-1.34314,0,0,1.34314,0,3L0,10L-8.66025,15L-8.66025,10C-30.683775,12.897457,-49.799248,26.616566,-59.593002,46.55426C-69.386757,66.491959,-68.561104,90.006493,-57.393089,109.208183"/>
</svg>
