<?xml version="1.0" encoding="UTF-8"?>
<svg xmlns="http://www.w3.org/2000/svg" xmlns:xlink="http://www.w3.org/1999/xlink" width="160.000mm" height="300.900mm" viewBox="-188.000000 -361.450012 160.000000 300.899994">
    <circle transform="matrix(1,0,0,-1,-108,-343.950012)" style="stroke:#0000ff;stroke-width:0.05mm;fill:none" r="2.625" cx="0" cy="0"/>
    <circle transform="matrix(1,0,0,-1,-178,-243.950027)" style="stroke:#0000ff;stroke-width:0.05mm;fill:none" r="2.625" cx="0" cy="0"/>
    <circle transform="matrix(1,0,0,-1,-38.099998,-243.950027)" style="stroke:#0000ff;stroke-width:0.05mm;fill:none" r="2.625" cx="0" cy="0"/>
    <path transform="matrix(1,0,0,-1,-108,-211.000031)" style="stroke:#0000ff;stroke-width:0.05mm;fill:none" d="M-70,-150.450012C-75.522842,-150.450012,-80,-145.97287,-80,-140.450012L-80,140.449997C-80,145.972839,-75.522842,150.449997,-70,150.449997L70,150.449997C75.522842,150.449997,80,145.972839,80,140.449997L80,-140.450012C80,-145.97287,75.52285,-150.450012,70,-150.450012L-70,-150.450012z"/>
    <path transform="matrix(1,0,0,-1,-108,-211.000031)" style="stroke:#0000ff;stroke-width:0.05mm;fill:none" d="M67.300003,47.950001L72.5,47.950001L72.5,62.950001L67.300003,62.950001L67.300003,47.950001z"/>
    <path transform="matrix(1,0,0,-1,-108,-211.000031)" style="stroke:#0000ff;stroke-width:0.05mm;fill:none" d="M-72.599998,47.950001L-67.400002,47.950001L-67.400002,62.950001L-72.599998,62.950001L-72.599998,47.950001z"/>
    <path transform="matrix(1,0,0,-1,-108,-211.000031)" style="stroke:#0000ff;stroke-width:0.05mm;fill:none" d="M-72.599998,2.95L-67.400002,2.95L-67.400002,17.950001L-72.599998,17.950001L-72.599998,2.95z"/>
    <path transform="matrix(1,0,0,-1,-108,-211.000031)" style="stroke:#0000ff;stroke-width:0.05mm;fill:none" d="M67.300003,2.95L72.5,2.95L72.5,17.950001L67.300003,17.950001L67.300003,2.95z"/>
    <path transform="matrix(1,0,0,-1,-108,-211.000031)" style="stroke:#0000ff;stroke-width:0.05mm;fill:none" d="M-32.700001,130.350006L-17.5,130.350006L-17.5,135.550003L-32.700001,135.550003L-32.700001,130.350006z"/>
    <path transform="matrix(1,0,0,-1,-108,-211.000031)" style="stroke:#0000ff;stroke-width:0.05mm;fill:none" d="M17.5,130.350006L32.700001,130.350006L32.700001,135.550003L17.5,135.550003L17.5,130.350006z"/>
    <path transform="matrix(1,0,0,-1,-108,-211.000031)" style="stroke:#0000ff;stroke-width:0.05mm;fill:none" d="M-80,-14.05L-50,-14.05L-50,-12.05L-80,-12.05L-80,-14.05z"/>
    <path transform="matrix(1,0,0,-1,-108,-211.000031)" style="stroke:#0000ff;stroke-width:0.05mm;fill:none" d="M-46,-14.05L-16,-14.05L-16,-12.05L-46,-12.05L-46,-14.05z"/>
    <path transform="matrix(1,0,0,-1,-108,-211.000031)" style="stroke:#0000ff;stroke-width:0.05mm;fill:none" d="M-12,-14.05L18,-14.05L18,-12.05L-12,-12.05L-12,-14.05z"/>
    <path transform="matrix(1,0,0,-1,-108,-211.000031)" style="stroke:#0000ff;stroke-width:0.05mm;fill:none" d="M22,-14.05L52,-14.05L52,-12.05L22,-12.05L22,-14.05z"/>
    <path transform="matrix(1,0,0,-1,-108,-211.000031)" style="stroke:#0000ff;stroke-width:0.05mm;fill:none" d="M80,-14.05L56,-14.05L56,-12.05L80,-12.05L80,-14.05z"/>
    <path transform="matrix(1,0,0,-1,-108,-211.000031)" style="stroke:#0000ff;stroke-width:0.05mm;fill:none" d="M-52,-19.049999L-22,-19.049999L-22,-17.049999L-52,-17.049999L-52,-19.049999z"/>
    <path transform="matrix(1,0,0,-1,-108,-211.000031)" style="stroke:#0000ff;stroke-width:0.05mm;fill:none" d="M-18,-19.049999L12,-19.049999L12,-17.049999L-18,-17.049999L-18,-19.049999z"/>
    <path transform="matrix(1,0,0,-1,-108,-211.000031)" style="stroke:#0000ff;stroke-width:0.05mm;fill:none" d="M16,-19.049999L46,-19.049999L46,-17.049999L16,-17.049999L16,-19.049999z"/>
    <path transform="matrix(1,0,0,-1,-108,-211.000031)" style="stroke:#0000ff;stroke-width:0.05mm;fill:none" d="M50,-19.049999L80,-19.049999L80,-17.049999L50,-17.049999L50,-19.049999z"/>
    <path transform="matrix(1,0,0,-1,-108,-211.000031)" style="stroke:#0000ff;stroke-width:0.05mm;fill:none" d="M-80,-19.049999L-56,-19.049999L-56,-17.049999L-80,-17.049999L-80,-19.049999z"/>
    <path transform="matrix(1,0,0,-1,-108,-211.000031)" style="stroke:#0000ff;stroke-width:0.05mm;fill:none" d="M-80,-24.049999L-50,-24.049999L-50,-22.049999L-80,-22.049999L-80,-24.049999z"/>
    <path transform="matrix(1,0,0,-1,-108,-211.000031)" style="stroke:#0000ff;stroke-width:0.05mm;fill:none" d="M-46,-24.049999L-16,-24.049999L-16,-22.049999L-46,-22.049999L-46,-24.049999z"/>
    <path transform="matrix(1,0,0,-1,-108,-211.000031)" style="stroke:#0000ff;stroke-width:0.05mm;fill:none" d="M-12,-24.049999L18,-24.049999L18,-22.049999L-12,-22.049999L-12,-24.049999z"/>
    <path transform="matrix(1,0,0,-1,-108,-211.000031)" style="stroke:#0000ff;stroke-width:0.05mm;fill:none" d="M22,-24.049999L52,-24.049999L52,-22.049999L22,-22.049999L22,-24.049999z"/>
    <path transform="matrix(1,0,0,-1,-108,-211.000031)" style="stroke:#0000ff;stroke-width:0.05mm;fill:none" d="M80,-24.049999L56,-24.049999L56,-22.049999L80,-22.049999L80,-24.049999z"/>
    <path transform="matrix(1,0,0,-1,-108,-211.000031)" style="stroke:#0000ff;stroke-width:0.05mm;fill:none" d="M-52,-29.049999L-22,-29.049999L-22,-27.049999L-52,-27.049999L-52,-29.049999z"/>
    <path transform="matrix(1,0,0,-1,-108,-211.000031)" style="stroke:#0000ff;stroke-width:0.05mm;fill:none" d="M-18,-29.049999L12,-29.049999L12,-27.049999L-18,-27.049999L-18,-29.049999z"/>
    <path transform="matrix(1,0,0,-1,-108,-211.000031)" style="stroke:#0000ff;stroke-width:0.05mm;fill:none" d="M16,-29.049999L46,-29.049999L46,-27.049999L16,-27.049999L16,-29.049999z"/>
    <path transform="matrix(1,0,0,-1,-108,-211.000031)" style="stroke:#0000ff;stroke-width:0.05mm;fill:none" d="M50,-29.049999L80,-29.049999L80,-27.049999L50,-27.049999L50,-29.049999z"/>
    <path transform="matrix(1,0,0,-1,-108,-211.000031)" style="stroke:#0000ff;stroke-width:0.05mm;fill:none" d="M-80,-29.049999L-56,-29.049999L-56,-27.049999L-80,-27.049999L-80,-29.049999z"/>
    <path transform="matrix(1,0,0,-1,-108,-211.000031)" style="stroke:#0000ff;stroke-width:0.05mm;fill:none" d="M-80,-34.049999L-50,-34.049999L-50,-32.049999L-80,-32.049999L-80,-34.049999z"/>
    <path transform="matrix(1,0,0,-1,-108,-211.000031)" style="stroke:#0000ff;stroke-width:0.05mm;fill:none" d="M-46,-34.049999L-16,-34.049999L-16,-32.049999L-46,-32.049999L-46,-34.049999z"/>
    <path transform="matrix(1,0,0,-1,-108,-211.000031)" style="stroke:#0000ff;stroke-width:0.05mm;fill:none" d="M-12,-34.049999L18,-34.049999L18,-32.049999L-12,-32.049999L-12,-34.049999z"/>
    <path transform="matrix(1,0,0,-1,-108,-211.000031)" style="stroke:#0000ff;stroke-width:0.05mm;fill:none" d="M22,-34.049999L52,-34.049999L52,-32.049999L22,-32.049999L22,-34.049999z"/>
    <path transform="matrix(1,0,0,-1,-108,-211.000031)" style="stroke:#0000ff;stroke-width:0.05mm;fill:none" d="M80,-34.049999L56,-34.049999L56,-32.049999L80,-32.049999L80,-34.049999z"/>
    <path transform="matrix(1,0,0,-1,-108,-211.000031)" style="stroke:#0000ff;stroke-width:0.05mm;fill:none" d="M-52,-39.049999L-22,-39.049999L-22,-37.049999L-52,-37.049999L-52,-39.049999z"/>
    <path transform="matrix(1,0,0,-1,-108,-211.000031)" style="stroke:#0000ff;stroke-width:0.05mm;fill:none" d="M-18,-39.049999L12,-39.049999L12,-37.049999L-18,-37.049999L-18,-39.049999z"/>
    <path transform="matrix(1,0,0,-1,-108,-211.000031)" style="stroke:#0000ff;stroke-width:0.05mm;fill:none" d="M16,-39.049999L46,-39.049999L46,-37.049999L16,-37.049999L16,-39.049999z"/>
    <path transform="matrix(1,0,0,-1,-108,-211.000031)" style="stroke:#0000ff;stroke-width:0.05mm;fill:none" d="M50,-39.049999L80,-39.049999L80,-37.049999L50,-37.049999L50,-39.049999z"/>
    <path transform="matrix(1,0,0,-1,-108,-211.000031)" style="stroke:#0000ff;stroke-width:0.05mm;fill:none" d="M-80,-39.049999L-56,-39.049999L-56,-37.049999L-80,-37.049999L-80,-39.049999z"/>
    <path transform="matrix(1,0,0,-1,-108,-211.000031)" style="stroke:#0000ff;stroke-width:0.05mm;fill:none" d="M-80,-44.049999L-50,-44.049999L-50,-42.049999L-80,-42.049999L-80,-44.049999z"/>
    <path transform="matrix(1,0,0,-1,-108,-211.000031)" style="stroke:#0000ff;stroke-width:0.05mm;fill:none" d="M-46,-44.049999L-16,-44.049999L-16,-42.049999L-46,-42.049999L-46,-44.049999z"/>
    <path transform="matrix(1,0,0,-1,-108,-211.000031)" style="stroke:#0000ff;stroke-width:0.05mm;fill:none" d="M-12,-44.049999L18,-44.049999L18,-42.049999L-12,-42.049999L-12,-44.049999z"/>
    <path transform="matrix(1,0,0,-1,-108,-211.000031)" style="stroke:#0000ff;stroke-width:0.05mm;fill:none" d="M22,-44.049999L52,-44.049999L52,-42.049999L22,-42.049999L22,-44.049999z"/>
    <path transform="matrix(1,0,0,-1,-108,-211.000031)" style="stroke:#0000ff;stroke-width:0.05mm;fill:none" d="M80,-44.049999L56,-44.049999L56,-42.049999L80,-42.049999L80,-44.049999z"/>
    <path transform="matrix(1,0,0,-1,-108,-211.000031)" style="stroke:#0000ff;stroke-width:0.05mm;fill:none" d="M-52,-49.049999L-22,-49.049999L-22,-47.049999L-52,-47.049999L-52,-49.049999z"/>
    <path transform="matrix(1,0,0,-1,-108,-211.000031)" style="stroke:#0000ff;stroke-width:0.05mm;fill:none" d="M-18,-49.049999L12,-49.049999L12,-47.049999L-18,-47.049999L-18,-49.049999z"/>
    <path transform="matrix(1,0,0,-1,-108,-211.000031)" style="stroke:#0000ff;stroke-width:0.05mm;fill:none" d="M16,-49.049999L46,-49.049999L46,-47.049999L16,-47.049999L16,-49.049999z"/>
    <path transform="matrix(1,0,0,-1,-108,-211.000031)" style="stroke:#0000ff;stroke-width:0.05mm;fill:none" d="M50,-49.049999L80,-49.049999L80,-47.049999L50,-47.049999L50,-49.049999z"/>
    <path transform="matrix(1,0,0,-1,-108,-211.000031)" style="stroke:#0000ff;stroke-width:0.05mm;fill:none" d="M-80,-49.049999L-56,-49.049999L-56,-47.049999L-80,-47.049999L-80,-49.049999z"/>
    <path transform="matrix(1,0,0,-1,-108,-211.000031)" style="stroke:#0000ff;stroke-width:0.05mm;fill:none" d="M-80,-54.049999L-50,-54.049999L-50,-52.049999L-80,-52.049999L-80,-54.049999z"/>
    <path transform="matrix(1,0,0,-1,-108,-211.000031)" style="stroke:#0000ff;stroke-width:0.05mm;fill:none" d="M-46,-54.049999L-16,-54.049999L-16,-52.049999L-46,-52.049999L-46,-54.049999z"/>
    <path transform="matrix(1,0,0,-1,-108,-211.000031)" style="stroke:#0000ff;stroke-width:0.05mm;fill:none" d="M-12,-54.049999L18,-54.049999L18,-52.049999L-12,-52.049999L-12,-54.049999z"/>
    <path transform="matrix(1,0,0,-1,-108,-211.000031)" style="stroke:#0000ff;stroke-width:0.05mm;fill:none" d="M22,-54.049999L52,-54.049999L52,-52.049999L22,-52.049999L22,-54.049999z"/>
    <path transform="matrix(1,0,0,-1,-108,-211.000031)" style="stroke:#0000ff;stroke-width:0.05mm;fill:none" d="M80,-54.049999L56,-54.049999L56,-52.049999L80,-52.049999L80,-54.049999z"/>
    <path transform="matrix(1,0,0,-1,-108,-211.000031)" style="stroke:#0000ff;stroke-width:0.05mm;fill:none" d="M-52,-59.049999L-22,-59.049999L-22,-57.049999L-52,-57.049999L-52,-59.049999z"/>
    <path transform="matrix(1,0,0,-1,-108,-211.000031)" style="stroke:#0000ff;stroke-width:0.05mm;fill:none" d="M-18,-59.049999L12,-59.049999L12,-57.049999L-18,-57.049999L-18,-59.049999z"/>
    <path transform="matrix(1,0,0,-1,-108,-211.000031)" style="stroke:#0000ff;stroke-width:0.05mm;fill:none" d="M16,-59.049999L46,-59.049999L46,-57.049999L16,-57.049999L16,-59.049999z"/>
    <path transform="matrix(1,0,0,-1,-108,-211.000031)" style="stroke:#0000ff;stroke-width:0.05mm;fill:none" d="M50,-59.049999L80,-59.049999L80,-57.049999L50,-57.049999L50,-59.049999z"/>
    <path transform="matrix(1,0,0,-1,-108,-211.000031)" style="stroke:#0000ff;stroke-width:0.05mm;fill:none" d="M-80,-59.049999L-56,-59.049999L-56,-57.049999L-80,-57.049999L-80,-59.049999z"/>
    <path transform="matrix(1,0,0,-1,-108,-211.000031)" style="stroke:#0000ff;stroke-width:0.05mm;fill:none" d="M-80,-64.050003L-50,-64.050003L-50,-62.049999L-80,-62.049999L-80,-64.050003z"/>
    <path transform="matrix(1,0,0,-1,-108,-211.000031)" style="stroke:#0000ff;stroke-width:0.05mm;fill:none" d="M-46,-64.050003L-16,-64.050003L-16,-62.049999L-46,-62.049999L-46,-64.050003z"/>
    <path transform="matrix(1,0,0,-1,-108,-211.000031)" style="stroke:#0000ff;stroke-width:0.05mm;fill:none" d="M-12,-64.050003L18,-64.050003L18,-62.049999L-12,-62.049999L-12,-64.050003z"/>
    <path transform="matrix(1,0,0,-1,-108,-211.000031)" style="stroke:#0000ff;stroke-width:0.05mm;fill:none" d="M22,-64.050003L52,-64.050003L52,-62.049999L22,-62.049999L22,-64.050003z"/>
    <path transform="matrix(1,0,0,-1,-108,-211.000031)" style="stroke:#0000ff;stroke-width:0.05mm;fill:none" d="M80,-64.050003L56,-64.050003L56,-62.049999L80,-62.049999L80,-64.050003z"/>
    <path transform="matrix(1,0,0,-1,-108,-211.000031)" style="stroke:#0000ff;stroke-width:0.05mm;fill:none" d="M-52,-69.050003L-22,-69.050003L-22,-67.050003L-52,-67.050003L-52,-69.050003z"/>
    <path transform="matrix(1,0,0,-1,-108,-211.000031)" style="stroke:#0000ff;stroke-width:0.05mm;fill:none" d="M-18,-69.050003L12,-69.050003L12,-67.050003L-18,-67.050003L-18,-69.050003z"/>
    <path transform="matrix(1,0,0,-1,-108,-211.000031)" style="stroke:#0000ff;stroke-width:0.05mm;fill:none" d="M16,-69.050003L46,-69.050003L46,-67.050003L16,-67.050003L16,-69.050003z"/>
    <path transform="matrix(1,0,0,-1,-108,-211.000031)" style="stroke:#0000ff;stroke-width:0.05mm;fill:none" d="M50,-69.050003L80,-69.050003L80,-67.050003L50,-67.050003L50,-69.050003z"/>
    <path transform="matrix(1,0,0,-1,-108,-211.000031)" style="stroke:#0000ff;stroke-width:0.05mm;fill:none" d="M-80,-69.050003L-56,-69.050003L-56,-67.050003L-80,-67.050003L-80,-69.050003z"/>
    <path transform="matrix(1,0,0,-1,-108,-211.000031)" style="stroke:#0000ff;stroke-width:0.05mm;fill:none" d="M-80,-74.050003L-50,-74.050003L-50,-72.050003L-80,-72.050003L-80,-74.050003z"/>
    <path transform="matrix(1,0,0,-1,-108,-211.000031)" style="stroke:#0000ff;stroke-width:0.05mm;fill:none" d="M-46,-74.050003L-16,-74.050003L-16,-72.050003L-46,-72.050003L-46,-74.050003z"/>
    <path transform="matrix(1,0,0,-1,-108,-211.000031)" style="stroke:#0000ff;stroke-width:0.05mm;fill:none" d="M-12,-74.050003L18,-74.050003L18,-72.050003L-12,-72.050003L-12,-74.050003z"/>
    <path transform="matrix(1,0,0,-1,-108,-211.000031)" style="stroke:#0000ff;stroke-width:0.05mm;fill:none" d="M22,-74.050003L52,-74.050003L52,-72.050003L22,-72.050003L22,-74.050003z"/>
    <path transform="matrix(1,0,0,-1,-108,-211.000031)" style="stroke:#0000ff;stroke-width:0.05mm;fill:none" d="M80,-74.050003L56,-74.050003L56,-72.050003L80,-72.050003L80,-74.050003z"/>
    <path transform="matrix(1,0,0,-1,-108,-211.000031)" style="stroke:#0000ff;stroke-width:0.05mm;fill:none" d="M-52,-79.050003L-22,-79.050003L-22,-77.050003L-52,-77.050003L-52,-79.050003z"/>
    <path transform="matrix(1,0,0,-1,-108,-211.000031)" style="stroke:#0000ff;stroke-width:0.05mm;fill:none" d="M-18,-79.050003L12,-79.050003L12,-77.050003L-18,-77.050003L-18,-79.050003z"/>
    <path transform="matrix(1,0,0,-1,-108,-211.000031)" style="stroke:#0000ff;stroke-width:0.05mm;fill:none" d="M16,-79.050003L46,-79.050003L46,-77.050003L16,-77.050003L16,-79.050003z"/>
    <path transform="matrix(1,0,0,-1,-108,-211.000031)" style="stroke:#0000ff;stroke-width:0.05mm;fill:none" d="M50,-79.050003L80,-79.050003L80,-77.050003L50,-77.050003L50,-79.050003z"/>
    <path transform="matrix(1,0,0,-1,-108,-211.000031)" style="stroke:#0000ff;stroke-width:0.05mm;fill:none" d="M-80,-79.050003L-56,-79.050003L-56,-77.050003L-80,-77.050003L-80,-79.050003z"/>
    <path transform="matrix(1,0,0,-1,-108,-211.000031)" style="stroke:#0000ff;stroke-width:0.05mm;fill:none" d="M-80,-84.050003L-50,-84.050003L-50,-82.050003L-80,-82.050003L-80,-84.050003z"/>
    <path transform="matrix(1,0,0,-1,-108,-211.000031)" style="stroke:#0000ff;stroke-width:0.05mm;fill:none" d="M-46,-84.050003L-16,-84.050003L-16,-82.050003L-46,-82.050003L-46,-84.050003z"/>
    <path transform="matrix(1,0,0,-1,-108,-211.000031)" style="stroke:#0000ff;stroke-width:0.05mm;fill:none" d="M-12,-84.050003L18,-84.050003L18,-82.050003L-12,-82.050003L-12,-84.050003z"/>
    <path transform="matrix(1,0,0,-1,-108,-211.000031)" style="stroke:#0000ff;stroke-width:0.05mm;fill:none" d="M22,-84.050003L52,-84.050003L52,-82.050003L22,-82.050003L22,-84.050003z"/>
    <path transform="matrix(1,0,0,-1,-108,-211.000031)" style="stroke:#0000ff;stroke-width:0.05mm;fill:none" d="M80,-84.050003L56,-84.050003L56,-82.050003L80,-82.050003L80,-84.050003z"/>
    <path transform="matrix(1,0,0,-1,-108,-211.000031)" style="stroke:#0000ff;stroke-width:0.05mm;fill:none" d="M-52,-89.050003L-22,-89.050003L-22,-87.050003L-52,-87.050003L-52,-89.050003z"/>
    <path transform="matrix(1,0,0,-1,-108,-211.000031)" style="stroke:#0000ff;stroke-width:0.05mm;fill:none" d="M-18,-89.050003L12,-89.050003L12,-87.050003L-18,-87.050003L-18,-89.050003z"/>
    <path transform="matrix(1,0,0,-1,-108,-211.000031)" style="stroke:#0000ff;stroke-width:0.05mm;fill:none" d="M16,-89.050003L46,-89.050003L46,-87.050003L16,-87.050003L16,-89.050003z"/>
    <path transform="matrix(1,0,0,-1,-108,-211.000031)" style="stroke:#0000ff;stroke-width:0.05mm;fill:none" d="M50,-89.050003L80,-89.050003L80,-87.050003L50,-87.050003L50,-89.050003z"/>
    <path transform="matrix(1,0,0,-1,-108,-211.000031)" style="stroke:#0000ff;stroke-width:0.05mm;fill:none" d="M-80,-89.050003L-56,-89.050003L-56,-87.050003L-80,-87.050003L-80,-89.050003z"/>
    <path transform="matrix(1,0,0,-1,-108,-211.000031)" style="stroke:#0000ff;stroke-width:0.05mm;fill:none" d="M-80,-94.050003L-50,-94.050003L-50,-92.050003L-80,-92.050003L-80,-94.050003z"/>
    <path transform="matrix(1,0,0,-1,-108,-211.000031)" style="stroke:#0000ff;stroke-width:0.05mm;fill:none" d="M-46,-94.050003L-16,-94.050003L-16,-92.050003L-46,-92.050003L-46,-94.050003z"/>
    <path transform="matrix(1,0,0,-1,-108,-211.000031)" style="stroke:#0000ff;stroke-width:0.05mm;fill:none" d="M-12,-94.050003L18,-94.050003L18,-92.050003L-12,-92.050003L-12,-94.050003z"/>
    <path transform="matrix(1,0,0,-1,-108,-211.000031)" style="stroke:#0000ff;stroke-width:0.05mm;fill:none" d="M22,-94.050003L52,-94.050003L52,-92.050003L22,-92.050003L22,-94.050003z"/>
    <path transform="matrix(1,0,0,-1,-108,-211.000031)" style="stroke:#0000ff;stroke-width:0.05mm;fill:none" d="M80,-94.050003L56,-94.050003L56,-92.050003L80,-92.050003L80,-94.050003z"/>
    <path transform="matrix(1,0,0,-1,-108,-211.000031)" style="stroke:#0000ff;stroke-width:0.05mm;fill:none" d="M-52,-99.050003L-22,-99.050003L-22,-97.050003L-52,-97.050003L-52,-99.050003z"/>
    <path transform="matrix(1,0,0,-1,-108,-211.000031)" style="stroke:#0000ff;stroke-width:0.05mm;fill:none" d="M-18,-99.050003L12,-99.050003L12,-97.050003L-18,-97.050003L-18,-99.050003z"/>
    <path transform="matrix(1,0,0,-1,-108,-211.000031)" style="stroke:#0000ff;stroke-width:0.05mm;fill:none" d="M16,-99.050003L46,-99.050003L46,-97.050003L16,-97.050003L16,-99.050003z"/>
    <path transform="matrix(1,0,0,-1,-108,-211.000031)" style="stroke:#0000ff;stroke-width:0.05mm;fill:none" d="M50,-99.050003L80,-99.050003L80,-97.050003L50,-97.050003L50,-99.050003z"/>
    <path transform="matrix(1,0,0,-1,-108,-211.000031)" style="stroke:#0000ff;stroke-width:0.05mm;fill:none" d="M-80,-99.050003L-56,-99.050003L-56,-97.050003L-80,-97.050003L-80,-99.050003z"/>
    <path transform="matrix(1,0,0,-1,-108,-211.000031)" style="stroke:#0000ff;stroke-width:0.05mm;fill:none" d="M-80,-104.050003L-50,-104.050003L-50,-102.050003L-80,-102.050003L-80,-104.050003z"/>
    <path transform="matrix(1,0,0,-1,-108,-211.000031)" style="stroke:#0000ff;stroke-width:0.05mm;fill:none" d="M-46,-104.050003L-16,-104.050003L-16,-102.050003L-46,-102.050003L-46,-104.050003z"/>
    <path transform="matrix(1,0,0,-1,-108,-211.000031)" style="stroke:#0000ff;stroke-width:0.05mm;fill:none" d="M-12,-104.050003L18,-104.050003L18,-102.050003L-12,-102.050003L-12,-104.050003z"/>
    <path transform="matrix(1,0,0,-1,-108,-211.000031)" style="stroke:#0000ff;stroke-width:0.05mm;fill:none" d="M22,-104.050003L52,-104.050003L52,-102.050003L22,-102.050003L22,-104.050003z"/>
    <path transform="matrix(1,0,0,-1,-108,-211.000031)" style="stroke:#0000ff;stroke-width:0.05mm;fill:none" d="M80,-104.050003L56,-104.050003L56,-102.050003L80,-102.050003L80,-104.050003z"/>
    <path transform="matrix(1,0,0,-1,-108,-211.000031)" style="stroke:#0000ff;stroke-width:0.05mm;fill:none" d="M-52,-109.050003L-22,-109.050003L-22,-107.050003L-52,-107.050003L-52,-109.050003z"/>
    <path transform="matrix(1,0,0,-1,-108,-211.000031)" style="stroke:#0000ff;stroke-width:0.05mm;fill:none" d="M-18,-109.050003L12,-109.050003L12,-107.050003L-18,-107.050003L-18,-109.050003z"/>
    <path transform="matrix(1,0,0,-1,-108,-211.000031)" style="stroke:#0000ff;stroke-width:0.05mm;fill:none" d="M16,-109.050003L46,-109.050003L46,-107.050003L16,-107.050003L16,-109.050003z"/>
    <path transform="matrix(1,0,0,-1,-108,-211.000031)" style="stroke:#0000ff;stroke-width:0.05mm;fill:none" d="M50,-109.050003L80,-109.050003L80,-107.050003L50,-107.050003L50,-109.050003z"/>
    <path transform="matrix(1,0,0,-1,-108,-211.000031)" style="stroke:#0000ff;stroke-width:0.05mm;fill:none" d="M-80,-109.050003L-56,-109.050003L-56,-107.050003L-80,-107.050003L-80,-109.050003z"/>
    <path transform="matrix(1,0,0,-1,-108,-211.000031)" style="stroke:#0000ff;stroke-width:0.05mm;fill:none" d="M-80,-114.050003L-50,-114.050003L-50,-112.050003L-80,-112.050003L-80,-114.050003z"/>
    <path transform="matrix(1,0,0,-1,-108,-211.000031)" style="stroke:#0000ff;stroke-width:0.05mm;fill:none" d="M-46,-114.050003L-16,-114.050003L-16,-112.050003L-46,-112.050003L-46,-114.050003z"/>
    <path transform="matrix(1,0,0,-1,-108,-211.000031)" style="stroke:#0000ff;stroke-width:0.05mm;fill:none" d="M-12,-114.050003L18,-114.050003L18,-112.050003L-12,-112.050003L-12,-114.050003z"/>
    <path transform="matrix(1,0,0,-1,-108,-211.000031)" style="stroke:#0000ff;stroke-width:0.05mm;fill:none" d="M22,-114.050003L52,-114.050003L52,-112.050003L22,-112.050003L22,-114.050003z"/>
    <path transform="matrix(1,0,0,-1,-108,-211.000031)" style="stroke:#0000ff;stroke-width:0.05mm;fill:none" d="M80,-114.050003L56,-114.050003L56,-112.050003L80,-112.050003L80,-114.050003z"/>
    <path transform="matrix(1,0,0,-1,-108,-211.000031)" style="stroke:#0000ff;stroke-width:0.05mm;fill:none" d="M-52,-119.050003L-22,-119.050003L-22,-117.050003L-52,-117.050003L-52,-119.050003z"/>
    <path transform="matrix(1,0,0,-1,-108,-211.000031)" style="stroke:#0000ff;stroke-width:0.05mm;fill:none" d="M-18,-119.050003L12,-119.050003L12,-117.050003L-18,-117.050003L-18,-119.050003z"/>
    <path transform="matrix(1,0,0,-1,-108,-211.000031)" style="stroke:#0000ff;stroke-width:0.05mm;fill:none" d="M16,-119.050003L46,-119.050003L46,-117.050003L16,-117.050003L16,-119.050003z"/>
    <path transform="matrix(1,0,0,-1,-108,-211.000031)" style="stroke:#0000ff;stroke-width:0.05mm;fill:none" d="M50,-119.050003L80,-119.050003L80,-117.050003L50,-117.050003L50,-119.050003z"/>
    <path transform="matrix(1,0,0,-1,-108,-211.000031)" style="stroke:#0000ff;stroke-width:0.05mm;fill:none" d="M-80,-119.050003L-56,-119.050003L-56,-117.050003L-80,-117.050003L-80,-119.050003z"/>
    <path transform="matrix(1,0,0,-1,-108,-211.000031)" style="stroke:#0000ff;stroke-width:0.05mm;fill:none" d="M-80,-124.050003L-50,-124.050003L-50,-122.050003L-80,-122.050003L-80,-124.050003z"/>
    <path transform="matrix(1,0,0,-1,-108,-211.000031)" style="stroke:#0000ff;stroke-width:0.05mm;fill:none" d="M-46,-124.050003L-16,-124.050003L-16,-122.050003L-46,-122.050003L-46,-124.050003z"/>
    <path transform="matrix(1,0,0,-1,-108,-211.000031)" style="stroke:#0000ff;stroke-width:0.05mm;fill:none" d="M-12,-124.050003L18,-124.050003L18,-122.050003L-12,-122.050003L-12,-124.050003z"/>
    <path transform="matrix(1,0,0,-1,-108,-211.000031)" style="stroke:#0000ff;stroke-width:0.05mm;fill:none" d="M22,-124.050003L52,-124.050003L52,-122.050003L22,-122.050003L22,-124.050003z"/>
    <path transform="matrix(1,0,0,-1,-108,-211.000031)" style="stroke:#0000ff;stroke-width:0.05mm;fill:none" d="M80,-124.050003L56,-124.050003L56,-122.050003L80,-122.050003L80,-124.050003z"/>
    <path transform="matrix(1,0,0,-1,-108,-211.000031)" style="stroke:#0000ff;stroke-width:0.05mm;fill:none" d="M-52,-129.050003L-22,-129.050003L-22,-127.050003L-52,-127.050003L-52,-129.050003z"/>
    <path transform="matrix(1,0,0,-1,-108,-211.000031)" style="stroke:#0000ff;stroke-width:0.05mm;fill:none" d="M-18,-129.050003L12,-129.050003L12,-127.050003L-18,-127.050003L-18,-129.050003z"/>
    <path transform="matrix(1,0,0,-1,-108,-211.000031)" style="stroke:#0000ff;stroke-width:0.05mm;fill:none" d="M16,-129.050003L46,-129.050003L46,-127.050003L16,-127.050003L16,-129.050003z"/>
    <path transform="matrix(1,0,0,-1,-108,-211.000031)" style="stroke:#0000ff;stroke-width:0.05mm;fill:none" d="M50,-129.050003L80,-129.050003L80,-127.050003L50,-127.050003L50,-129.050003z"/>
    <path transform="matrix(1,0,0,-1,-108,-211.000031)" style="stroke:#0000ff;stroke-width:0.05mm;fill:none" d="M-80,-129.050003L-56,-129.050003L-56,-127.050003L-80,-127.050003L-80,-129.050003z"/>
    <path transform="matrix(1,0,0,-1,-108,-211.000031)" style="stroke:#0000ff;stroke-width:0.05mm;fill:none" d="M-80,-134.050003L-50,-134.050003L-50,-132.050003L-80,-132.050003L-80,-134.050003z"/>
    <path transform="matrix(1,0,0,-1,-108,-211.000031)" style="stroke:#0000ff;stroke-width:0.05mm;fill:none" d="M-46,-134.050003L-16,-134.050003L-16,-132.050003L-46,-132.050003L-46,-134.050003z"/>
    <path transform="matrix(1,0,0,-1,-108,-211.000031)" style="stroke:#0000ff;stroke-width:0.05mm;fill:none" d="M-12,-134.050003L18,-134.050003L18,-132.050003L-12,-132.050003L-12,-134.050003z"/>
    <path transform="matrix(1,0,0,-1,-108,-211.000031)" style="stroke:#0000ff;stroke-width:0.05mm;fill:none" d="M22,-134.050003L52,-134.050003L52,-132.050003L22,-132.050003L22,-134.050003z"/>
    <path transform="matrix(1,0,0,-1,-108,-211.000031)" style="stroke:#0000ff;stroke-width:0.05mm;fill:none" d="M80,-134.050003L56,-134.050003L56,-132.050003L80,-132.050003L80,-134.050003z"/>
    <path transform="matrix(1,0,0,-1,-108,-211.000031)" style="stroke:#0000ff;stroke-width:0.05mm;fill:none" d="M-52,-139.050003L-22,-139.050003L-22,-137.050003L-52,-137.050003L-52,-139.050003z"/>
    <path transform="matrix(1,0,0,-1,-108,-211.000031)" style="stroke:#0000ff;stroke-width:0.05mm;fill:none" d="M-18,-139.050003L12,-139.050003L12,-137.050003L-18,-137.050003L-18,-139.050003z"/>
    <path transform="matrix(1,0,0,-1,-108,-211.000031)" style="stroke:#0000ff;stroke-width:0.05mm;fill:none" d="M16,-139.050003L46,-139.050003L46,-137.050003L16,-137.050003L16,-139.050003z"/>
    <path transform="matrix(1,0,0,-1,-108,-211.000031)" style="stroke:#0000ff;stroke-width:0.05mm;fill:none" d="M50,-139.050003L80,-139.050003L80,-137.050003L50,-137.050003L50,-139.050003z"/>
    <path transform="matrix(1,0,0,-1,-108,-211.000031)" style="stroke:#0000ff;stroke-width:0.05mm;fill:none" d="M-80,-139.050003L-56,-139.050003L-56,-137.050003L-80,-137.050003L-80,-139.050003z"/>
    <path transform="matrix(1,0,0,-1,-108,-211.000031)" style="stroke:#0000ff;stroke-width:0.05mm;fill:none" d="M-80,-144.050003L-50,-144.050003L-50,-142.050003L-80,-142.050003L-80,-144.050003z"/>
    <path transform="matrix(1,0,0,-1,-108,-211.000031)" style="stroke:#0000ff;stroke-width:0.05mm;fill:none" d="M-46,-144.050003L-16,-144.050003L-16,-142.050003L-46,-142.050003L-46,-144.050003z"/>
    <path transform="matrix(1,0,0,-1,-108,-211.000031)" style="stroke:#0000ff;stroke-width:0.05mm;fill:none" d="M-12,-144.050003L18,-144.050003L18,-142.050003L-12,-142.050003L-12,-144.050003z"/>
    <path transform="matrix(1,0,0,-1,-108,-211.000031)" style="stroke:#0000ff;stroke-width:0.05mm;fill:none" d="M22,-144.050003L52,-144.050003L52,-142.050003L22,-142.050003L22,-144.050003z"/>
    <path transform="matrix(1,0,0,-1,-108,-211.000031)" style="stroke:#0000ff;stroke-width:0.05mm;fill:none" d="M80,-144.050003L56,-144.050003L56,-142.050003L80,-142.050003L80,-144.050003z"/>
</svg>
