<?xml version="1.0" encoding="UTF-8"?>
<svg xmlns="http://www.w3.org/2000/svg" xmlns:xlink="http://www.w3.org/1999/xlink" width="75.370mm" height="145.083mm" viewBox="-208.685226 -195.541718 75.370453 145.083466">
    <path transform="matrix(0.005718,-0.999984,-0.999984,-0.005718,-171,-122.999985)" style="stroke:#000000;stroke-width:0.05mm;fill:none" d="M-67.5,7.5L-72.5,7.5L-72.5,-7.5L-67.5,-7.5L-67.5,-32.5L-32.5,-32.5L-32.5,-37.5L-17.5,-37.5L-17.5,-32.5L-2.625,-32.5L-2.625,-27.5L-4,-27.5L-4,-23.5L-2.625,-23.5L-2.625,-20.5L2.625,-20.5L2.625,-23.5L4,-23.5L4,-27.5L2.625,-27.5L2.625,-32.5L17.5,-32.5L17.5,-37.5L32.5,-37.5L32.5,-32.5L67.5,-32.5L67.5,-7.5L72.5,-7.5L72.5,7.5L67.5,7.5L67.5,32.5L32.5,32.5L32.5,37.5L17.5,37.5L17.5,32.5L2.625,32.5L2.625,27.5L4,27.5L4,23.5L2.625,23.5L2.625,20.5L-2.625,20.5L-2.625,23.5L-4,23.5L-4,27.5L-2.625,27.5L-2.625,32.5L-17.5,32.5L-17.5,37.5L-32.5,37.5L-32.5,32.5L-67.5,32.5L-67.5,7.5z"/>
</svg>
