999
FreeCAD v0.20 29177 (Git)
  0
SECTION
  2
HEADER
  9
$ACADVER
  1
AC1014
  9
$ACADMAINTVER
 70
     9
  9
$DWGCODEPAGE
  3
ANSI_1252
  9
$TEXTSTYLE
  7
STANDARD
  9
$DIMSTYLE
  2
STANDARD
  9
$DIMTXSTY
  7
STANDARD
  9
$CMLSTYLE
  2
STANDARD
  9
$LUNITS
 70
2
  9
$INSUNITS
 70
4
  9
$PEXTMAX
 10
50
 20
50
 30
50
  9
$PEXTMIN
 10
0
 20
0
 30
0
  9
$HANDSEED
  5
FFFF
  0
ENDSEC
  0
SECTION
  2
CLASSES
  0
CLASS
  1
ACDBDICTIONARYWDFLT
  2
AcDbDictionaryWithDefault
  3
ObjectDBX Classes
 90
        0
280
     0
281
     0
  0
CLASS
  1
XRECORD
  2
AcDbXrecord
  3
ObjectDBX Classes
 90
        0
280
     0
281
     0
  0
CLASS
  1
LWPOLYLINE
  2
AcDbPolyline
  3
ObjectDBX Classes
 90
        0
280
     0
281
     1
  0
ENDSEC
  0
SECTION
  2
TABLES
  0
TABLE
  2
VPORT
  5
20
330
0
100
AcDbSymbolTable
 70
     1
  0
VPORT
  5
21
330
20
100
AcDbSymbolTableRecord
100
AcDbViewportTableRecord
  2
*ACTIVE
 70
     0
  0
ENDTAB
  0
TABLE
  2
LTYPE
  5
22
330
0
100
AcDbSymbolTable
 70
     1
  0
LTYPE
  5
23
330
21
100
AcDbSymbolTableRecord
100
AcDbLinetypeTableRecord
  2
BYBLOCK
 70
     0
  3

 72
    65
 73
     0
 40
0.0
  0
LTYPE
  5
24
330
21
100
AcDbSymbolTableRecord
100
AcDbLinetypeTableRecord
  2
BYLAYER
 70
     0
  3

 72
    65
 73
     0
 40
0.0
  0
LTYPE
  5
25
330
21
100
AcDbSymbolTableRecord
100
AcDbLinetypeTableRecord
  2
CONTINUOUS
 70
     0
  3
Solid line
 72
    65
 73
     0
 40
0.0
  0
ENDTAB
  0
TABLE
  2
LAYER
  5
A3C
330
0
100
AcDbSymbolTable
 70
3
  0
LAYER
  5
A3D
330
A3C
100
AcDbSymbolTableRecord
100
AcDbLayerTableRecord
  2
0
 70
   0
 62
   7
  6
CONTINUOUS
  0
LAYER
  5
A3E
330
A3C
100
AcDbSymbolTableRecord
100
AcDbLayerTableRecord
  2
none
 70
    0
 62
    7
  6
CONTINUOUS
  0
LAYER
  5
A3F
330
A3C
100
AcDbSymbolTableRecord
100
AcDbLayerTableRecord
  2
Sketch
 70
    0
 62
    7
  6
CONTINUOUS
  0
ENDTAB
  0
TABLE
  2
STYLE
  5
70
330
0
100
AcDbSymbolTable
 70
     2
  0
STYLE
  5
71
330
70
100
AcDbSymbolTableRecord
100
AcDbTextStyleTableRecord
  2
STANDARD
 70
     0
 40
0.0
 41
1.0
 50
0.0
 71
     0
 42
2.5
  3
arial.ttf
  4

  0
STYLE
  5
72
330
70
100
AcDbSymbolTableRecord
100
AcDbTextStyleTableRecord
  2
ANNOTATIVE
 70
     0
 40
0.0
 41
1.0
 50
0.0
 71
     0
 42
2.5
  3
arial.ttf
  4

  0
ENDTAB
  0
TABLE
  2
VIEW
  5
73
330
0
100
AcDbSymbolTable
 70
     0
  0
ENDTAB
  0
TABLE
  2
UCS
  5
74
330
0
100
AcDbSymbolTable
 70
     0
  0
ENDTAB
  0
TABLE
  2
APPID
  5
75
330
0
100
AcDbSymbolTable
 70
     2
  0
APPID
  5
76
330
75
100
AcDbSymbolTableRecord
100
AcDbRegAppTableRecord
  2
ACAD
 70
     0
  0
APPID
  5
77
330
75
100
AcDbSymbolTableRecord
100
AcDbRegAppTableRecord
  2
ACADANNOTATIVE
 70
     0
  0
ENDTAB
  0
TABLE
  2
DIMSTYLE
  5
78
330
0
100
AcDbSymbolTable
 70
     2
  0
DIMSTYLE
105
79
330
78
100
AcDbSymbolTableRecord
100
AcDbDimStyleTableRecord
  2
STANDARD
 70
     0
  3

  4

  5

  6

  7

 40
0.0
 41
2.5
 42
0.625
 43
3.75
 44
1.25
 45
0.0
 46
0.0
 47
0.0
 48
0.0
140
2.5
141
2.5
142
0.0
143
0.03937007874016
144
1.0
145
0.0
146
1.0
147
0.625
 71
     0
 72
     0
 73
     0
 74
     0
 75
     0
 76
     0
 77
     1
 78
     8
170
     0
171
     3
172
     1
173
     0
174
     0
175
     0
176
     0
177
     0
178
     0
270
     2
271
     2
272
     2
273
     2
274
     3
340
71
275
     0
280
     0
281
     0
282
     0
283
     0
284
     8
285
     0
286
     0
287
     3
288
     0
  0
ENDTAB
  0
TABLE
  2
BLOCK_RECORD
  5
A01
330
0
100
AcDbSymbolTable
  70
5
  0
BLOCK_RECORD
  5
A02
330
A01
100
AcDbSymbolTableRecord
100
AcDbBlockTableRecord
  2
*MODEL_SPACE
  0
BLOCK_RECORD
  5
A03
330
A01
100
AcDbSymbolTableRecord
100
AcDbBlockTableRecord
  2
*PAPER_SPACE
  0
ENDTAB
  0
ENDSEC
  0
SECTION
  2
BLOCKS
  0
BLOCK
  5
A04
330
A02
100
AcDbEntity
  8
0
100
AcDbBlockBegin
  2
*MODEL_SPACE
 70
   0
 10
0
 20
0
 30
0
  3
*MODEL_SPACE
  1
 
  0
ENDBLK
  5
A05
330
A02
100
AcDbEntity
  8
0
100
AcDbBlockEnd
  0
BLOCK
  5
A06
330
A03
100
AcDbEntity
 67
1
  8
0
100
AcDbBlockBegin
  2
*PAPER_SPACE
 70
   0
 10
0
 20
0
 30
0
  3
*PAPER_SPACE
  1
 
  0
ENDBLK
  5
A07
330
A03
100
AcDbEntity
 67
    1
  8
0
100
AcDbBlockEnd
  0
ENDSEC
  0
SECTION
  2
ENTITIES
  0
LINE
  5
A08
330
A02
100
AcDbEntity
  8
Sketch
100
AcDbLine
 10
-38.4376
 20
160.04
 30
0
 11
-34.9735
 21
158.04
 31
0
  0
LINE
  5
A09
330
A02
100
AcDbEntity
  8
Sketch
100
AcDbLine
 10
-34.9735
 20
158.04
 30
0
 11
-34.286
 21
159.231
 31
0
  0
LINE
  5
A0A
330
A02
100
AcDbEntity
  8
Sketch
100
AcDbLine
 10
-34.286
 20
159.231
 30
0
 11
-29.9558
 21
156.731
 31
0
  0
LINE
  5
A0B
330
A02
100
AcDbEntity
  8
Sketch
100
AcDbLine
 10
-29.9558
 20
156.731
 30
0
 11
-36.1433
 21
146.014
 31
0
  0
LINE
  5
A0C
330
A02
100
AcDbEntity
  8
Sketch
100
AcDbLine
 10
-36.1433
 20
146.014
 30
0
 11
-31.8132
 21
143.514
 31
0
  0
LINE
  5
A0D
330
A02
100
AcDbEntity
  8
Sketch
100
AcDbLine
 10
-31.8132
 20
143.514
 30
0
 11
-39.3132
 21
130.523
 31
0
  0
LINE
  5
A0E
330
A02
100
AcDbEntity
  8
Sketch
100
AcDbLine
 10
-39.3132
 20
130.523
 30
0
 11
-43.6433
 21
133.023
 31
0
  0
LINE
  5
A0F
330
A02
100
AcDbEntity
  8
Sketch
100
AcDbLine
 10
-43.6433
 20
133.023
 30
0
 11
-57.3933
 21
109.208
 31
0
  0
ARC
  5
A10
330
A02
100
AcDbEntity
  8
Sketch
100
AcDbCircle
 10
0
 20
75.8274
 30
0
 40
66.3946
100
AcDbArc
 50
149.817
 51
-97.4948
  0
LINE
  5
A11
330
A02
100
AcDbEntity
  8
Sketch
100
AcDbLine
 10
-8.66025
 20
15
 30
0
 11
-8.66025
 21
10
 31
0
  0
LINE
  5
A12
330
A02
100
AcDbEntity
  8
Sketch
100
AcDbLine
 10
6.12323e-16
 20
10
 30
0
 11
-8.66025
 21
15
 31
0
  0
LINE
  5
A13
330
A02
100
AcDbEntity
  8
Sketch
100
AcDbLine
 10
0
 20
0
 30
0
 11
6.12323e-16
 21
10
 31
0
  0
LINE
  5
A14
330
A02
100
AcDbEntity
  8
Sketch
100
AcDbLine
 10
0
 20
0
 30
0
 11
-195.5
 21
0
 31
0
  0
LINE
  5
A15
330
A02
100
AcDbEntity
  8
Sketch
100
AcDbLine
 10
-195.5
 20
0
 30
0
 11
-99.935
 21
165.523
 31
0
  0
LINE
  5
A16
330
A02
100
AcDbEntity
  8
Sketch
100
AcDbLine
 10
-99.935
 20
165.523
 30
0
 11
-104.265
 21
168.023
 31
0
  0
LINE
  5
A17
330
A02
100
AcDbEntity
  8
Sketch
100
AcDbLine
 10
-104.265
 20
168.023
 30
0
 11
-96.7651
 21
181.014
 31
0
  0
LINE
  5
A18
330
A02
100
AcDbEntity
  8
Sketch
100
AcDbLine
 10
-96.7651
 20
181.014
 30
0
 11
-92.435
 21
178.514
 31
0
  0
LINE
  5
A19
330
A02
100
AcDbEntity
  8
Sketch
100
AcDbLine
 10
-92.435
 20
178.514
 30
0
 11
-86.2475
 21
189.231
 31
0
  0
LINE
  5
A1A
330
A02
100
AcDbEntity
  8
Sketch
100
AcDbLine
 10
-86.2475
 20
189.231
 30
0
 11
-82.7834
 21
187.231
 31
0
  0
LINE
  5
A1B
330
A02
100
AcDbEntity
  8
Sketch
100
AcDbLine
 10
-83.4709
 20
186.04
 30
0
 11
-82.7834
 21
187.231
 31
0
  0
LINE
  5
A1C
330
A02
100
AcDbEntity
  8
Sketch
100
AcDbLine
 10
-80.0068
 20
184.04
 30
0
 11
-83.4709
 21
186.04
 31
0
  0
LINE
  5
A1D
330
A02
100
AcDbEntity
  8
Sketch
100
AcDbLine
 10
-80.0068
 20
184.04
 30
0
 11
-79.3193
 21
185.231
 31
0
  0
LINE
  5
A1E
330
A02
100
AcDbEntity
  8
Sketch
100
AcDbLine
 10
-79.3193
 20
185.231
 30
0
 11
-75.8552
 21
183.231
 31
0
  0
LINE
  5
A1F
330
A02
100
AcDbEntity
  8
Sketch
100
AcDbLine
 10
-75.8552
 20
183.231
 30
0
 11
-73.2302
 21
187.778
 31
0
  0
LINE
  5
A20
330
A02
100
AcDbEntity
  8
Sketch
100
AcDbLine
 10
-73.2302
 20
187.778
 30
0
 11
-76.6943
 21
189.778
 31
0
  0
LINE
  5
A21
330
A02
100
AcDbEntity
  8
Sketch
100
AcDbLine
 10
-76.6943
 20
189.778
 30
0
 11
-76.0068
 21
190.968
 31
0
  0
LINE
  5
A22
330
A02
100
AcDbEntity
  8
Sketch
100
AcDbLine
 10
-79.4709
 20
192.968
 30
0
 11
-76.0068
 21
190.968
 31
0
  0
LINE
  5
A23
330
A02
100
AcDbEntity
  8
Sketch
100
AcDbLine
 10
-80.1584
 20
191.778
 30
0
 11
-79.4709
 21
192.968
 31
0
  0
LINE
  5
A24
330
A02
100
AcDbEntity
  8
Sketch
100
AcDbLine
 10
-83.6225
 20
193.778
 30
0
 11
-80.1584
 21
191.778
 31
0
  0
LINE
  5
A25
330
A02
100
AcDbEntity
  8
Sketch
100
AcDbLine
 10
-77.435
 20
204.495
 30
0
 11
-83.6225
 21
193.778
 31
0
  0
LINE
  5
A26
330
A02
100
AcDbEntity
  8
Sketch
100
AcDbLine
 10
-77.435
 20
204.495
 30
0
 11
-81.7651
 21
206.995
 31
0
  0
LINE
  5
A27
330
A02
100
AcDbEntity
  8
Sketch
100
AcDbLine
 10
-81.7651
 20
206.995
 30
0
 11
-74.2651
 21
219.985
 31
0
  0
LINE
  5
A28
330
A02
100
AcDbEntity
  8
Sketch
100
AcDbLine
 10
-74.2651
 20
219.985
 30
0
 11
-69.935
 21
217.485
 31
0
  0
LINE
  5
A29
330
A02
100
AcDbEntity
  8
Sketch
100
AcDbLine
 10
-69.935
 20
217.485
 30
0
 11
-33.635
 21
280.358
 31
0
  0
LINE
  5
A2A
330
A02
100
AcDbEntity
  8
Sketch
100
AcDbLine
 10
-33.635
 20
280.358
 30
0
 11
-11.9844
 21
267.858
 31
0
  0
LINE
  5
A2B
330
A02
100
AcDbEntity
  8
Sketch
100
AcDbLine
 10
-11.9844
 20
267.858
 30
0
 11
-14.4844
 21
263.528
 31
0
  0
LINE
  5
A2C
330
A02
100
AcDbEntity
  8
Sketch
100
AcDbLine
 10
-14.4844
 20
263.528
 30
0
 11
-1.49398
 21
256.028
 31
0
  0
LINE
  5
A2D
330
A02
100
AcDbEntity
  8
Sketch
100
AcDbLine
 10
-1.49398
 20
256.028
 30
0
 11
1.00602
 21
260.358
 31
0
  0
LINE
  5
A2E
330
A02
100
AcDbEntity
  8
Sketch
100
AcDbLine
 10
1.00602
 20
260.358
 30
0
 11
22.6567
 21
247.858
 31
0
  0
LINE
  5
A2F
330
A02
100
AcDbEntity
  8
Sketch
100
AcDbLine
 10
22.6567
 20
247.858
 30
0
 11
-13.6433
 21
184.985
 31
0
  0
LINE
  5
A30
330
A02
100
AcDbEntity
  8
Sketch
100
AcDbLine
 10
-13.6433
 20
184.985
 30
0
 11
-9.31322
 21
182.485
 31
0
  0
LINE
  5
A31
330
A02
100
AcDbEntity
  8
Sketch
100
AcDbLine
 10
-9.31322
 20
182.485
 30
0
 11
-16.8132
 21
169.495
 31
0
  0
LINE
  5
A32
330
A02
100
AcDbEntity
  8
Sketch
100
AcDbLine
 10
-16.8132
 20
169.495
 30
0
 11
-21.1433
 21
171.995
 31
0
  0
LINE
  5
A33
330
A02
100
AcDbEntity
  8
Sketch
100
AcDbLine
 10
-21.1433
 20
171.995
 30
0
 11
-27.3308
 21
161.278
 31
0
  0
LINE
  5
A34
330
A02
100
AcDbEntity
  8
Sketch
100
AcDbLine
 10
-31.661
 20
163.778
 30
0
 11
-27.3308
 21
161.278
 31
0
  0
LINE
  5
A35
330
A02
100
AcDbEntity
  8
Sketch
100
AcDbLine
 10
-31.661
 20
163.778
 30
0
 11
-30.9735
 21
164.968
 31
0
  0
LINE
  5
A36
330
A02
100
AcDbEntity
  8
Sketch
100
AcDbLine
 10
-30.9735
 20
164.968
 30
0
 11
-34.4376
 21
166.968
 31
0
  0
LINE
  5
A37
330
A02
100
AcDbEntity
  8
Sketch
100
AcDbLine
 10
-35.1251
 20
165.778
 30
0
 11
-34.4376
 21
166.968
 31
0
  0
LINE
  5
A38
330
A02
100
AcDbEntity
  8
Sketch
100
AcDbLine
 10
-37.7232
 20
167.278
 30
0
 11
-35.1251
 21
165.778
 31
0
  0
LINE
  5
A39
330
A02
100
AcDbEntity
  8
Sketch
100
AcDbLine
 10
-40.3482
 20
162.731
 30
0
 11
-37.7232
 21
167.278
 31
0
  0
LINE
  5
A3A
330
A02
100
AcDbEntity
  8
Sketch
100
AcDbLine
 10
-37.7501
 20
161.231
 30
0
 11
-40.3482
 21
162.731
 31
0
  0
LINE
  5
A3B
330
A02
100
AcDbEntity
  8
Sketch
100
AcDbLine
 10
-38.4376
 20
160.04
 30
0
 11
-37.7501
 21
161.231
 31
0
  0
ENDSEC
  0
SECTION
  2
OBJECTS
  0
DICTIONARY
  5
F000
330
0
100
AcDbDictionary
  3
ACAD_GROUP
350
F001
  0
DICTIONARY
  5
F001
330
F000
100
AcDbDictionary
  0
ENDSEC
  0
EOF